shantellsans-wght_ital_IRGL.glyphspackage
{
color = 4;
glyphname = exclam;
layers = (
{
layerId = "DC44E50C-9AA1-421C-802C-D4D023281425";
shapes = (
{
closed = 1;
nodes = (
(147,220,o),
(165,230,o),
(165,265,cs),
(165,319,o),
(155,333,o),
(155,437,cs),
(155,554,o),
(167,590,o),
(167,653,cs),
(167,691,o),
(147,712,o),
(127,712,cs),
(109,712,o),
(99,694,o),
(99,675,cs),
(99,614,o),
(87,568,o),
(87,451,cs),
(87,388,o),
(90,334,o),
(103,256,cs),
(107,234,o),
(119,220,o),
(134,220,cs)
);
},
{
closed = 1;
nodes = (
(181,-10,o),
(195,16,o),
(195,41,cs),
(195,78,o),
(174,113,o),
(120,113,cs),
(93,113,o),
(70,91,o),
(70,61,cs),
(70,16,o),
(104,-10,o),
(145,-10,cs)
);
}
);
userData = {
com.typemytype.robofont.Image.Sharpness = 0.4;
};
vertWidth = 0;
width = 265;
},
{
layerId = "FA16BA0A-39E2-4955-BC33-721AB190E0D3";
shapes = (
{
closed = 1;
nodes = (
(209,236,o),
(236,264,o),
(236,322,cs),
(236,361,o),
(230,425,o),
(230,487,cs),
(230,531,o),
(235,568,o),
(235,600,cs),
(235,684,o),
(196.357,718,o),
(134,718,cs),
(81.962,718,o),
(66,684,o),
(68,639,cs),
(70,571,o),
(63,513,o),
(63,461,cs),
(63,397.048,o),
(67,358,o),
(78,302,cs),
(88,256,o),
(119,236,o),
(166,236,cs)
);
},
{
closed = 1;
nodes = (
(229,-13,o),
(259,14,o),
(259,57,cs),
(259,112,o),
(221,165,o),
(139,165,cs),
(86,165,o),
(50,136,o),
(50,76,cs),
(50,19,o),
(96,-13,o),
(172,-13,cs)
);
}
);
vertWidth = 0;
width = 309;
},
{
layerId = "365BB766-143C-4A52-A3A9-25E29A0F4411";
shapes = (
{
closed = 1;
nodes = (
(147,220,o),
(165,230,o),
(165,265,cs),
(165,319,o),
(155,333,o),
(155,437,cs),
(155,554,o),
(167,590,o),
(167,653,cs),
(167,691,o),
(147,712,o),
(127,712,cs),
(109,712,o),
(99,694,o),
(99,675,cs),
(99,614,o),
(87,568,o),
(87,451,cs),
(87,388,o),
(90,334,o),
(103,256,cs),
(107,234,o),
(119,220,o),
(134,220,cs)
);
},
{
closed = 1;
nodes = (
(181,-10,o),
(195,16,o),
(195,41,cs),
(195,78,o),
(174,113,o),
(120,113,cs),
(93,113,o),
(70,91,o),
(70,61,cs),
(70,16,o),
(104,-10,o),
(145,-10,cs)
);
}
);
userData = {
com.typemytype.robofont.Image.Sharpness = 0.4;
};
vertWidth = 0;
width = 265;
},
{
layerId = "5DCC2EB0-DF11-4824-93BF-E616AA6EE2C6";
shapes = (
{
closed = 1;
nodes = (
(209,236,o),
(236,264,o),
(236,322,cs),
(236,361,o),
(230,425,o),
(230,487,cs),
(230,531,o),
(235,568,o),
(235,600,cs),
(235,684,o),
(191,718,o),
(120,718,cs),
(79,718,o),
(66,692,o),
(68,653,cs),
(70,585,o),
(63,523,o),
(63,471,cs),
(63,403,o),
(68,363,o),
(79,303,cs),
(88,256,o),
(119,236,o),
(166,236,cs)
);
},
{
closed = 1;
nodes = (
(229,-13,o),
(259,14,o),
(259,57,cs),
(259,112,o),
(221,165,o),
(139,165,cs),
(86,165,o),
(50,136,o),
(50,76,cs),
(50,19,o),
(96,-13,o),
(172,-13,cs)
);
}
);
vertWidth = 0;
width = 309;
},
{
layerId = master01;
shapes = (
{
closed = 1;
nodes = (
(142.645,220,o),
(162.645,230,o),
(169.645,265,cs),
(180.645,319,o),
(173.645,333,o),
(193.645,437,cs),
(217.645,554,o),
(236.645,590,o),
(249.645,653,cs),
(256.645,691,o),
(240.645,712,o),
(220.645,712,cs),
(202.645,712,o),
(189.645,694,o),
(185.645,675,cs),
(173.645,614,o),
(152.645,568,o),
(128.645,451,cs),
(116.645,388,o),
(108.645,334,o),
(105.645,256,cs),
(105.645,234,o),
(114.645,220,o),
(129.645,220,cs)
);
},
{
closed = 1;
nodes = (
(130.645,-10,o),
(149.645,16,o),
(154.645,41,cs),
(162.645,78,o),
(148.645,113,o),
(94.645,113,cs),
(67.645,113,o),
(39.645,91,o),
(33.645,61,cs),
(24.645,16,o),
(53.645,-10,o),
(94.645,-10,cs)
);
}
);
vertWidth = 0;
width = 265;
},
{
layerId = "FAD04859-55EE-48D6-A0AA-73DE2A79512F";
shapes = (
{
closed = 1;
nodes = (
(204.833,236,o),
(237.833,264,o),
(248.833,322,cs),
(256.833,361,o),
(263.833,425,o),
(275.833,487,cs),
(284.833,531,o),
(297.833,568,o),
(303.833,600,cs),
(320.833,684,o),
(288.833,718,o),
(226.833,718,cs),
(174.833,718,o),
(151.833,684,o),
(144.833,639,cs),
(132.833,571,o),
(114.833,513,o),
(103.833,461,cs),
(90.833,397,o),
(87.833,358,o),
(86.833,302,cs),
(87.833,256,o),
(114.833,236,o),
(161.833,236,cs)
);
},
{
closed = 1;
nodes = (
(174.833,-13,o),
(210.833,14,o),
(218.833,57,cs),
(229.833,112,o),
(202.833,165,o),
(120.833,165,cs),
(67.833,165,o),
(25.833,136,o),
(13.833,76,cs),
(2.833,19,o),
(41.833,-13,o),
(117.833,-13,cs)
);
}
);
vertWidth = 0;
width = 309;
},
{
layerId = "0998268F-450B-429A-9175-FFA5E463F4E3";
shapes = (
{
closed = 1;
nodes = (
(142.645,220,o),
(162.645,230,o),
(169.645,265,cs),
(180.645,319,o),
(173.645,333,o),
(193.645,437,cs),
(217.645,554,o),
(236.645,590,o),
(249.645,653,cs),
(256.645,691,o),
(240.645,712,o),
(220.645,712,cs),
(202.645,712,o),
(189.645,694,o),
(185.645,675,cs),
(173.645,614,o),
(152.645,568,o),
(128.645,451,cs),
(116.645,388,o),
(108.645,334,o),
(105.645,256,cs),
(105.645,234,o),
(114.645,220,o),
(129.645,220,cs)
);
},
{
closed = 1;
nodes = (
(130.645,-10,o),
(149.645,16,o),
(154.645,41,cs),
(162.645,78,o),
(148.645,113,o),
(94.645,113,cs),
(67.645,113,o),
(39.645,91,o),
(33.645,61,cs),
(24.645,16,o),
(53.645,-10,o),
(94.645,-10,cs)
);
}
);
vertWidth = 0;
width = 265;
},
{
layerId = "60E1EE18-36F5-475C-BAEC-6556E4A9959C";
shapes = (
{
closed = 1;
nodes = (
(204.833,236,o),
(237.833,264,o),
(248.833,322,cs),
(256.833,361,o),
(263.833,425,o),
(275.833,487,cs),
(284.833,531,o),
(297.833,568,o),
(303.833,600,cs),
(320.833,684,o),
(288.833,718,o),
(226.833,718,cs),
(174.833,718,o),
(151.833,684,o),
(144.833,639,cs),
(132.833,571,o),
(114.833,513,o),
(103.833,461,cs),
(90.833,397,o),
(87.833,358,o),
(86.833,302,cs),
(87.833,256,o),
(114.833,236,o),
(161.833,236,cs)
);
},
{
closed = 1;
nodes = (
(174.833,-13,o),
(210.833,14,o),
(218.833,57,cs),
(229.833,112,o),
(202.833,165,o),
(120.833,165,cs),
(67.833,165,o),
(25.833,136,o),
(13.833,76,cs),
(2.833,19,o),
(41.833,-13,o),
(117.833,-13,cs)
);
}
);
vertWidth = 0;
width = 309;
}
);
unicode = 33;
userData = {
KernOnSpecialSpacing = {
L = "spaced-off";
};
};
}
{
color = 4;
glyphname = numbersign;
layers = (
{
background = {
shapes = (
{
closed = 0;
nodes = (
(402,778,l),
(404,625,o),
(201,135,o),
(195,-61,c)
);
},
{
closed = 0;
nodes = (
(752,725,l),
(762,572,o),
(555,183,o),
(545,-114,c)
);
},
{
closed = 0;
nodes = (
(190,524,l),
(417,493,o),
(618,482,o),
(857,489,c)
);
},
{
closed = 0;
nodes = (
(80,181,l),
(304,170,o),
(601,212,o),
(837,219,c)
);
}
);
};
layerId = "DC44E50C-9AA1-421C-802C-D4D023281425";
shapes = (
{
closed = 1;
nodes = (
(226,-96,o),
(241,-82,o),
(241,-67,cs),
(241,143,o),
(448,611,o),
(448,770,cs),
(448,793,o),
(430,812,o),
(409,812,cs),
(390,812,o),
(380,798,o),
(380,782,cs),
(377,620,o),
(173,160,o),
(173,-49,cs),
(173,-78,o),
(190,-94,o),
(211,-95,cs)
);
},
{
closed = 1;
nodes = (
(307,146,o),
(600,187,o),
(829,187,cs),
(862,187,o),
(881,206,o),
(881,225,cs),
(881,245,o),
(867,253,o),
(851,253,cs),
(612,253,o),
(331,215,o),
(79,215,cs),
(60,215,o),
(47,206,o),
(46,188,cs),
(45,169,o),
(60,146,o),
(92,146,cs)
);
},
{
closed = 1;
nodes = (
(564,-149,o),
(579,-135,o),
(579,-120,cs),
(579,178,o),
(786,559,o),
(786,710,cs),
(786,743,o),
(765,760,o),
(745,759,cs),
(726,758,o),
(718,743,o),
(718,727,cs),
(718,563,o),
(511,179,o),
(511,-102,cs),
(511,-131,o),
(528,-147,o),
(549,-148,cs)
);
},
{
closed = 1;
nodes = (
(872,457,o),
(892,474,o),
(891,498,cs),
(890,516,o),
(877,522,o),
(855,522,cs),
(351,522,o),
(258,558,o),
(191,558,cs),
(170,558,o),
(156,548,o),
(156,529,cs),
(156,510,o),
(167,493,o),
(206,488,cs),
(416,461,o),
(615,457,o),
(839,457,cs)
);
}
);
userData = {
com.typemytype.robofont.Image.Brightness = 0;
com.typemytype.robofont.Image.Contrast = 1;
com.typemytype.robofont.Image.Saturation = 1;
com.typemytype.robofont.Image.Sharpness = 0.4;
};
vertWidth = 0;
width = 937;
},
{
backgroundImage = {
imagePath = numbersign.png;
pos = (11.926,-214.571);
scale = (1.7591,1.7591);
};
layerId = "FA16BA0A-39E2-4955-BC33-721AB190E0D3";
shapes = (
{
closed = 1;
nodes = (
(275,-139,o),
(317,-100,o),
(317,-50,cs),
(317,130,o),
(524,547,o),
(524,710,cs),
(524,770,o),
(475,821,o),
(418,820,cs),
(370,819,o),
(343,788,o),
(343,722,cs),
(343,566,o),
(135,147,o),
(135,-21,cs),
(135,-98,o),
(179,-137,o),
(233,-138,cs)
);
},
{
closed = 1;
nodes = (
(339,58,o),
(625,110,o),
(823,115,cs),
(927,119,o),
(971,174,o),
(969,228,cs),
(968,266,o),
(947,287,o),
(888,287,cs),
(645,287,o),
(356,254,o),
(113,254,cs),
(63,254,o),
(22,219,o),
(20,176,cs),
(17,117,o),
(51,58,o),
(165,58,cs)
);
},
{
closed = 1;
nodes = (
(634,-189,o),
(667,-158,o),
(667,-101,cs),
(667,171,o),
(869,520,o),
(869,665,cs),
(869,728,o),
(813,769,o),
(757,769,cs),
(712,769,o),
(691,739,o),
(691,688,cs),
(691,525,o),
(490,183,o),
(485,-85,cs),
(484,-142,o),
(525,-187,o),
(589,-188,cs)
);
},
{
closed = 1;
nodes = (
(941,398,o),
(980,444,o),
(979,491,cs),
(978,535,o),
(952,559,o),
(905,559,cs),
(359,559,o),
(316,613,o),
(225,613,cs),
(163,613,o),
(138,581,o),
(138,536,cs),
(138,491,o),
(162,437,o),
(275,425,cs),
(444,405,o),
(645,398,o),
(875,398,cs)
);
}
);
userData = {
com.typemytype.robofont.Image.Sharpness = 0.4;
};
vertWidth = 0;
width = 1004;
},
{
background = {
shapes = (
{
closed = 0;
nodes = (
(402,778,l),
(404,625,o),
(201,135,o),
(195,-61,c)
);
},
{
closed = 0;
nodes = (
(752,725,l),
(762,572,o),
(555,183,o),
(545,-114,c)
);
},
{
closed = 0;
nodes = (
(190,524,l),
(417,493,o),
(618,482,o),
(857,489,c)
);
},
{
closed = 0;
nodes = (
(80,181,l),
(304,170,o),
(601,212,o),
(837,219,c)
);
}
);
};
layerId = "365BB766-143C-4A52-A3A9-25E29A0F4411";
shapes = (
{
closed = 1;
nodes = (
(226,-96,o),
(241,-82,o),
(241,-67,cs),
(241,143,o),
(448,611,o),
(448,770,cs),
(448,793,o),
(430,812,o),
(409,812,cs),
(390,812,o),
(380,798,o),
(380,782,cs),
(377,620,o),
(173,160,o),
(173,-49,cs),
(173,-78,o),
(190,-94,o),
(211,-95,cs)
);
},
{
closed = 1;
nodes = (
(307,146,o),
(600,187,o),
(829,187,cs),
(862,187,o),
(881,206,o),
(881,225,cs),
(881,245,o),
(867,253,o),
(851,253,cs),
(612,253,o),
(331,215,o),
(79,215,cs),
(60,215,o),
(47,206,o),
(46,188,cs),
(45,169,o),
(60,146,o),
(92,146,cs)
);
},
{
closed = 1;
nodes = (
(564,-149,o),
(579,-135,o),
(579,-120,cs),
(579,178,o),
(786,559,o),
(786,710,cs),
(786,743,o),
(765,760,o),
(745,759,cs),
(726,758,o),
(718,743,o),
(718,727,cs),
(718,563,o),
(511,179,o),
(511,-102,cs),
(511,-131,o),
(528,-147,o),
(549,-148,cs)
);
},
{
closed = 1;
nodes = (
(872,457,o),
(892,474,o),
(891,498,cs),
(890,516,o),
(877,522,o),
(855,522,cs),
(351,522,o),
(258,558,o),
(191,558,cs),
(170,558,o),
(156,548,o),
(156,529,cs),
(156,510,o),
(167,493,o),
(206,488,cs),
(416,461,o),
(615,457,o),
(839,457,cs)
);
}
);
userData = {
com.typemytype.robofont.Image.Brightness = 0;
com.typemytype.robofont.Image.Contrast = 1;
com.typemytype.robofont.Image.Saturation = 1;
com.typemytype.robofont.Image.Sharpness = 0.4;
};
vertWidth = 0;
width = 937;
},
{
backgroundImage = {
imagePath = numbersign.png;
pos = (11.926,-214.571);
scale = (1.7591,1.7591);
};
layerId = "5DCC2EB0-DF11-4824-93BF-E616AA6EE2C6";
shapes = (
{
closed = 1;
nodes = (
(290,-139,o),
(332,-100,o),
(332,-50,cs),
(332,130,o),
(539,547,o),
(539,710,cs),
(539,770,o),
(490,821,o),
(433,820,cs),
(385,819,o),
(358,788,o),
(358,722,cs),
(358,566,o),
(150,147,o),
(150,-21,cs),
(150,-98,o),
(194,-137,o),
(248,-138,cs)
);
},
{
closed = 1;
nodes = (
(354.298,58,o),
(639.99,109.843,o),
(838,115,cs),
(942,119,o),
(986,174,o),
(984,228,cs),
(983,266,o),
(962,287,o),
(903,287,cs),
(659.722,287,o),
(371.278,254,o),
(128,254,cs),
(78,254,o),
(37,219,o),
(35,176,cs),
(32,117,o),
(66,58,o),
(180,58,cs)
);
},
{
closed = 1;
nodes = (
(649,-189,o),
(682,-158,o),
(682,-101,cs),
(682,171,o),
(884,520,o),
(884,665,cs),
(884,728,o),
(828,769,o),
(772,769,cs),
(727,769,o),
(706,739,o),
(706,688,cs),
(706,525,o),
(505,183,o),
(500,-85,cs),
(499,-142,o),
(540,-187,o),
(604,-188,cs)
);
},
{
closed = 1;
nodes = (
(956,398,o),
(995,444,o),
(994,491,cs),
(993,535,o),
(967,559,o),
(920,559,cs),
(374,559,o),
(330.871,613,o),
(240,613,cs),
(178,613,o),
(153,581,o),
(153,536,cs),
(153,491,o),
(177,437,o),
(290,425,cs),
(459,405,o),
(660,398,o),
(890,398,cs)
);
}
);
userData = {
com.typemytype.robofont.Image.Sharpness = 0.4;
};
vertWidth = 0;
width = 1029;
},
{
layerId = master01;
shapes = (
{
closed = 1;
nodes = (
(158.219,-96,o),
(176.219,-82,o),
(179.219,-67,cs),
(221.219,143,o),
(521.219,611,o),
(553.219,770,cs),
(558.219,793,o),
(543.219,812,o),
(522.219,812,cs),
(503.219,812,o),
(491.219,798,o),
(487.219,782,cs),
(452.219,620,o),
(156.219,160,o),
(114.219,-49,cs),
(108.219,-78,o),
(122.219,-94,o),
(143.219,-95,cs)
);
},
{
closed = 1;
nodes = (
(287.219,146,o),
(588.219,187,o),
(817.219,187,cs),
(850.219,187,o),
(873.219,206,o),
(877.219,225,cs),
(881.219,245,o),
(869.219,253,o),
(853.219,253,cs),
(614.219,253,o),
(325.219,215,o),
(73.219,215,cs),
(54.219,215,o),
(39.219,206,o),
(35.219,188,cs),
(30.219,169,o),
(40.219,146,o),
(72.219,146,cs)
);
},
{
closed = 1;
nodes = (
(485.219,-149,o),
(503.219,-135,o),
(506.219,-120,cs),
(566.219,178,o),
(849.219,559,o),
(879.219,710,cs),
(886.219,743,o),
(868.219,760,o),
(848.219,759,cs),
(829.219,758,o),
(818.219,743,o),
(814.219,727,cs),
(782.219,563,o),
(498.219,179,o),
(442.219,-102,cs),
(436.219,-131,o),
(450.219,-147,o),
(470.219,-148,cs)
);
},
{
closed = 1;
nodes = (
(914.219,457,o),
(938.219,474,o),
(942.219,498,cs),
(944.219,516,o),
(932.219,522,o),
(910.219,522,cs),
(406.219,522,o),
(321.219,558,o),
(254.219,558,cs),
(233.219,558,o),
(217.219,548,o),
(213.219,529,cs),
(209.219,510,o),
(217.219,493,o),
(255.219,488,cs),
(459.219,461,o),
(657.219,457,o),
(881.219,457,cs)
);
}
);
vertWidth = 0;
width = 937;
},
{
layerId = "FAD04859-55EE-48D6-A0AA-73DE2A79512F";
shapes = (
{
closed = 1;
nodes = (
(196.1,-139,o),
(246.1,-100,o),
(256.1,-50,cs),
(292.1,130,o),
(582.1,547,o),
(615.1,710,cs),
(627.1,770,o),
(588.1,821,o),
(531.1,820,cs),
(483.1,819,o),
(450.1,788,o),
(436.1,722,cs),
(405.1,566,o),
(113.1,147,o),
(80.1,-21,cs),
(64.1,-98,o),
(101.1,-137,o),
(154.1,-138,cs)
);
},
{
closed = 1;
nodes = (
(300.1,58,o),
(596.1,110,o),
(795.1,115,cs),
(900.1,119,o),
(955.1,174,o),
(964.1,228,cs),
(970.1,266,o),
(953.1,287,o),
(894.1,287,cs),
(651.1,287,o),
(356.1,254,o),
(113.1,254,cs),
(63.1,254,o),
(15.1,219,o),
(4.1,176,cs),
(-10.9,117,o),
(12.1,58,o),
(126.1,58,cs)
);
},
{
closed = 1;
nodes = (
(545.1,-189,o),
(584.1,-158,o),
(596.1,-101,cs),
(650.1,171,o),
(922.1,520,o),
(951.1,665,cs),
(964.1,728,o),
(916.1,769,o),
(860.1,769,cs),
(815.1,769,o),
(788.1,739,o),
(778.1,688,cs),
(745.1,525,o),
(476.1,183,o),
(417.1,-85,cs),
(405.1,-142,o),
(437.1,-187,o),
(500.1,-188,cs)
);
},
{
closed = 1;
nodes = (
(970.1,398,o),
(1018.1,444,o),
(1026.1,491,cs),
(1034.1,535,o),
(1013.1,559,o),
(966.1,559,cs),
(420.1,559,o),
(388.1,613,o),
(297.1,613,cs),
(235.1,613,o),
(203.1,581,o),
(194.1,536,cs),
(185.1,491,o),
(198.1,437,o),
(309.1,425,cs),
(474.1,405,o),
(674.1,398,o),
(904.1,398,cs)
);
}
);
vertWidth = 0;
width = 1004;
},
{
layerId = "0998268F-450B-429A-9175-FFA5E463F4E3";
shapes = (
{
closed = 1;
nodes = (
(158.219,-96,o),
(176.219,-82,o),
(179.219,-67,cs),
(221.219,143,o),
(521.219,611,o),
(553.219,770,cs),
(558.219,793,o),
(543.219,812,o),
(522.219,812,cs),
(503.219,812,o),
(491.219,798,o),
(487.219,782,cs),
(452.219,620,o),
(156.219,160,o),
(114.219,-49,cs),
(108.219,-78,o),
(122.219,-94,o),
(143.219,-95,cs)
);
},
{
closed = 1;
nodes = (
(287.219,146,o),
(588.219,187,o),
(817.219,187,cs),
(850.219,187,o),
(873.219,206,o),
(877.219,225,cs),
(881.219,245,o),
(869.219,253,o),
(853.219,253,cs),
(614.219,253,o),
(325.219,215,o),
(73.219,215,cs),
(54.219,215,o),
(39.219,206,o),
(35.219,188,cs),
(30.219,169,o),
(40.219,146,o),
(72.219,146,cs)
);
},
{
closed = 1;
nodes = (
(485.219,-149,o),
(503.219,-135,o),
(506.219,-120,cs),
(566.219,178,o),
(849.219,559,o),
(879.219,710,cs),
(886.219,743,o),
(868.219,760,o),
(848.219,759,cs),
(829.219,758,o),
(818.219,743,o),
(814.219,727,cs),
(782.219,563,o),
(498.219,179,o),
(442.219,-102,cs),
(436.219,-131,o),
(450.219,-147,o),
(470.219,-148,cs)
);
},
{
closed = 1;
nodes = (
(914.219,457,o),
(938.219,474,o),
(942.219,498,cs),
(944.219,516,o),
(932.219,522,o),
(910.219,522,cs),
(406.219,522,o),
(321.219,558,o),
(254.219,558,cs),
(233.219,558,o),
(217.219,548,o),
(213.219,529,cs),
(209.219,510,o),
(217.219,493,o),
(255.219,488,cs),
(459.219,461,o),
(657.219,457,o),
(881.219,457,cs)
);
}
);
vertWidth = 0;
width = 937;
},
{
layerId = "60E1EE18-36F5-475C-BAEC-6556E4A9959C";
shapes = (
{
closed = 1;
nodes = (
(196.1,-139,o),
(246.1,-100,o),
(256.1,-50,cs),
(292.1,130,o),
(582.1,547,o),
(615.1,710,cs),
(627.1,770,o),
(588.1,821,o),
(531.1,820,cs),
(483.1,819,o),
(450.1,788,o),
(436.1,722,cs),
(405.1,566,o),
(113.1,147,o),
(80.1,-21,cs),
(64.1,-98,o),
(101.1,-137,o),
(154.1,-138,cs)
);
},
{
closed = 1;
nodes = (
(300.1,58,o),
(596.1,110,o),
(795.1,115,cs),
(900.1,119,o),
(955.1,174,o),
(964.1,228,cs),
(970.1,266,o),
(953.1,287,o),
(894.1,287,cs),
(651.1,287,o),
(356.1,254,o),
(113.1,254,cs),
(63.1,254,o),
(15.1,219,o),
(4.1,176,cs),
(-10.9,117,o),
(12.1,58,o),
(126.1,58,cs)
);
},
{
closed = 1;
nodes = (
(545.1,-189,o),
(584.1,-158,o),
(596.1,-101,cs),
(650.1,171,o),
(922.1,520,o),
(951.1,665,cs),
(964.1,728,o),
(916.1,769,o),
(860.1,769,cs),
(815.1,769,o),
(788.1,739,o),
(778.1,688,cs),
(745.1,525,o),
(476.1,183,o),
(417.1,-85,cs),
(405.1,-142,o),
(437.1,-187,o),
(500.1,-188,cs)
);
},
{
closed = 1;
nodes = (
(970.1,398,o),
(1018.1,444,o),
(1026.1,491,cs),
(1034.1,535,o),
(1013.1,559,o),
(966.1,559,cs),
(420.1,559,o),
(388.1,613,o),
(297.1,613,cs),
(235.1,613,o),
(203.1,581,o),
(194.1,536,cs),
(185.1,491,o),
(198.1,437,o),
(309.1,425,cs),
(474.1,405,o),
(674.1,398,o),
(904.1,398,cs)
);
}
);
vertWidth = 0;
width = 1004;
},
{
associatedMasterId = "FA16BA0A-39E2-4955-BC33-721AB190E0D3";
layerId = "934284C9-D641-487B-AD85-47FD6759B04E";
name = "another one";
shapes = (
{
closed = 1;
nodes = (
(477,567,o),
(270,130,o),
(270,-50,cs),
(270,-90,o),
(237,-123,o),
(202,-122,cs),
(156,-121,o),
(120,-85,o),
(120,-21,cs),
(120,147,o),
(328,566,o),
(328,722,cs),
(328,774,o),
(347,803,o),
(387,804,cs),
(436,805,o),
(477,761,o),
(477,710,cs)
);
},
{
closed = 1;
nodes = (
(831,529,o),
(620,171,o),
(620,-101,cs),
(620,-146,o),
(595,-173,o),
(558,-172,cs),
(504,-171,o),
(469,-133,o),
(470,-85,cs),
(475,183,o),
(683,524,o),
(677,677,cs),
(675,721,o),
(692,751,o),
(727,753,cs),
(775,756,o),
(819,719,o),
(822,673,cs)
);
},
{
closed = 1;
nodes = (
(283,597,o),
(325,543,o),
(860,543,cs),
(897,543,o),
(931,516,o),
(932,481,cs),
(933,446,o),
(900,414,o),
(859,414,cs),
(615,414,o),
(414,418,o),
(245,435,cs),
(146,444,o),
(123,496,o),
(123,536,cs),
(123,573,o),
(145,597,o),
(194,597,cs)
);
},
{
closed = 1;
nodes = (
(319,238,o),
(600,273,o),
(837,273,cs),
(881,273,o),
(901,260,o),
(902,229,cs),
(904,181,o),
(860,136,o),
(771,133,cs),
(580,128,o),
(303,74,o),
(134,74,cs),
(37,74,o),
(2,123,o),
(5,175,cs),
(7,211,o),
(42,238,o),
(82,238,cs)
);
}
);
vertWidth = 0;
width = 1004;
},
{
associatedMasterId = "5DCC2EB0-DF11-4824-93BF-E616AA6EE2C6";
layerId = "643601BD-4FE2-4CC7-8F21-8115BEF2FECE";
name = "another one";
shapes = (
{
closed = 1;
nodes = (
(477,567,o),
(270,130,o),
(270,-50,cs),
(270,-90,o),
(237,-123,o),
(202,-122,cs),
(156,-121,o),
(120,-85,o),
(120,-21,cs),
(120,147,o),
(328,566,o),
(328,722,cs),
(328,774,o),
(347,803,o),
(387,804,cs),
(436,805,o),
(477,761,o),
(477,710,cs)
);
},
{
closed = 1;
nodes = (
(831,529,o),
(620,171,o),
(620,-101,cs),
(620,-146,o),
(595,-173,o),
(558,-172,cs),
(504,-171,o),
(469,-133,o),
(470,-85,cs),
(475,183,o),
(683,524,o),
(677,677,cs),
(675,721,o),
(692,751,o),
(727,753,cs),
(775,756,o),
(819,719,o),
(822,673,cs)
);
},
{
closed = 1;
nodes = (
(283,597,o),
(325,543,o),
(860,543,cs),
(897,543,o),
(931,516,o),
(932,481,cs),
(933,446,o),
(900,414,o),
(859,414,cs),
(615,414,o),
(414,418,o),
(245,435,cs),
(146,444,o),
(123,496,o),
(123,536,cs),
(123,573,o),
(145,597,o),
(194,597,cs)
);
},
{
closed = 1;
nodes = (
(319,238,o),
(600,273,o),
(837,273,cs),
(881,273,o),
(901,260,o),
(902,229,cs),
(904,181,o),
(860,136,o),
(771,133,cs),
(580,128,o),
(303,74,o),
(134,74,cs),
(37,74,o),
(2,123,o),
(5,175,cs),
(7,211,o),
(42,238,o),
(82,238,cs)
);
}
);
vertWidth = 0;
width = 1029;
}
);
unicode = 35;
userData = {
KernOnSpecialSpacing = {
L = NoKerning;
R = NoKerning;
};
};
}
{
color = 4;
glyphname = dollar;
kernLeft = KO_semicolon;
kernRight = KO_dollar;
layers = (
{
background = {
shapes = (
{
closed = 1;
nodes = (
(412,-9,o),
(576,49,o),
(576,167,cs),
(576,341,o),
(216,338,o),
(216,421,cs),
(216,512,o),
(330,599,o),
(539,640,cs),
(573,646,o),
(584,658,o),
(584,677,cs),
(584,698,o),
(570,710,o),
(541,710,cs),
(418,710,o),
(147,589,o),
(147,415,cs),
(147,270,o),
(504,293,o),
(505,161,c),
(476,89,o),
(370,59,o),
(234,59,cs),
(188,59,o),
(180,69,o),
(152,69,cs),
(132,69,o),
(123,60,o),
(123,44,cs),
(123,13,o),
(162,-9,o),
(242,-9,cs)
);
},
{
closed = 1;
nodes = (
(401,395,o),
(407,405,o),
(410,421,cs),
(427,520,o),
(433,668,o),
(407,790,cs),
(404,806,o),
(392,817,o),
(373,817,cs),
(338,817,o),
(335,798,o),
(340,777,cs),
(365,663,o),
(356,539,o),
(344,450,cs),
(340,413,o),
(365,395,o),
(386,395,cs)
);
},
{
closed = 1;
nodes = (
(317,217,o),
(311,207,o),
(308,191,cs),
(292,103,o),
(288,-29,o),
(311,-138,cs),
(314,-154,o),
(325,-165,o),
(345,-165,cs),
(379,-165,o),
(383,-146,o),
(378,-125,cs),
(356,-24,o),
(363,84,o),
(374,162,cs),
(378,199,o),
(353,217,o),
(332,217,cs)
);
}
);
};
layerId = "DC44E50C-9AA1-421C-802C-D4D023281425";
shapes = (
{
closed = 1;
nodes = (
(454,-9,o),
(619,62,o),
(619,167,cs),
(619,350,o),
(170,353,o),
(170,444,cs),
(170,518,o),
(324,611,o),
(569,641,cs),
(606,645,o),
(617,658,o),
(617,677,cs),
(617,698,o),
(603,710,o),
(575,710,cs),
(432,710,o),
(99,609,o),
(99,438,cs),
(99,268,o),
(525,292,o),
(553,161,c),
(513,93,o),
(402,59,o),
(232,59,cs),
(146,59,o),
(139,77,o),
(108,77,cs),
(86,77,o),
(75,66,o),
(75,50,cs),
(75,15,o),
(131,-9,o),
(241,-9,cs)
);
},
{
closed = 1;
nodes = (
(372,-153,o),
(376,-134,o),
(371,-113,cs),
(338.322,37.023,o),
(358,176,o),
(377,288,cs),
(383,325,o),
(361,343,o),
(340,343,cs),
(325,343,o),
(319,333,o),
(316,317,cs),
(292,185,o),
(268.237,43.488,o),
(304,-126,cs),
(307,-142,o),
(318,-153,o),
(338,-153,cs)
);
},
{
closed = 1;
nodes = (
(377,281,o),
(378,291,o),
(381,307,cs),
(407,457,o),
(441.803,593.848,o),
(400,790,cs),
(397,806,o),
(385,817,o),
(366,817,cs),
(331,817,o),
(328,798,o),
(333,777,cs),
(370.249,607.144,o),
(342,461,o),
(320,336,cs),
(314,299,o),
(341,281,o),
(362,281,cs)
);
}
);
vertWidth = 0;
width = 700;
},
{
layerId = "FA16BA0A-39E2-4955-BC33-721AB190E0D3";
shapes = (
{
closed = 1;
nodes = (
(533,-9,o),
(648,47,o),
(648,179,cs),
(648,409,o),
(228,389.876,o),
(228,451,cs),
(228,504,o),
(339.915,529.034,o),
(568,540,cs),
(616,542,o),
(645,576,o),
(645,615,cs),
(645,664,o),
(617,710,o),
(532,710,cs),
(380,710,o),
(47,639,o),
(47,455,cs),
(47,243,o),
(457,279,o),
(480,172,c),
(411.775,158.355,o),
(372,158,o),
(276,158,cs),
(187,158,o),
(166,185,o),
(124,185,cs),
(74,185,o),
(62,164,o),
(62,129,cs),
(62,59,o),
(146,-9,o),
(301,-9,cs)
);
},
{
closed = 1;
nodes = (
(408,-138,o),
(425,-113,o),
(423,-51,cs),
(417.723,42.229,o),
(404,159,o),
(403,245,cs),
(401,305,o),
(380,340,o),
(343,340,cs),
(310,340,o),
(284,320,o),
(277,278,cs),
(251.453,127.911,o),
(245.667,63.994,o),
(260,-65,cs),
(264,-97,o),
(301,-138,o),
(371,-138,cs)
);
},
{
closed = 1;
nodes = (
(394,300,o),
(412,322,o),
(421,356,cs),
(449,473,o),
(465.792,635.8,o),
(442,750,cs),
(433,785,o),
(397,811,o),
(357,811,cs),
(307,811,o),
(266,765,o),
(274,717,cs),
(288.509,629.944,o),
(301,511,o),
(300,403,cs),
(299,336,o),
(307,299,o),
(362,300,cs)
);
}
);
vertWidth = 0;
width = 700;
},
{
background = {
shapes = (
{
closed = 1;
nodes = (
(412,-9,o),
(576,49,o),
(576,167,cs),
(576,341,o),
(216,338,o),
(216,421,cs),
(216,512,o),
(330,599,o),
(539,640,cs),
(573,646,o),
(584,658,o),
(584,677,cs),
(584,698,o),
(570,710,o),
(541,710,cs),
(418,710,o),
(147,589,o),
(147,415,cs),
(147,270,o),
(504,293,o),
(505,161,c),
(476,89,o),
(370,59,o),
(234,59,cs),
(188,59,o),
(180,69,o),
(152,69,cs),
(132,69,o),
(123,60,o),
(123,44,cs),
(123,13,o),
(162,-9,o),
(242,-9,cs)
);
},
{
closed = 1;
nodes = (
(401,395,o),
(407,405,o),
(410,421,cs),
(427,520,o),
(433,668,o),
(407,790,cs),
(404,806,o),
(392,817,o),
(373,817,cs),
(338,817,o),
(335,798,o),
(340,777,cs),
(365,663,o),
(356,539,o),
(344,450,cs),
(340,413,o),
(365,395,o),
(386,395,cs)
);
},
{
closed = 1;
nodes = (
(317,217,o),
(311,207,o),
(308,191,cs),
(292,103,o),
(288,-29,o),
(311,-138,cs),
(314,-154,o),
(325,-165,o),
(345,-165,cs),
(379,-165,o),
(383,-146,o),
(378,-125,cs),
(356,-24,o),
(363,84,o),
(374,162,cs),
(378,199,o),
(353,217,o),
(332,217,cs)
);
}
);
};
layerId = "365BB766-143C-4A52-A3A9-25E29A0F4411";
shapes = (
{
closed = 1;
nodes = (
(454,-9,o),
(619,62,o),
(619,167,cs),
(619,350,o),
(170,353,o),
(170,444,cs),
(170,518,o),
(324,611,o),
(569,641,cs),
(606,645,o),
(617,658,o),
(617,677,cs),
(617,698,o),
(603,710,o),
(575,710,cs),
(432,710,o),
(99,609,o),
(99,438,cs),
(99,268,o),
(525,292,o),
(553,161,c),
(513,93,o),
(402,59,o),
(232,59,cs),
(146,59,o),
(139,77,o),
(108,77,cs),
(86,77,o),
(75,66,o),
(75,50,cs),
(75,15,o),
(131,-9,o),
(241,-9,cs)
);
},
{
closed = 1;
nodes = (
(372,-153,o),
(376,-134,o),
(371,-113,cs),
(338.322,37.023,o),
(358,176,o),
(377,288,cs),
(383,325,o),
(361,343,o),
(340,343,cs),
(325,343,o),
(319,333,o),
(316,317,cs),
(292,185,o),
(268.237,43.488,o),
(304,-126,cs),
(307,-142,o),
(318,-153,o),
(338,-153,cs)
);
},
{
closed = 1;
nodes = (
(377,281,o),
(378,291,o),
(381,307,cs),
(407,457,o),
(441.803,593.848,o),
(400,790,cs),
(397,806,o),
(385,817,o),
(366,817,cs),
(331,817,o),
(328,798,o),
(333,777,cs),
(370.249,607.144,o),
(342,461,o),
(320,336,cs),
(314,299,o),
(341,281,o),
(362,281,cs)
);
}
);
vertWidth = 0;
width = 700;
},
{
layerId = "5DCC2EB0-DF11-4824-93BF-E616AA6EE2C6";
shapes = (
{
closed = 1;
nodes = (
(533,-9,o),
(648,47,o),
(648,179,cs),
(648,409,o),
(228,389.876,o),
(228,451,cs),
(228,504,o),
(339.915,529.034,o),
(568,540,cs),
(616,542,o),
(645,576,o),
(645,615,cs),
(645,664,o),
(617,710,o),
(532,710,cs),
(380,710,o),
(47,639,o),
(47,455,cs),
(47,243,o),
(457,279,o),
(480,172,c),
(411.775,158.355,o),
(372,158,o),
(276,158,cs),
(187,158,o),
(166,185,o),
(124,185,cs),
(74,185,o),
(62,164,o),
(62,129,cs),
(62,59,o),
(146,-9,o),
(301,-9,cs)
);
},
{
closed = 1;
nodes = (
(408,-138,o),
(425,-113,o),
(423,-51,cs),
(417.723,42.229,o),
(404,159,o),
(403,245,cs),
(401,305,o),
(380,340,o),
(343,340,cs),
(310,340,o),
(284,320,o),
(277,278,cs),
(251.453,127.911,o),
(245.667,63.994,o),
(260,-65,cs),
(264,-97,o),
(301,-138,o),
(371,-138,cs)
);
},
{
closed = 1;
nodes = (
(394,300,o),
(412,322,o),
(421,356,cs),
(449,473,o),
(465.792,635.8,o),
(442,750,cs),
(433,785,o),
(397,811,o),
(357,811,cs),
(307,811,o),
(266,765,o),
(274,717,cs),
(288.509,629.944,o),
(301,511,o),
(300,403,cs),
(299,336,o),
(307,299,o),
(362,300,cs)
);
}
);
vertWidth = 0;
width = 700;
},
{
layerId = master01;
shapes = (
{
closed = 1;
nodes = (
(403.633,-9,o),
(583,52,o),
(604,157,cs),
(641,340,o),
(192.633,353,o),
(210.633,444,cs),
(225.633,518,o),
(397.633,611,o),
(648.633,641,cs),
(686.633,645,o),
(700.633,658,o),
(703.633,677,cs),
(708.633,698,o),
(696.633,710,o),
(668.633,710,cs),
(525.633,710,o),
(173,619,o),
(139,448,cs),
(105,278,o),
(534.633,292,o),
(536.633,161,c),
(483.633,93,o),
(365.633,59,o),
(195.633,59,cs),
(109.633,59,o),
(105.633,77,o),
(74.633,77,cs),
(52.633,77,o),
(39.633,66,o),
(36.633,50,cs),
(29.633,15,o),
(80.633,-9,o),
(190.633,-9,cs)
);
},
{
closed = 1;
nodes = (
(292.633,-153,o),
(300.633,-134,o),
(299.633,-113,cs),
(297.633,37,o),
(344.633,176,o),
(386.633,288,cs),
(399.633,325,o),
(381.633,343,o),
(360.633,343,cs),
(345.633,343,o),
(337.633,333,o),
(330.633,317,cs),
(280.633,185,o),
(228.633,43,o),
(230.633,-126,cs),
(230.633,-142,o),
(238.633,-153,o),
(258.633,-153,cs)
);
},
{
closed = 1;
nodes = (
(384.633,281,o),
(387.633,291,o),
(393.633,307,cs),
(449.633,457,o),
(512.633,594,o),
(509.633,790,cs),
(509.633,806,o),
(499.633,817,o),
(480.633,817,cs),
(445.633,817,o),
(439.633,798,o),
(439.633,777,cs),
(443.633,607,o),
(385.633,461,o),
(338.633,336,cs),
(325.633,299,o),
(348.633,281,o),
(369.633,281,cs)
);
}
);
vertWidth = 0;
width = 700;
},
{
layerId = "FAD04859-55EE-48D6-A0AA-73DE2A79512F";
shapes = (
{
closed = 1;
nodes = (
(477.49,-9,o),
(604.76,40.492,o),
(629,159,cs),
(678.237,405.186,o),
(253.904,385.701,o),
(266.749,451,cs),
(277.749,504,o),
(394.749,529,o),
(624.749,540,cs),
(672.749,542,o),
(708.749,576,o),
(716.749,615,cs),
(726.749,664,o),
(707.749,710,o),
(622.749,710,cs),
(471.955,710,o),
(125.205,645.1,o),
(91,475,cs),
(46.159,248.661,o),
(461.679,286.561,o),
(462.749,172,c),
(391.749,158,o),
(352.749,158,o),
(256.749,158,cs),
(163.058,158,o),
(146.214,194,o),
(102,194,cs),
(58.164,194,o),
(45,173,o),
(40,141,cs),
(29,70,o),
(93.668,-9,o),
(247.749,-9,cs)
);
},
{
closed = 1;
nodes = (
(328.749,-138,o),
(350.749,-113,o),
(361.749,-51,cs),
(374.749,42,o),
(384.749,159,o),
(400.749,245,cs),
(410.749,305,o),
(396.749,340,o),
(359.749,340,cs),
(326.749,340,o),
(296.749,320,o),
(281.749,278,cs),
(225.749,128,o),
(206.749,64,o),
(195.749,-65,cs),
(193.749,-97,o),
(221.749,-138,o),
(291.749,-138,cs)
);
},
{
closed = 1;
nodes = (
(402.749,300,o),
(424.749,322,o),
(440.749,356,cs),
(492.749,473,o),
(541.749,636,o),
(540.749,750,cs),
(538.749,785,o),
(507.749,811,o),
(467.749,811,cs),
(417.749,811,o),
(367.749,765,o),
(365.749,717,cs),
(362.749,630,o),
(351.749,511,o),
(329.749,403,cs),
(314.749,336,o),
(315.749,299,o),
(370.749,300,cs)
);
}
);
vertWidth = 0;
width = 700;
},
{
layerId = "0998268F-450B-429A-9175-FFA5E463F4E3";
shapes = (
{
closed = 1;
nodes = (
(403.633,-9,o),
(583,52,o),
(604,157,cs),
(641,340,o),
(192.633,353,o),
(210.633,444,cs),
(225.633,518,o),
(397.633,611,o),
(648.633,641,cs),
(686.633,645,o),
(700.633,658,o),
(703.633,677,cs),
(708.633,698,o),
(696.633,710,o),
(668.633,710,cs),
(525.633,710,o),
(173,619,o),
(139,448,cs),
(105,278,o),
(534.633,292,o),
(536.633,161,c),
(483.633,93,o),
(365.633,59,o),
(195.633,59,cs),
(109.633,59,o),
(105.633,77,o),
(74.633,77,cs),
(52.633,77,o),
(39.633,66,o),
(36.633,50,cs),
(29.633,15,o),
(80.633,-9,o),
(190.633,-9,cs)
);
},
{
closed = 1;
nodes = (
(292.633,-153,o),
(300.633,-134,o),
(299.633,-113,cs),
(297.633,37,o),
(344.633,176,o),
(386.633,288,cs),
(399.633,325,o),
(381.633,343,o),
(360.633,343,cs),
(345.633,343,o),
(337.633,333,o),
(330.633,317,cs),
(280.633,185,o),
(228.633,43,o),
(230.633,-126,cs),
(230.633,-142,o),
(238.633,-153,o),
(258.633,-153,cs)
);
},
{
closed = 1;
nodes = (
(384.633,281,o),
(387.633,291,o),
(393.633,307,cs),
(449.633,457,o),
(512.633,594,o),
(509.633,790,cs),
(509.633,806,o),
(499.633,817,o),
(480.633,817,cs),
(445.633,817,o),
(439.633,798,o),
(439.633,777,cs),
(443.633,607,o),
(385.633,461,o),
(338.633,336,cs),
(325.633,299,o),
(348.633,281,o),
(369.633,281,cs)
);
}
);
vertWidth = 0;
width = 700;
},
{
layerId = "60E1EE18-36F5-475C-BAEC-6556E4A9959C";
shapes = (
{
closed = 1;
nodes = (
(477.49,-9,o),
(604.76,40.492,o),
(629,159,cs),
(678.237,405.186,o),
(253.904,385.701,o),
(266.749,451,cs),
(277.749,504,o),
(394.749,529,o),
(624.749,540,cs),
(672.749,542,o),
(708.749,576,o),
(716.749,615,cs),
(726.749,664,o),
(707.749,710,o),
(622.749,710,cs),
(471.955,710,o),
(125.205,645.1,o),
(91,475,cs),
(46.159,248.661,o),
(461.679,286.561,o),
(462.749,172,c),
(391.749,158,o),
(352.749,158,o),
(256.749,158,cs),
(163.058,158,o),
(146.214,194,o),
(102,194,cs),
(58.164,194,o),
(45,173,o),
(40,141,cs),
(29,70,o),
(93.668,-9,o),
(247.749,-9,cs)
);
},
{
closed = 1;
nodes = (
(328.749,-138,o),
(350.749,-113,o),
(361.749,-51,cs),
(374.749,42,o),
(384.749,159,o),
(400.749,245,cs),
(410.749,305,o),
(396.749,340,o),
(359.749,340,cs),
(326.749,340,o),
(296.749,320,o),
(281.749,278,cs),
(225.749,128,o),
(206.749,64,o),
(195.749,-65,cs),
(193.749,-97,o),
(221.749,-138,o),
(291.749,-138,cs)
);
},
{
closed = 1;
nodes = (
(402.749,300,o),
(424.749,322,o),
(440.749,356,cs),
(492.749,473,o),
(541.749,636,o),
(540.749,750,cs),
(538.749,785,o),
(507.749,811,o),
(467.749,811,cs),
(417.749,811,o),
(367.749,765,o),
(365.749,717,cs),
(362.749,630,o),
(351.749,511,o),
(329.749,403,cs),
(314.749,336,o),
(315.749,299,o),
(370.749,300,cs)
);
}
);
vertWidth = 0;
width = 700;
},
{
associatedMasterId = "DC44E50C-9AA1-421C-802C-D4D023281425";
layerId = "024B899D-8068-420F-B13D-E363D94F092A";
name = anotherone;
shapes = (
{
closed = 1;
nodes = (
(454,-9,o),
(619,62,o),
(619,167,cs),
(619,350,o),
(170,353,o),
(170,444,cs),
(170,518,o),
(324,611,o),
(569,641,cs),
(606,645,o),
(617,658,o),
(617,677,cs),
(617,698,o),
(603,710,o),
(575,710,cs),
(432,710,o),
(99,609,o),
(99,438,cs),
(99,268,o),
(525,292,o),
(553,161,c),
(513,93,o),
(402,59,o),
(232,59,cs),
(146,59,o),
(139,77,o),
(108,77,cs),
(86,77,o),
(75,66,o),
(75,50,cs),
(75,15,o),
(131,-9,o),
(241,-9,cs)
);
},
{
closed = 1;
nodes = (
(394,395,o),
(400,405,o),
(403,421,cs),
(420,520,o),
(426,668,o),
(400,790,cs),
(397,806,o),
(385,817,o),
(366,817,cs),
(331,817,o),
(328,798,o),
(333,777,cs),
(358,663,o),
(349,539,o),
(337,450,cs),
(333,413,o),
(358,395,o),
(379,395,cs)
);
},
{
closed = 1;
nodes = (
(310,229,o),
(304,219,o),
(301,203,cs),
(285,115,o),
(281,-17,o),
(304,-126,cs),
(307,-142,o),
(318,-153,o),
(338,-153,cs),
(372,-153,o),
(376,-134,o),
(371,-113,cs),
(349,-12,o),
(356,96,o),
(367,174,cs),
(371,211,o),
(346,229,o),
(325,229,cs)
);
}
);
vertWidth = 0;
width = 700;
},
{
associatedMasterId = "FA16BA0A-39E2-4955-BC33-721AB190E0D3";
layerId = "87234B38-16F4-4CA1-8928-84317B013084";
name = bg;
shapes = (
{
closed = 1;
nodes = (
(459,-9,o),
(556,46,o),
(556,168,cs),
(556,362,o),
(226,385,o),
(226,451,cs),
(226,504,o),
(312,530,o),
(488,540,cs),
(529,542,o),
(554,576,o),
(554,615,cs),
(554,664,o),
(530,710,o),
(458,710,cs),
(329,710,o),
(47,639,o),
(47,455,cs),
(47,257,o),
(383,293,o),
(405,172,c),
(350,159,o),
(318,158,o),
(241,158,cs),
(166,158,o),
(148,185,o),
(112,185,cs),
(70,185,o),
(60,164,o),
(60,129,cs),
(60,59,o),
(131,-9,o),
(262,-9,cs)
);
},
{
closed = 1;
nodes = (
(353,448,o),
(371,470,o),
(383,512,cs),
(407,604,o),
(407,688,o),
(392,760,cs),
(383,795,o),
(347,821,o),
(307,821,cs),
(257,821,o),
(216,775,o),
(224,727,cs),
(232,679,o),
(245,633,o),
(251,563,cs),
(258,484,o),
(266,447,o),
(321,448,cs)
);
},
{
closed = 1;
nodes = (
(245,212,o),
(221,192,o),
(218,150,cs),
(212,56,o),
(201,16,o),
(210,-65,cs),
(214,-97,o),
(251,-138,o),
(321,-138,cs),
(358,-138,o),
(375,-113,o),
(373,-51,cs),
(370,2,o),
(355,68,o),
(346,117,cs),
(334,177,o),
(315,212,o),
(278,212,cs)
);
}
);
vertWidth = 0;
width = 700;
},
{
associatedMasterId = "FA16BA0A-39E2-4955-BC33-721AB190E0D3";
layerId = "934284C9-D641-487B-AD85-47FD6759B04E";
name = "another one";
shapes = (
{
closed = 1;
nodes = (
(533,-9,o),
(648,47,o),
(648,179,cs),
(648,409,o),
(228,390,o),
(228,451,cs),
(228,504,o),
(340,529,o),
(568,540,cs),
(616,542,o),
(645,576,o),
(645,615,cs),
(645,664,o),
(617,710,o),
(532,710,cs),
(380,710,o),
(47,639,o),
(47,455,cs),
(47,243,o),
(457,279,o),
(480,172,c),
(412,158,o),
(372,158,o),
(276,158,cs),
(187,158,o),
(166,185,o),
(124,185,cs),
(74,185,o),
(62,164,o),
(62,129,cs),
(62,59,o),
(146,-9,o),
(301,-9,cs)
);
},
{
closed = 1;
nodes = (
(403,438,o),
(421,460,o),
(433,502,cs),
(457,594,o),
(457,678,o),
(442,750,cs),
(433,785,o),
(397,811,o),
(357,811,cs),
(307,811,o),
(266,765,o),
(274,717,cs),
(282,669,o),
(295,623,o),
(301,553,cs),
(308,474,o),
(316,437,o),
(371,438,cs)
);
},
{
closed = 1;
nodes = (
(295,212,o),
(271,192,o),
(268,150,cs),
(262,56,o),
(251,16,o),
(260,-65,cs),
(264,-97,o),
(301,-138,o),
(371,-138,cs),
(408,-138,o),
(425,-113,o),
(423,-51,cs),
(420,2,o),
(405,68,o),
(396,117,cs),
(384,177,o),
(365,212,o),
(328,212,cs)
);
}
);
vertWidth = 0;
width = 700;
},
{
associatedMasterId = "365BB766-143C-4A52-A3A9-25E29A0F4411";
layerId = "5FA27709-68CA-47DE-B57D-DEE8A333520E";
name = anotherone;
shapes = (
{
closed = 1;
nodes = (
(454,-9,o),
(619,62,o),
(619,167,cs),
(619,350,o),
(170,353,o),
(170,444,cs),
(170,518,o),
(324,611,o),
(569,641,cs),
(606,645,o),
(617,658,o),
(617,677,cs),
(617,698,o),
(603,710,o),
(575,710,cs),
(432,710,o),
(99,609,o),
(99,438,cs),
(99,268,o),
(525,292,o),
(553,161,c),
(513,93,o),
(402,59,o),
(232,59,cs),
(146,59,o),
(139,77,o),
(108,77,cs),
(86,77,o),
(75,66,o),
(75,50,cs),
(75,15,o),
(131,-9,o),
(241,-9,cs)
);
},
{
closed = 1;
nodes = (
(394,395,o),
(400,405,o),
(403,421,cs),
(420,520,o),
(426,668,o),
(400,790,cs),
(397,806,o),
(385,817,o),
(366,817,cs),
(331,817,o),
(328,798,o),
(333,777,cs),
(358,663,o),
(349,539,o),
(337,450,cs),
(333,413,o),
(358,395,o),
(379,395,cs)
);
},
{
closed = 1;
nodes = (
(310,229,o),
(304,219,o),
(301,203,cs),
(285,115,o),
(281,-17,o),
(304,-126,cs),
(307,-142,o),
(318,-153,o),
(338,-153,cs),
(372,-153,o),
(376,-134,o),
(371,-113,cs),
(349,-12,o),
(356,96,o),
(367,174,cs),
(371,211,o),
(346,229,o),
(325,229,cs)
);
}
);
vertWidth = 0;
width = 700;
},
{
associatedMasterId = "5DCC2EB0-DF11-4824-93BF-E616AA6EE2C6";
layerId = "E61385E5-7ADA-4F99-8C00-F0CD171F640D";
name = bg;
shapes = (
{
closed = 1;
nodes = (
(459,-9,o),
(556,46,o),
(556,168,cs),
(556,362,o),
(226,385,o),
(226,451,cs),
(226,504,o),
(312,530,o),
(488,540,cs),
(529,542,o),
(554,576,o),
(554,615,cs),
(554,664,o),
(530,710,o),
(458,710,cs),
(329,710,o),
(47,639,o),
(47,455,cs),
(47,257,o),
(383,293,o),
(405,172,c),
(350,159,o),
(318,158,o),
(241,158,cs),
(166,158,o),
(148,185,o),
(112,185,cs),
(70,185,o),
(60,164,o),
(60,129,cs),
(60,59,o),
(131,-9,o),
(262,-9,cs)
);
},
{
closed = 1;
nodes = (
(353,448,o),
(371,470,o),
(383,512,cs),
(407,604,o),
(407,688,o),
(392,760,cs),
(383,795,o),
(347,821,o),
(307,821,cs),
(257,821,o),
(216,775,o),
(224,727,cs),
(232,679,o),
(245,633,o),
(251,563,cs),
(258,484,o),
(266,447,o),
(321,448,cs)
);
},
{
closed = 1;
nodes = (
(245,212,o),
(221,192,o),
(218,150,cs),
(212,56,o),
(201,16,o),
(210,-65,cs),
(214,-97,o),
(251,-138,o),
(321,-138,cs),
(358,-138,o),
(375,-113,o),
(373,-51,cs),
(370,2,o),
(355,68,o),
(346,117,cs),
(334,177,o),
(315,212,o),
(278,212,cs)
);
}
);
vertWidth = 0;
width = 700;
},
{
associatedMasterId = "5DCC2EB0-DF11-4824-93BF-E616AA6EE2C6";
layerId = "643601BD-4FE2-4CC7-8F21-8115BEF2FECE";
name = "another one";
shapes = (
{
closed = 1;
nodes = (
(533,-9,o),
(648,47,o),
(648,179,cs),
(648,409,o),
(228,390,o),
(228,451,cs),
(228,504,o),
(340,529,o),
(568,540,cs),
(616,542,o),
(645,576,o),
(645,615,cs),
(645,664,o),
(617,710,o),
(532,710,cs),
(380,710,o),
(47,639,o),
(47,455,cs),
(47,243,o),
(457,279,o),
(480,172,c),
(412,158,o),
(372,158,o),
(276,158,cs),
(187,158,o),
(166,185,o),
(124,185,cs),
(74,185,o),
(62,164,o),
(62,129,cs),
(62,59,o),
(146,-9,o),
(301,-9,cs)
);
},
{
closed = 1;
nodes = (
(403,438,o),
(421,460,o),
(433,502,cs),
(457,594,o),
(457,678,o),
(442,750,cs),
(433,785,o),
(397,811,o),
(357,811,cs),
(307,811,o),
(266,765,o),
(274,717,cs),
(282,669,o),
(295,623,o),
(301,553,cs),
(308,474,o),
(316,437,o),
(371,438,cs)
);
},
{
closed = 1;
nodes = (
(295,212,o),
(271,192,o),
(268,150,cs),
(262,56,o),
(251,16,o),
(260,-65,cs),
(264,-97,o),
(301,-138,o),
(371,-138,cs),
(408,-138,o),
(425,-113,o),
(423,-51,cs),
(420,2,o),
(405,68,o),
(396,117,cs),
(384,177,o),
(365,212,o),
(328,212,cs)
);
}
);
vertWidth = 0;
width = 700;
}
);
unicode = 36;
userData = {
KernOnSpecialSpacing = {
L = symbols;
R = symbols;
};
};
}
{
color = 4;
glyphname = ampersand;
layers = (
{
background = {
shapes = (
{
closed = 0;
nodes = (
(539,650,l),
(475,690,o),
(412,714,o),
(321,714,cs),
(148,714,o),
(75,644,o),
(75,563,cs),
(75,463,o),
(139,388,o),
(420,241,cs),
(847,19,o),
(912,-43,o),
(914,-108,cs)
);
},
{
closed = 0;
nodes = (
(305,289,l),
(267,254,o),
(243,203,o),
(243,142,cs),
(243,66,o),
(296,-5,o),
(351,-5,cs),
(439,-5,o),
(561,110,o),
(712,400,cs)
);
},
{
closed = 0;
nodes = (
(153,315,l),
(109,279,o),
(81,226,o),
(81,164,cs),
(81,85,o),
(143,12,o),
(207,12,cs),
(316,12,o),
(430,116,o),
(582,387,cs)
);
},
{
closed = 0;
nodes = (
(481,618,l),
(425,655,o),
(370,677,o),
(290,677,cs),
(139,677,o),
(75,612,o),
(75,537,cs),
(75,445,o),
(115,376,o),
(292,240,cs),
(503,78,o),
(591,8,o),
(591,-49,cs),
(591,-64,o),
(584,-79,o),
(572,-94,c)
);
}
);
};
layerId = "DC44E50C-9AA1-421C-802C-D4D023281425";
shapes = (
{
closed = 1;
nodes = (
(606.283,-117,o),
(626,-70.215,o),
(626,-40,cs),
(626,18,o),
(567,74,o),
(313,267,cs),
(156.02,386.985,o),
(110,439.368,o),
(110,519,cs),
(110,594.806,o),
(176.63,646,o),
(290,646,cs),
(415,646,o),
(451,584,o),
(486,584,cs),
(506,584,o),
(516,597,o),
(516,616,cs),
(516,629,o),
(511,640,o),
(486,656,cs),
(436,687,o),
(377.553,711,o),
(290,711,cs),
(113,711,o),
(41,616,o),
(41,517,cs),
(41,424,o),
(83,358,o),
(271,213,cs),
(510,28,o),
(556,-11,o),
(556,-48,cs),
(556,-64,o),
(544,-71,o),
(544,-91,cs),
(544,-104.929,o),
(552.379,-117,o),
(571,-117,cs)
);
},
{
closed = 1;
nodes = (
(330,-22,o),
(445,74,o),
(602,354,cs),
(612,372,o),
(614,378,o),
(614,388,cs),
(614,408,o),
(602,428,o),
(582,428,cs),
(569,428,o),
(561.141,420.653,o),
(548,397,cs),
(411.104,152.4,o),
(321,42,o),
(210,42,cs),
(158,42,o),
(115,104,o),
(115,166,cs),
(115,223,o),
(130,260,o),
(174,300,cs),
(183,308,o),
(188,326,o),
(179,337,cs),
(168,351,o),
(146,353,o),
(131,341,cs),
(80,299,o),
(47,237,o),
(47,164,cs),
(47,61,o),
(124,-22,o),
(207,-22,cs)
);
}
);
userData = {
com.typemytype.robofont.Image.Brightness = 0;
com.typemytype.robofont.Image.Contrast = 1;
com.typemytype.robofont.Image.Saturation = 1;
com.typemytype.robofont.Image.Sharpness = 0.4;
};
vertWidth = 0;
width = 600;
},
{
layerId = "FA16BA0A-39E2-4955-BC33-721AB190E0D3";
shapes = (
{
closed = 1;
nodes = (
(643,-166,o),
(679,-46,o),
(679,33,cs),
(679,155,o),
(652,239,o),
(390,365,cs),
(223,445,o),
(208,462.336,o),
(208,490,cs),
(208,520.189,o),
(243,540,o),
(308,540,cs),
(398,540,o),
(429,508,o),
(466,508,cs),
(511,508,o),
(552,546,o),
(552,592,cs),
(552,625,o),
(534,656,o),
(502,671,cs),
(442,698,o),
(383,710,o),
(304,710,cs),
(113,710,o),
(38,600,o),
(38,494,cs),
(38,420,o),
(60,346,o),
(248,253,cs),
(469,144,o),
(509,92,o),
(509,28,cs),
(509,-34,o),
(469,-39,o),
(469,-93,cs),
(469,-140,o),
(498,-166,o),
(544,-166,cs)
);
},
{
closed = 1;
nodes = (
(400,-10,o),
(490,33,o),
(651,283,cs),
(673,317,o),
(680,348,o),
(680,362,cs),
(680,419,o),
(637,455,o),
(592,455,cs),
(565,455,o),
(553,438,o),
(539,411,cs),
(437,232,o),
(366,151,o),
(277,151,cs),
(247,151,o),
(218,168,o),
(218,202,cs),
(218,231,o),
(226,248,o),
(254,284,cs),
(271,306,o),
(266,350,o),
(247,364,cs),
(214,389,o),
(179,385,o),
(144,362,cs),
(89,326,o),
(48,269,o),
(48,182,cs),
(48,62,o),
(146,-10,o),
(263,-10,cs)
);
}
);
vertWidth = 0;
width = 713;
},
{
background = {
shapes = (
{
closed = 0;
nodes = (
(539,650,l),
(475,690,o),
(412,714,o),
(321,714,cs),
(148,714,o),
(75,644,o),
(75,563,cs),
(75,463,o),
(139,388,o),
(420,241,cs),
(847,19,o),
(912,-43,o),
(914,-108,cs)
);
},
{
closed = 0;
nodes = (
(305,289,l),
(267,254,o),
(243,203,o),
(243,142,cs),
(243,66,o),
(296,-5,o),
(351,-5,cs),
(439,-5,o),
(561,110,o),
(712,400,cs)
);
},
{
closed = 0;
nodes = (
(153,315,l),
(109,279,o),
(81,226,o),
(81,164,cs),
(81,85,o),
(143,12,o),
(207,12,cs),
(316,12,o),
(430,116,o),
(582,387,cs)
);
},
{
closed = 0;
nodes = (
(481,618,l),
(425,655,o),
(370,677,o),
(290,677,cs),
(139,677,o),
(75,612,o),
(75,537,cs),
(75,445,o),
(115,376,o),
(292,240,cs),
(503,78,o),
(591,8,o),
(591,-49,cs),
(591,-64,o),
(584,-79,o),
(572,-94,c)
);
}
);
};
layerId = "365BB766-143C-4A52-A3A9-25E29A0F4411";
shapes = (
{
closed = 1;
nodes = (
(606.283,-117,o),
(626,-70.215,o),
(626,-40,cs),
(626,18,o),
(567,74,o),
(313,267,cs),
(156.02,386.985,o),
(110,439.368,o),
(110,519,cs),
(110,594.806,o),
(176.63,646,o),
(290,646,cs),
(415,646,o),
(451,584,o),
(486,584,cs),
(506,584,o),
(516,597,o),
(516,616,cs),
(516,629,o),
(511,640,o),
(486,656,cs),
(436,687,o),
(377.553,711,o),
(290,711,cs),
(113,711,o),
(41,616,o),
(41,517,cs),
(41,424,o),
(83,358,o),
(271,213,cs),
(510,28,o),
(556,-11,o),
(556,-48,cs),
(556,-64,o),
(544,-71,o),
(544,-91,cs),
(544,-104.929,o),
(552.379,-117,o),
(571,-117,cs)
);
},
{
closed = 1;
nodes = (
(330,-22,o),
(445,74,o),
(602,354,cs),
(612,372,o),
(614,378,o),
(614,388,cs),
(614,408,o),
(602,428,o),
(582,428,cs),
(569,428,o),
(561.141,420.653,o),
(548,397,cs),
(411.104,152.4,o),
(321,42,o),
(210,42,cs),
(158,42,o),
(115,104,o),
(115,166,cs),
(115,223,o),
(130,260,o),
(174,300,cs),
(183,308,o),
(188,326,o),
(179,337,cs),
(168,351,o),
(146,353,o),
(131,341,cs),
(80,299,o),
(47,237,o),
(47,164,cs),
(47,61,o),
(124,-22,o),
(207,-22,cs)
);
}
);
userData = {
com.typemytype.robofont.Image.Brightness = 0;
com.typemytype.robofont.Image.Contrast = 1;
com.typemytype.robofont.Image.Saturation = 1;
com.typemytype.robofont.Image.Sharpness = 0.4;
};
vertWidth = 0;
width = 600;
},
{
layerId = "5DCC2EB0-DF11-4824-93BF-E616AA6EE2C6";
shapes = (
{
closed = 1;
nodes = (
(643,-166,o),
(679,-46,o),
(679,33,cs),
(679,155,o),
(652,239,o),
(390,365,cs),
(223,445,o),
(208,462.336,o),
(208,490,cs),
(208,520.189,o),
(243,540,o),
(308,540,cs),
(398,540,o),
(429,508,o),
(466,508,cs),
(511,508,o),
(552,546,o),
(552,592,cs),
(552,625,o),
(534,656,o),
(502,671,cs),
(442,698,o),
(383,710,o),
(304,710,cs),
(113,710,o),
(38,600,o),
(38,494,cs),
(38,420,o),
(60,346,o),
(248,253,cs),
(469,144,o),
(509,92,o),
(509,28,cs),
(509,-34,o),
(469,-39,o),
(469,-93,cs),
(469,-140,o),
(498,-166,o),
(544,-166,cs)
);
},
{
closed = 1;
nodes = (
(400,-10,o),
(490,33,o),
(651,283,cs),
(673,317,o),
(680,348,o),
(680,362,cs),
(680,419,o),
(637,455,o),
(592,455,cs),
(565,455,o),
(553,438,o),
(539,411,cs),
(437,232,o),
(366,151,o),
(277,151,cs),
(247,151,o),
(218,168,o),
(218,202,cs),
(218,231,o),
(226,248,o),
(254,284,cs),
(271,306,o),
(266,350,o),
(247,364,cs),
(214,389,o),
(179,385,o),
(144,362,cs),
(89,326,o),
(48,269,o),
(48,182,cs),
(48,62,o),
(146,-10,o),
(263,-10,cs)
);
}
);
vertWidth = 0;
width = 713;
},
{
layerId = master01;
shapes = (
{
closed = 1;
nodes = (
(537,-117,o),
(563,-76,o),
(568,-49,cs),
(580,10,o),
(533,69,o),
(315,264,cs),
(183,383,o),
(150,438,o),
(166.169,519,cs),
(181.169,595,o),
(258.169,646,o),
(371.169,646,cs),
(496.169,646,o),
(520.169,584,o),
(555.169,584,cs),
(575.169,584,o),
(587.169,597,o),
(591.169,616,cs),
(594.169,629,o),
(591.169,640,o),
(569.169,656,cs),
(524,688,o),
(467,711,o),
(374,711,cs),
(203,711,o),
(118,626,o),
(98,527,cs),
(80,434,o),
(107.169,358,o),
(266.169,213,cs),
(468.169,28,o),
(506.169,-11,o),
(498.169,-48,cs),
(495.169,-64,o),
(482.169,-71,o),
(478.169,-91,cs),
(475.169,-105,o),
(482,-117,o),
(505,-117,cs)
);
},
{
closed = 1;
nodes = (
(290,-22,o),
(417,74,o),
(628,351,cs),
(641,369,o),
(645,375,o),
(647,385,cs),
(651,407,o),
(643,428,o),
(620.169,428,cs),
(607.169,428,o),
(597.169,421,o),
(579.169,397,cs),
(394.169,152,o),
(281.169,42,o),
(170.169,42,cs),
(118.169,42,o),
(88.169,104,o),
(100.169,166,cs),
(112.169,223,o),
(134.169,260,o),
(186.169,300,cs),
(197.169,308,o),
(205.169,326,o),
(198.169,337,cs),
(190.169,351,o),
(169.169,353,o),
(151.169,341,cs),
(92.169,299,o),
(48,247,o),
(34,174,cs),
(13,71,o),
(80,-22,o),
(169,-22,cs)
);
}
);
vertWidth = 0;
width = 600;
},
{
layerId = "FAD04859-55EE-48D6-A0AA-73DE2A79512F";
shapes = (
{
closed = 1;
nodes = (
(560,-166,o),
(615,-69,o),
(631,11,cs),
(655,132,o),
(646.173,239.825,o),
(411,367,cs),
(264.022,444.409,o),
(254.007,466.031,o),
(260,494,cs),
(266,522,o),
(304,540,o),
(368,540,cs),
(460,540,o),
(486,512,o),
(532,512,cs),
(582.358,512,o),
(617,542,o),
(624,583,cs),
(631,619,o),
(617,654,o),
(583,671,cs),
(532,697,o),
(477.759,710,o),
(383,710,cs),
(210.268,710,o),
(110.023,622.118,o),
(91,526,cs),
(75,443,o),
(87,356,o),
(257,263,cs),
(456,154,o),
(484.852,104.21,o),
(473,41,cs),
(458.353,-28.854,o),
(408,-29,o),
(396,-90,cs),
(387,-135,o),
(413,-166,o),
(459,-166,cs)
);
},
{
closed = 1;
nodes = (
(359.177,-10,o),
(448.673,37.352,o),
(656,283,cs),
(684,317,o),
(697,348,o),
(700.109,362,cs),
(711,419,o),
(676.109,455,o),
(631.109,455,cs),
(598.836,455,o),
(579.045,438.76,o),
(557,409,cs),
(421.632,233.414,o),
(340.677,151,o),
(255.109,151,cs),
(225.109,151,o),
(200.109,168,o),
(206.109,202,cs),
(212.109,231,o),
(224.109,248,o),
(259.109,284,cs),
(280.109,306,o),
(284.109,350,o),
(268.109,364,cs),
(240.109,389,o),
(204.109,385,o),
(164.109,362,cs),
(105.213,327.802,o),
(52.06,279.625,o),
(36,202,cs),
(9.482,69.412,o),
(101.006,-10,o),
(228,-10,cs)
);
}
);
vertWidth = 0;
width = 713;
},
{
layerId = "0998268F-450B-429A-9175-FFA5E463F4E3";
shapes = (
{
closed = 1;
nodes = (
(537,-117,o),
(563,-76,o),
(568,-49,cs),
(580,10,o),
(533,69,o),
(315,264,cs),
(183,383,o),
(150,438,o),
(166.169,519,cs),
(181.169,595,o),
(258.169,646,o),
(371.169,646,cs),
(496.169,646,o),
(520.169,584,o),
(555.169,584,cs),
(575.169,584,o),
(587.169,597,o),
(591.169,616,cs),
(594.169,629,o),
(591.169,640,o),
(569.169,656,cs),
(524,688,o),
(467,711,o),
(374,711,cs),
(203,711,o),
(118,626,o),
(98,527,cs),
(80,434,o),
(107.169,358,o),
(266.169,213,cs),
(468.169,28,o),
(506.169,-11,o),
(498.169,-48,cs),
(495.169,-64,o),
(482.169,-71,o),
(478.169,-91,cs),
(475.169,-105,o),
(482,-117,o),
(505,-117,cs)
);
},
{
closed = 1;
nodes = (
(290,-22,o),
(417,74,o),
(628,351,cs),
(641,369,o),
(645,375,o),
(647,385,cs),
(651,407,o),
(643,428,o),
(620.169,428,cs),
(607.169,428,o),
(597.169,421,o),
(579.169,397,cs),
(394.169,152,o),
(281.169,42,o),
(170.169,42,cs),
(118.169,42,o),
(88.169,104,o),
(100.169,166,cs),
(112.169,223,o),
(134.169,260,o),
(186.169,300,cs),
(197.169,308,o),
(205.169,326,o),
(198.169,337,cs),
(190.169,351,o),
(169.169,353,o),
(151.169,341,cs),
(92.169,299,o),
(48,247,o),
(34,174,cs),
(13,71,o),
(80,-22,o),
(169,-22,cs)
);
}
);
vertWidth = 0;
width = 600;
},
{
layerId = "60E1EE18-36F5-475C-BAEC-6556E4A9959C";
shapes = (
{
closed = 1;
nodes = (
(560,-166,o),
(615,-69,o),
(631,11,cs),
(655,132,o),
(646.173,239.825,o),
(411,367,cs),
(264.022,444.409,o),
(254.007,466.031,o),
(260,494,cs),
(266,522,o),
(304,540,o),
(368,540,cs),
(460,540,o),
(486,512,o),
(532,512,cs),
(582.358,512,o),
(617,542,o),
(624,583,cs),
(631,619,o),
(617,654,o),
(583,671,cs),
(532,697,o),
(477.759,710,o),
(383,710,cs),
(210.268,710,o),
(110.023,622.118,o),
(91,526,cs),
(75,443,o),
(87,356,o),
(257,263,cs),
(456,154,o),
(484.852,104.21,o),
(473,41,cs),
(458.353,-28.854,o),
(408,-29,o),
(396,-90,cs),
(387,-135,o),
(413,-166,o),
(459,-166,cs)
);
},
{
closed = 1;
nodes = (
(359.177,-10,o),
(448.673,37.352,o),
(656,283,cs),
(684,317,o),
(697,348,o),
(700.109,362,cs),
(711,419,o),
(676.109,455,o),
(631.109,455,cs),
(598.836,455,o),
(579.045,438.76,o),
(557,409,cs),
(421.632,233.414,o),
(340.677,151,o),
(255.109,151,cs),
(225.109,151,o),
(200.109,168,o),
(206.109,202,cs),
(212.109,231,o),
(224.109,248,o),
(259.109,284,cs),
(280.109,306,o),
(284.109,350,o),
(268.109,364,cs),
(240.109,389,o),
(204.109,385,o),
(164.109,362,cs),
(105.213,327.802,o),
(52.06,279.625,o),
(36,202,cs),
(9.482,69.412,o),
(101.006,-10,o),
(228,-10,cs)
);
}
);
vertWidth = 0;
width = 713;
},
{
associatedMasterId = "DC44E50C-9AA1-421C-802C-D4D023281425";
layerId = "024B899D-8068-420F-B13D-E363D94F092A";
name = anotherone;
shapes = (
{
closed = 0;
nodes = (
(539,650,l),
(475,690,o),
(412,714,o),
(321,714,cs),
(148,714,o),
(75,644,o),
(75,563,cs),
(75,463,o),
(139,388,o),
(420,241,cs),
(847,19,o),
(912,-43,o),
(914,-108,cs)
);
},
{
closed = 0;
nodes = (
(305,289,l),
(267,254,o),
(243,203,o),
(243,142,cs),
(243,66,o),
(296,-5,o),
(351,-5,cs),
(439,-5,o),
(561,110,o),
(712,400,cs)
);
}
);
vertWidth = 0;
width = 600;
},
{
associatedMasterId = "FA16BA0A-39E2-4955-BC33-721AB190E0D3";
layerId = "87234B38-16F4-4CA1-8928-84317B013084";
name = bg;
shapes = (
{
closed = 0;
nodes = (
(135,335,l),
(108,298,o),
(82,258,o),
(82,202,cs),
(82,122,o),
(142,75,o),
(212,75,cs),
(328,75,o),
(413,153,o),
(527,386,c)
);
},
{
closed = 0;
nodes = (
(409,593,l),
(364,614,o),
(323,625,o),
(266,625,cs),
(125,625,o),
(65,562,o),
(65,487,cs),
(65,425,o),
(105,378,o),
(272,296,cs),
(512,177,o),
(536,107,o),
(536,20,cs),
(536,-14,o),
(526,-53,o),
(495,-90,c)
);
}
);
vertWidth = 0;
width = 713;
},
{
associatedMasterId = "365BB766-143C-4A52-A3A9-25E29A0F4411";
layerId = "5FA27709-68CA-47DE-B57D-DEE8A333520E";
name = anotherone;
shapes = (
{
closed = 0;
nodes = (
(539,650,l),
(475,690,o),
(412,714,o),
(321,714,cs),
(148,714,o),
(75,644,o),
(75,563,cs),
(75,463,o),
(139,388,o),
(420,241,cs),
(847,19,o),
(912,-43,o),
(914,-108,cs)
);
},
{
closed = 0;
nodes = (
(305,289,l),
(267,254,o),
(243,203,o),
(243,142,cs),
(243,66,o),
(296,-5,o),
(351,-5,cs),
(439,-5,o),
(561,110,o),
(712,400,cs)
);
}
);
vertWidth = 0;
width = 600;
},
{
associatedMasterId = "5DCC2EB0-DF11-4824-93BF-E616AA6EE2C6";
layerId = "E61385E5-7ADA-4F99-8C00-F0CD171F640D";
name = bg;
shapes = (
{
closed = 0;
nodes = (
(135,335,l),
(108,298,o),
(82,258,o),
(82,202,cs),
(82,122,o),
(142,75,o),
(212,75,cs),
(328,75,o),
(413,153,o),
(527,386,cs)
);
},
{
closed = 0;
nodes = (
(409,593,l),
(364,614,o),
(323,625,o),
(266,625,cs),
(125,625,o),
(65,562,o),
(65,487,cs),
(65,425,o),
(105,378,o),
(272,296,cs),
(512,177,o),
(536,107,o),
(536,20,cs),
(536,-14,o),
(526,-53,o),
(495,-90,c)
);
}
);
vertWidth = 0;
width = 713;
}
);
unicode = 38;
userData = {
KernOnSpecialSpacing = {
L = NoKerning;
R = NoKerning;
};
};
}
{
color = 4;
glyphname = parenright;
layers = (
{
layerId = "DC44E50C-9AA1-421C-802C-D4D023281425";
shapes = (
{
closed = 1;
nodes = (
(75,-260,o),
(83,-257,o),
(101,-243,cs),
(237,-136,o),
(329,46,o),
(329,253,cs),
(329,497,o),
(223,707,o),
(104,791,cs),
(79,809,o),
(72,810,o),
(62,810,cs),
(48,810,o),
(30,798.267,o),
(30,778,cs),
(30,767,o),
(35,755,o),
(61,737,cs),
(173.84,655.116,o),
(259,463.132,o),
(259,253,cs),
(259,68,o),
(177,-94,o),
(54,-191,cs),
(38,-204,o),
(33,-214,o),
(33,-225,cs),
(33,-242,o),
(47,-260,o),
(68,-260,cs)
);
}
);
vertWidth = 0;
width = 387;
},
{
backgroundImage = {
imagePath = parenleft.png;
pos = (-2052.746,-485.376);
scale = (2.5964,2.5964);
};
layerId = "FA16BA0A-39E2-4955-BC33-721AB190E0D3";
shapes = (
{
closed = 1;
nodes = (
(135,-259,o),
(168,-248,o),
(203,-223,cs),
(350,-119,o),
(445,58,o),
(445,267,cs),
(445,507,o),
(342,693,o),
(194,787,cs),
(163,807,o),
(144,812,o),
(107,812,cs),
(58,812,o),
(20,782,o),
(20,739,cs),
(20,704,o),
(42,673,o),
(87,643,cs),
(200,568,o),
(269,450,o),
(269,267,cs),
(269,102,o),
(189,-26,o),
(68,-129,cs),
(44,-151,o),
(32,-168,o),
(32,-196,cs),
(32,-242,o),
(74,-259,o),
(109,-259,cs)
);
}
);
userData = {
com.typemytype.robofont.Image.Sharpness = 0.4;
};
vertWidth = 0;
width = 494;
},
{
layerId = "365BB766-143C-4A52-A3A9-25E29A0F4411";
shapes = (
{
closed = 1;
nodes = (
(75,-260,o),
(83,-257,o),
(101,-243,cs),
(237,-136,o),
(329,46,o),
(329,253,cs),
(329,523,o),
(217,711,o),
(104,791,cs),
(79,808,o),
(72,810,o),
(62,810,cs),
(48,810,o),
(30,794,o),
(30,775,cs),
(30,764,o),
(35,753,o),
(61,735,cs),
(163,663,o),
(259,493,o),
(259,253,cs),
(259,68,o),
(177,-94,o),
(54,-191,cs),
(38,-204,o),
(33,-214,o),
(33,-225,cs),
(33,-242,o),
(47,-260,o),
(68,-260,cs)
);
}
);
vertWidth = 0;
width = 387;
},
{
backgroundImage = {
imagePath = parenleft.png;
pos = (-2052.746,-485.376);
scale = (2.5964,2.5964);
};
layerId = "5DCC2EB0-DF11-4824-93BF-E616AA6EE2C6";
shapes = (
{
closed = 1;
nodes = (
(135,-259,o),
(168,-248,o),
(203,-223,cs),
(350,-119,o),
(445,58,o),
(445,267,cs),
(445,507,o),
(342,693,o),
(194,787,cs),
(163,807,o),
(144,812,o),
(107,812,cs),
(58,812,o),
(20,782,o),
(20,739,cs),
(20,704,o),
(42,673,o),
(87,643,cs),
(200,568,o),
(269,450,o),
(269,267,cs),
(269,102,o),
(189,-26,o),
(68,-129,cs),
(44,-151,o),
(32,-168,o),
(32,-196,cs),
(32,-242,o),
(74,-259,o),
(109,-259,cs)
);
}
);
userData = {
com.typemytype.robofont.Image.Sharpness = 0.4;
};
vertWidth = 0;
width = 514;
},
{
layerId = master01;
shapes = (
{
closed = 1;
nodes = (
(-22,-260,o),
(-8,-258,o),
(20,-238,cs),
(171,-135,o),
(289,36,o),
(330,239,cs),
(384,511,o),
(311,711,o),
(213.522,791,cs),
(192.522,808,o),
(185.522,810,o),
(175.522,810,cs),
(161.522,810,o),
(140.522,794,o),
(136.522,775,cs),
(134.522,764,o),
(137.522,753,o),
(159.522,735,cs),
(247.522,663,o),
(309.522,493,o),
(261.522,253,cs),
(224.522,68,o),
(109.522,-94,o),
(-32.478,-191,cs),
(-51.478,-204,o),
(-58.478,-214,o),
(-60.478,-225,cs),
(-63.478,-242,o),
(-53.478,-260,o),
(-32.478,-260,cs)
);
}
);
vertWidth = 0;
width = 387;
},
{
layerId = "FAD04859-55EE-48D6-A0AA-73DE2A79512F";
shapes = (
{
closed = 1;
nodes = (
(71,-259,o),
(106,-248,o),
(146,-223,cs),
(298.355,-129.015,o),
(399.849,33.31,o),
(440,237,cs),
(488.383,478.916,o),
(429,684,o),
(297,779,cs),
(266,802,o),
(244,812,o),
(204,812,cs),
(160.331,812,o),
(124.561,783.64,o),
(117,743,cs),
(109.718,706.588,o),
(124.884,673.351,o),
(164.34,643,cs),
(262.34,568,o),
(307.34,450,o),
(270.34,267,cs),
(239,108,o),
(155,-9,o),
(-8,-111,cs),
(-41,-133,o),
(-54,-153,o),
(-59,-181,cs),
(-70,-238,o),
(-9,-259,o),
(32,-259,cs)
);
}
);
vertWidth = 0;
width = 494;
},
{
layerId = "0998268F-450B-429A-9175-FFA5E463F4E3";
shapes = (
{
closed = 1;
nodes = (
(-22,-260,o),
(-8,-258,o),
(20,-238,cs),
(171,-135,o),
(289,36,o),
(330,239,cs),
(384,511,o),
(311,711,o),
(213.522,791,cs),
(192.522,808,o),
(185.522,810,o),
(175.522,810,cs),
(161.522,810,o),
(140.522,794,o),
(136.522,775,cs),
(134.522,764,o),
(137.522,753,o),
(159.522,735,cs),
(247.522,663,o),
(309.522,493,o),
(261.522,253,cs),
(224.522,68,o),
(109.522,-94,o),
(-32.478,-191,cs),
(-51.478,-204,o),
(-58.478,-214,o),
(-60.478,-225,cs),
(-63.478,-242,o),
(-53.478,-260,o),
(-32.478,-260,cs)
);
}
);
vertWidth = 0;
width = 387;
},
{
background = {
shapes = (
{
closed = 1;
nodes = (
(-24,-113,o),
(-42,-138,o),
(-46,-158,cs),
(-59,-221,o),
(-30,-266,o),
(24,-266,cs),
(69,-266,o),
(100,-250,o),
(128,-227,cs),
(287,-101,o),
(419,60,o),
(466,292,cs),
(515,537,o),
(422,729,o),
(299,785,cs),
(257,803,o),
(242,807,o),
(213,807,cs),
(156,807,o),
(117,779,o),
(110,736,cs),
(101,700,o),
(116,681,o),
(157,666,cs),
(269,626,o),
(322,484,o),
(290,322,cs),
(252,132,o),
(150,16,o),
(16,-84,cs)
);
}
);
};
layerId = "60E1EE18-36F5-475C-BAEC-6556E4A9959C";
shapes = (
{
closed = 1;
nodes = (
(71,-259,o),
(106,-248,o),
(146,-223,cs),
(298.355,-129.015,o),
(399.849,33.31,o),
(440,237,cs),
(488.383,478.916,o),
(429,684,o),
(297,779,cs),
(266,802,o),
(244,812,o),
(204,812,cs),
(160.331,812,o),
(124.561,783.64,o),
(117,743,cs),
(109.718,706.588,o),
(124.884,673.351,o),
(164.34,643,cs),
(262.34,568,o),
(307.34,450,o),
(270.34,267,cs),
(239,108,o),
(155,-9,o),
(-8,-111,cs),
(-41,-133,o),
(-54,-153,o),
(-59,-181,cs),
(-70,-238,o),
(-9,-259,o),
(32,-259,cs)
);
}
);
vertWidth = 0;
width = 494;
},
{
associatedMasterId = "FA16BA0A-39E2-4955-BC33-721AB190E0D3";
layerId = "87234B38-16F4-4CA1-8928-84317B013084";
name = bg;
shapes = (
{
closed = 0;
nodes = (
(165,-172,l),
(304,-74,o),
(391,81,o),
(391,257,cs),
(391,485,o),
(287,646,o),
(162,724,c)
);
}
);
vertWidth = 0;
width = 494;
},
{
associatedMasterId = "5DCC2EB0-DF11-4824-93BF-E616AA6EE2C6";
layerId = "E61385E5-7ADA-4F99-8C00-F0CD171F640D";
name = bg;
shapes = (
{
closed = 0;
nodes = (
(165,-172,l),
(304,-74,o),
(391,81,o),
(391,257,cs),
(391,485,o),
(287,646,o),
(162,724,c)
);
}
);
vertWidth = 0;
width = 514;
}
);
unicode = 41;
userData = {
KernOnSpecialSpacing = {
L = parenthesis;
};
};
}
{
color = 4;
glyphname = asterisk;
kernLeft = KO_asterisk;
kernRight = KO_asterisk;
layers = (
{
background = {
shapes = (
{
closed = 0;
nodes = (
(237,716,l),
(260,688,o),
(277,642,o),
(277,565,cs),
(277,491,o),
(263,375,o),
(281,286,c)
);
},
{
closed = 0;
nodes = (
(426,631,l),
(381,558,o),
(193,472,o),
(119,383,c)
);
},
{
closed = 0;
nodes = (
(89,613,l),
(178,561,o),
(312,498,o),
(427,410,c)
);
}
);
};
layerId = "DC44E50C-9AA1-421C-802C-D4D023281425";
shapes = (
{
closed = 1;
nodes = (
(103,352,o),
(113,357,o),
(120,365,cs),
(195,455,o),
(382,541,o),
(421,603,cs),
(432,622,o),
(434,631,o),
(434,638,cs),
(434,653,o),
(420.714,668,o),
(403,668,cs),
(388,668,o),
(381,660,o),
(373,648,cs),
(322,566,o),
(143,493,o),
(70,405,cs),
(65,399,o),
(62,391,o),
(62,383,cs),
(62,367.943,o),
(76.171,352,o),
(93,352,cs)
);
},
{
closed = 1;
nodes = (
(279,251,o),
(297,263,o),
(291,293,cs),
(273,381,o),
(288,484,o),
(288,556,cs),
(288,670,o),
(248,751,o),
(210,751,cs),
(192,751,o),
(183,740,o),
(183,724,cs),
(183,686.782,o),
(225,670.688,o),
(225,553,cs),
(225,480.269,o),
(211.262,368.657,o),
(228,283,cs),
(232,262,o),
(244,251,o),
(264,251,cs)
);
},
{
closed = 1;
nodes = (
(423.235,379,o),
(440,391.4,o),
(440,410,cs),
(440,420,o),
(435,431,o),
(426,438,cs),
(310,527,o),
(177,591,o),
(99,635,cs),
(80,646,o),
(74,648,o),
(59,648,cs),
(44.519,648,o),
(36,636.857,o),
(36,624,cs),
(36,609,o),
(41,594,o),
(62,582,cs),
(141,535,o),
(274,473,o),
(373,398,cs),
(394,382,o),
(401,379,o),
(410,379,cs)
);
}
);
vertWidth = 0;
width = 480;
},
{
backgroundImage = {
imagePath = asterisk000000000000001.png;
pos = (-8.657,213.602);
scale = (0.2628,0.2628);
};
layerId = "FA16BA0A-39E2-4955-BC33-721AB190E0D3";
shapes = (
{
closed = 1;
nodes = (
(144,314,o),
(158,321,o),
(171,341,cs),
(235,440,o),
(385,519,o),
(441,596,cs),
(452,612,o),
(459,628,o),
(459,651,cs),
(459,682,o),
(443,708,o),
(407,708,cs),
(383,708,o),
(367,695,o),
(351,671,cs),
(305,604,o),
(142,505,o),
(81,424,cs),
(62,399,o),
(61,386,o),
(61,375,cs),
(61,343,o),
(91,314,o),
(123,314,cs)
);
},
{
closed = 1;
nodes = (
(322,226,o),
(340,254,o),
(332,298,cs),
(316,385,o),
(320,499,o),
(320,570,cs),
(320,708,o),
(277,766,o),
(219,766,cs),
(184,766,o),
(169,749,o),
(169,721,cs),
(169,680,o),
(200,677,o),
(200,570,cs),
(200,493,o),
(195,367,o),
(214,274,cs),
(220,246,o),
(239,226,o),
(274,226,cs)
);
},
{
closed = 1;
nodes = (
(466,373,o),
(483,402,o),
(483,434,cs),
(483,459,o),
(471,478,o),
(451,488,cs),
(332,552,o),
(187,600,o),
(115,639,cs),
(86,654,o),
(76,660,o),
(56,660,cs),
(28,660,o),
(9,644,o),
(9,612,cs),
(9,591,o),
(18,559,o),
(57,536,cs),
(127,496,o),
(274,446,o),
(364,398,cs),
(403,377,o),
(411,373,o),
(430,373,cs)
);
}
);
userData = {
com.typemytype.robofont.Image.Brightness = 0;
com.typemytype.robofont.Image.Contrast = 1;
com.typemytype.robofont.Image.Saturation = 1;
com.typemytype.robofont.Image.Sharpness = 0.4;
};
vertWidth = 0;
width = 516;
},
{
background = {
shapes = (
{
closed = 0;
nodes = (
(237,716,l),
(260,688,o),
(277,642,o),
(277,565,cs),
(277,491,o),
(263,375,o),
(281,286,c)
);
},
{
closed = 0;
nodes = (
(426,631,l),
(381,558,o),
(193,472,o),
(119,383,c)
);
},
{
closed = 0;
nodes = (
(89,613,l),
(178,561,o),
(312,498,o),
(427,410,c)
);
}
);
};
layerId = "365BB766-143C-4A52-A3A9-25E29A0F4411";
shapes = (
{
closed = 1;
nodes = (
(107,348,o),
(117,353,o),
(124,361,cs),
(199,451,o),
(386,537,o),
(425,599,cs),
(436,618,o),
(438,627,o),
(438,634,cs),
(438,651,o),
(423,668,o),
(403,668,cs),
(388,668,o),
(381,660,o),
(373,648,cs),
(322,566,o),
(143,493,o),
(70,405,cs),
(65,399,o),
(62,391,o),
(62,383,cs),
(62,366,o),
(78,348,o),
(97,348,cs)
);
},
{
closed = 1;
nodes = (
(279,251,o),
(299,263,o),
(293,293,cs),
(275,381,o),
(290,484,o),
(290,556,cs),
(290,670,o),
(247,751,o),
(207,751,cs),
(189,751,o),
(180,740,o),
(180,724,cs),
(180,687,o),
(220,671,o),
(220,554,cs),
(220,481,o),
(208,370,o),
(225,283,cs),
(229,262,o),
(241,251,o),
(261,251,cs)
);
},
{
closed = 1;
nodes = (
(421,375,o),
(440,389,o),
(440,410,cs),
(440,420,o),
(435,431,o),
(426,438,cs),
(310,527,o),
(177,591,o),
(99,635,cs),
(80,646,o),
(74,648,o),
(59,648,cs),
(42,648,o),
(32,635,o),
(32,620,cs),
(32,605,o),
(37,590,o),
(58,578,cs),
(137,531,o),
(270,469,o),
(369,394,cs),
(390,378,o),
(397,375,o),
(406,375,cs)
);
}
);
vertWidth = 0;
width = 480;
},
{
backgroundImage = {
imagePath = asterisk000000000000001.png;
pos = (-8.657,213.602);
scale = (0.2628,0.2628);
};
layerId = "5DCC2EB0-DF11-4824-93BF-E616AA6EE2C6";
shapes = (
{
closed = 1;
nodes = (
(158,314,o),
(172,321,o),
(185,341,cs),
(249,440,o),
(399,519,o),
(455,596,cs),
(466,612,o),
(473,628,o),
(473,651,cs),
(473,682,o),
(457,708,o),
(421,708,cs),
(397,708,o),
(381,695,o),
(365,671,cs),
(319,604,o),
(156,505,o),
(95,424,cs),
(76,399,o),
(75,386,o),
(75,375,cs),
(75,343,o),
(105,314,o),
(137,314,cs)
);
},
{
closed = 1;
nodes = (
(336,226,o),
(354,254,o),
(346,298,cs),
(330,385,o),
(334,499,o),
(334,570,cs),
(334,708,o),
(291,766,o),
(233,766,cs),
(198,766,o),
(183,749,o),
(183,721,cs),
(183,680,o),
(214,677,o),
(214,570,cs),
(214,493,o),
(209,367,o),
(228,274,cs),
(234,246,o),
(253,226,o),
(288,226,cs)
);
},
{
closed = 1;
nodes = (
(480,373,o),
(497,402,o),
(497,434,cs),
(497,459,o),
(485,478,o),
(465,488,cs),
(346,552,o),
(201,600,o),
(129,639,cs),
(100,654,o),
(90,660,o),
(70,660,cs),
(42,660,o),
(23,644,o),
(23,612,cs),
(23,591,o),
(32,559,o),
(71,536,cs),
(141,496,o),
(288,446,o),
(378,398,cs),
(417,377,o),
(425,373,o),
(444,373,cs)
);
}
);
userData = {
com.typemytype.robofont.Image.Brightness = 0;
com.typemytype.robofont.Image.Contrast = 1;
com.typemytype.robofont.Image.Saturation = 1;
com.typemytype.robofont.Image.Sharpness = 0.4;
};
vertWidth = 0;
width = 520;
},
{
layerId = master01;
shapes = (
{
closed = 1;
nodes = (
(130,348,o),
(143,351,o),
(151,358,cs),
(244,448,o),
(448,534,o),
(500,596,cs),
(515,615,o),
(519,627,o),
(521,634,cs),
(524,651,o),
(507,668,o),
(486,668,cs),
(471,668,o),
(462,660,o),
(452,648,cs),
(384,566,o),
(191,493,o),
(100,405,cs),
(94,399,o),
(89,391,o),
(88,383,cs),
(84,366,o),
(98,348,o),
(118.725,348,cs)
);
},
{
closed = 1;
nodes = (
(280.725,251,o),
(303.725,263,o),
(303.725,293,cs),
(302.725,381,o),
(338.725,484,o),
(352.725,556,cs),
(375.725,670,o),
(348.725,751,o),
(308.725,751,cs),
(290.725,751,o),
(279.725,740,o),
(276.725,724,cs),
(268.725,687,o),
(305.725,671,o),
(282.725,554,cs),
(267.725,481,o),
(233.725,370,o),
(233.725,283,cs),
(232.725,262,o),
(242.725,251,o),
(262.725,251,cs)
);
},
{
closed = 1;
nodes = (
(446,375,o),
(465,388,o),
(469,409,cs),
(471,419,o),
(468,430,o),
(461,437,cs),
(362,526,o),
(242,590,o),
(173,634,cs),
(156,645,o),
(151,647,o),
(136,647,cs),
(121,647,o),
(111,634,o),
(107.725,620,cs),
(104.725,605,o),
(106.725,590,o),
(125.725,578,cs),
(194.725,531,o),
(315.725,469,o),
(399.725,394,cs),
(417.725,378,o),
(423.725,375,o),
(432.725,375,cs)
);
}
);
vertWidth = 0;
width = 480;
},
{
layerId = "FAD04859-55EE-48D6-A0AA-73DE2A79512F";
shapes = (
{
closed = 1;
nodes = (
(160,314,o),
(176.619,319.717,o),
(195,341,cs),
(279,440,o),
(445,519,o),
(516,596,cs),
(529.295,611.194,o),
(539,627,o),
(543,649,cs),
(549,682,o),
(533,706,o),
(501,706,cs),
(474,706,o),
(452.351,696.543,o),
(430,671,cs),
(371,604,o),
(188,505,o),
(111,424,cs),
(87,399,o),
(83,386,o),
(81,375,cs),
(74.979,342.886,o),
(101,314,o),
(136,314,cs)
);
},
{
closed = 1;
nodes = (
(316.372,226,o),
(340.372,254,o),
(341.372,298,cs),
(342.372,385,o),
(369.372,499,o),
(383.372,570,cs),
(411.372,708,o),
(387,766,o),
(329,766,cs),
(294,766,o),
(276,749,o),
(270,721,cs),
(262,680,o),
(284.372,677,o),
(263.372,570,cs),
(248.372,493,o),
(217.372,367,o),
(218.372,274,cs),
(218.372,246,o),
(233.372,226,o),
(268.372,226,cs)
);
},
{
closed = 1;
nodes = (
(490,366,o),
(511,395,o),
(518,426,cs),
(523,451,o),
(516,470,o),
(498,480,cs),
(394.789,541.734,o),
(273.786,600.349,o),
(212,638,cs),
(186,653,o),
(177,659,o),
(156,659,cs),
(129,659,o),
(107,643,o),
(100,612,cs),
(96,591,o),
(99,559,o),
(133,536,cs),
(192.837,497.395,o),
(315.166,437.124,o),
(393,391,cs),
(427,370,o),
(435,366,o),
(454,366,cs)
);
}
);
vertWidth = 0;
width = 516;
},
{
layerId = "0998268F-450B-429A-9175-FFA5E463F4E3";
shapes = (
{
closed = 1;
nodes = (
(130,348,o),
(143,351,o),
(151,358,cs),
(244,448,o),
(448,534,o),
(500,596,cs),
(515,615,o),
(519,627,o),
(521,634,cs),
(524,651,o),
(507,668,o),
(486,668,cs),
(471,668,o),
(462,660,o),
(452,648,cs),
(384,566,o),
(191,493,o),
(100,405,cs),
(94,399,o),
(89,391,o),
(88,383,cs),
(84,366,o),
(98,348,o),
(118.725,348,cs)
);
},
{
closed = 1;
nodes = (
(280.725,251,o),
(303.725,263,o),
(303.725,293,cs),
(302.725,381,o),
(338.725,484,o),
(352.725,556,cs),
(375.725,670,o),
(348.725,751,o),
(308.725,751,cs),
(290.725,751,o),
(279.725,740,o),
(276.725,724,cs),
(268.725,687,o),
(305.725,671,o),
(282.725,554,cs),
(267.725,481,o),
(233.725,370,o),
(233.725,283,cs),
(232.725,262,o),
(242.725,251,o),
(262.725,251,cs)
);
},
{
closed = 1;
nodes = (
(446,375,o),
(465,388,o),
(469,409,cs),
(471,419,o),
(468,430,o),
(461,437,cs),
(362,526,o),
(242,590,o),
(173,634,cs),
(156,645,o),
(151,647,o),
(136,647,cs),
(121,647,o),
(111,634,o),
(107.725,620,cs),
(104.725,605,o),
(106.725,590,o),
(125.725,578,cs),
(194.725,531,o),
(315.725,469,o),
(399.725,394,cs),
(417.725,378,o),
(423.725,375,o),
(432.725,375,cs)
);
}
);
vertWidth = 0;
width = 480;
},
{
layerId = "60E1EE18-36F5-475C-BAEC-6556E4A9959C";
shapes = (
{
closed = 1;
nodes = (
(160,314,o),
(176.619,319.717,o),
(195,341,cs),
(279,440,o),
(445,519,o),
(516,596,cs),
(529.295,611.194,o),
(539,627,o),
(543,649,cs),
(549,682,o),
(533,706,o),
(501,706,cs),
(474,706,o),
(452.351,696.543,o),
(430,671,cs),
(371,604,o),
(188,505,o),
(111,424,cs),
(87,399,o),
(83,386,o),
(81,375,cs),
(74.979,342.886,o),
(101,314,o),
(136,314,cs)
);
},
{
closed = 1;
nodes = (
(316.372,226,o),
(340.372,254,o),
(341.372,298,cs),
(342.372,385,o),
(369.372,499,o),
(383.372,570,cs),
(411.372,708,o),
(387,766,o),
(329,766,cs),
(294,766,o),
(276,749,o),
(270,721,cs),
(262,680,o),
(284.372,677,o),
(263.372,570,cs),
(248.372,493,o),
(217.372,367,o),
(218.372,274,cs),
(218.372,246,o),
(233.372,226,o),
(268.372,226,cs)
);
},
{
closed = 1;
nodes = (
(490,366,o),
(511,395,o),
(518,426,cs),
(523,451,o),
(516,470,o),
(498,480,cs),
(394.789,541.734,o),
(273.786,600.349,o),
(212,638,cs),
(186,653,o),
(177,659,o),
(156,659,cs),
(129,659,o),
(107,643,o),
(100,612,cs),
(96,591,o),
(99,559,o),
(133,536,cs),
(192.837,497.395,o),
(315.166,437.124,o),
(393,391,cs),
(427,370,o),
(435,366,o),
(454,366,cs)
);
}
);
vertWidth = 0;
width = 516;
},
{
associatedMasterId = "FA16BA0A-39E2-4955-BC33-721AB190E0D3";
layerId = "87234B38-16F4-4CA1-8928-84317B013084";
name = bg;
shapes = (
{
closed = 0;
nodes = (
(237,716,l),
(260,688,o),
(268,647,o),
(268,570,cs),
(268,496,o),
(263,375,o),
(281,286,c)
);
},
{
closed = 0;
nodes = (
(414,644,l),
(368,570,o),
(194,473,o),
(129,374,c)
);
},
{
closed = 0;
nodes = (
(75,600,l),
(165,548,o),
(311,499,o),
(431,435,c)
);
}
);
vertWidth = 0;
width = 516;
},
{
associatedMasterId = "5DCC2EB0-DF11-4824-93BF-E616AA6EE2C6";
layerId = "E61385E5-7ADA-4F99-8C00-F0CD171F640D";
name = bg;
shapes = (
{
closed = 0;
nodes = (
(237,716,l),
(260,688,o),
(268,647,o),
(268,570,cs),
(268,496,o),
(263,375,o),
(281,286,c)
);
},
{
closed = 0;
nodes = (
(414,644,l),
(368,570,o),
(194,473,o),
(129,374,cs)
);
},
{
closed = 0;
nodes = (
(75,600,l),
(165,548,o),
(311,499,o),
(431,435,cs)
);
}
);
vertWidth = 0;
width = 520;
}
);
unicode = 42;
userData = {
KernOnSpecialSpacing = {
L = quotes;
R = quotes;
};
};
}
{
color = 4;
glyphname = plus;
layers = (
{
background = {
shapes = (
{
closed = 1;
nodes = (
(432,359,o),
(419,174,o),
(419,110,cs),
(419,52,o),
(390,24,o),
(344,24,cs),
(300,24,o),
(263,53,o),
(258,116,cs),
(244,296,o),
(270,395,o),
(265,543,cs),
(263,588,o),
(278,618,o),
(327,618,cs),
(392,618,o),
(432,578,o),
(432,480,cs)
);
},
{
closed = 1;
nodes = (
(196,216,o),
(122,216,cs),
(72,216,o),
(45,255,o),
(45,301,cs),
(45,341,o),
(58,373,o),
(128,389,cs),
(248,416,o),
(391,425,o),
(509,425,cs),
(588,425,o),
(634,389,o),
(634,332,cs),
(634,298,o),
(619,274,o),
(565,274,cs),
(270,274,o)
);
}
);
};
layerId = "DC44E50C-9AA1-421C-802C-D4D023281425";
shapes = (
{
closed = 1;
nodes = (
(257,292,o),
(368,308,o),
(561,317,cs),
(586,318,o),
(596,326,o),
(596,345,cs),
(596,364,o),
(575,380,o),
(549,380,cs),
(429,380,o),
(277,360,o),
(150,338,cs),
(98,330,o),
(90,315,o),
(89,291,cs),
(89,272,o),
(105,256,o),
(134,264,cs)
);
},
{
closed = 1;
nodes = (
(354,42,o),
(372,52,o),
(372,87,cs),
(372,205,o),
(388,413,o),
(388,536,cs),
(388,574,o),
(368,595,o),
(348,595,cs),
(330,595,o),
(320,577,o),
(320,558,cs),
(320,457,o),
(301,258,o),
(311,102,cs),
(314,56,o),
(326,42,o),
(341,42,cs)
);
}
);
vertWidth = 0;
width = 700;
},
{
layerId = "FA16BA0A-39E2-4955-BC33-721AB190E0D3";
shapes = (
{
closed = 1;
nodes = (
(196,216,o),
(270,274,o),
(565,274,cs),
(619,274,o),
(634,298,o),
(634,332,cs),
(634,389,o),
(588,425,o),
(509,425,cs),
(391,425,o),
(248,416,o),
(128,389,cs),
(58,373,o),
(45,341,o),
(45,301,cs),
(45,255,o),
(72,216,o),
(122,216,cs)
);
},
{
closed = 1;
nodes = (
(390,24,o),
(419,52,o),
(419,110,cs),
(419,174,o),
(432,359,o),
(432,480,cs),
(432,578,o),
(392,618,o),
(327,618,cs),
(278,618,o),
(263,588,o),
(265,543,cs),
(270,395,o),
(244,296,o),
(258,116,cs),
(263,53,o),
(300,24,o),
(344,24,cs)
);
}
);
vertWidth = 0;
width = 700;
},
{
background = {
shapes = (
{
closed = 1;
nodes = (
(432,359,o),
(419,174,o),
(419,110,cs),
(419,52,o),
(390,24,o),
(344,24,cs),
(300,24,o),
(263,53,o),
(258,116,cs),
(244,296,o),
(270,395,o),
(265,543,cs),
(263,588,o),
(278,618,o),
(327,618,cs),
(392,618,o),
(432,578,o),
(432,480,cs)
);
},
{
closed = 1;
nodes = (
(196,216,o),
(122,216,cs),
(72,216,o),
(45,255,o),
(45,301,cs),
(45,341,o),
(58,373,o),
(128,389,cs),
(248,416,o),
(391,425,o),
(509,425,cs),
(588,425,o),
(634,389,o),
(634,332,cs),
(634,298,o),
(619,274,o),
(565,274,cs),
(270,274,o)
);
}
);
};
layerId = "365BB766-143C-4A52-A3A9-25E29A0F4411";
shapes = (
{
closed = 1;
nodes = (
(257,292,o),
(368,308,o),
(561,317,cs),
(586,318,o),
(596,326,o),
(596,345,cs),
(596,364,o),
(575,380,o),
(549,380,cs),
(429,380,o),
(277,360,o),
(150,338,cs),
(98,330,o),
(90,315,o),
(89,291,cs),
(89,272,o),
(105,256,o),
(134,264,cs)
);
},
{
closed = 1;
nodes = (
(354,42,o),
(372,52,o),
(372,87,cs),
(372,205,o),
(388,413,o),
(388,536,cs),
(388,574,o),
(368,595,o),
(348,595,cs),
(330,595,o),
(320,577,o),
(320,558,cs),
(320,457,o),
(301,258,o),
(311,102,cs),
(314,56,o),
(326,42,o),
(341,42,cs)
);
}
);
vertWidth = 0;
width = 700;
},
{
layerId = "5DCC2EB0-DF11-4824-93BF-E616AA6EE2C6";
shapes = (
{
closed = 1;
nodes = (
(196,216,o),
(270,274,o),
(565,274,cs),
(619,274,o),
(634,298,o),
(634,332,cs),
(634,389,o),
(588,425,o),
(509,425,cs),
(391,425,o),
(248,416,o),
(128,389,cs),
(58,373,o),
(45,341,o),
(45,301,cs),
(45,255,o),
(72,216,o),
(122,216,cs)
);
},
{
closed = 1;
nodes = (
(390,24,o),
(419,52,o),
(419,110,cs),
(419,174,o),
(432,359,o),
(432,480,cs),
(432,578,o),
(392,618,o),
(327,618,cs),
(278,618,o),
(263,588,o),
(265,543,cs),
(270,395,o),
(244,296,o),
(258,116,cs),
(263,53,o),
(300,24,o),
(344,24,cs)
);
}
);
vertWidth = 0;
width = 700;
},
{
layerId = master01;
shapes = (
{
closed = 1;
nodes = (
(266.704,292,o),
(381.704,308,o),
(575.704,317,cs),
(601.704,318,o),
(612.704,326,o),
(616.704,345,cs),
(620.704,364,o),
(602.704,380,o),
(576.704,380,cs),
(456.704,380,o),
(300.704,360,o),
(169.704,338,cs),
(115.704,330,o),
(104.704,315,o),
(98.704,291,cs),
(94.704,272,o),
(107.704,256,o),
(138.704,264,cs)
);
},
{
closed = 1;
nodes = (
(315,42,o),
(337,52,o),
(344,87,cs),
(368,205,o),
(426,413,o),
(450,536,cs),
(458,574,o),
(441,595,o),
(418.704,595,cs),
(400.704,595,o),
(386.704,577,o),
(383.704,558,cs),
(362.704,457,o),
(304.704,258,o),
(282.704,102,cs),
(276.704,56,o),
(285.704,42,o),
(300.704,42,cs)
);
}
);
vertWidth = 0;
width = 700;
},
{
layerId = "FAD04859-55EE-48D6-A0AA-73DE2A79512F";
shapes = (
{
closed = 1;
nodes = (
(188.157,216,o),
(274.157,274,o),
(569.157,274,cs),
(623.157,274,o),
(643.157,298,o),
(649.157,332,cs),
(661.157,389,o),
(622.157,425,o),
(543.157,425,cs),
(425.157,425,o),
(280.157,416,o),
(155.157,389,cs),
(82.157,373,o),
(62.157,341,o),
(54.157,301,cs),
(45.157,255,o),
(64.157,216,o),
(114.157,216,cs)
);
},
{
closed = 1;
nodes = (
(344.157,24,o),
(378.157,52,o),
(390.157,110,cs),
(403.157,174,o),
(453.157,359,o),
(477.157,480,cs),
(497.157,578,o),
(465.157,618,o),
(400.157,618,cs),
(351.157,618,o),
(330.157,588,o),
(323.157,543,cs),
(298.157,395,o),
(252.157,296,o),
(230.157,116,cs),
(223.157,53,o),
(254.157,24,o),
(298.157,24,cs)
);
}
);
vertWidth = 0;
width = 700;
},
{
layerId = "0998268F-450B-429A-9175-FFA5E463F4E3";
shapes = (
{
closed = 1;
nodes = (
(266.704,292,o),
(381.704,308,o),
(575.704,317,cs),
(601.704,318,o),
(612.704,326,o),
(616.704,345,cs),
(620.704,364,o),
(602.704,380,o),
(576.704,380,cs),
(456.704,380,o),
(300.704,360,o),
(169.704,338,cs),
(115.704,330,o),
(104.704,315,o),
(98.704,291,cs),
(94.704,272,o),
(107.704,256,o),
(138.704,264,cs)
);
},
{
closed = 1;
nodes = (
(315,42,o),
(337,52,o),
(344,87,cs),
(368,205,o),
(426,413,o),
(450,536,cs),
(458,574,o),
(441,595,o),
(418.704,595,cs),
(400.704,595,o),
(386.704,577,o),
(383.704,558,cs),
(362.704,457,o),
(304.704,258,o),
(282.704,102,cs),
(276.704,56,o),
(285.704,42,o),
(300.704,42,cs)
);
}
);
vertWidth = 0;
width = 700;
},
{
layerId = "60E1EE18-36F5-475C-BAEC-6556E4A9959C";
shapes = (
{
closed = 1;
nodes = (
(188.157,216,o),
(274.157,274,o),
(569.157,274,cs),
(623.157,274,o),
(643.157,298,o),
(649.157,332,cs),
(661.157,389,o),
(622.157,425,o),
(543.157,425,cs),
(425.157,425,o),
(280.157,416,o),
(155.157,389,cs),
(82.157,373,o),
(62.157,341,o),
(54.157,301,cs),
(45.157,255,o),
(64.157,216,o),
(114.157,216,cs)
);
},
{
closed = 1;
nodes = (
(344.157,24,o),
(378.157,52,o),
(390.157,110,cs),
(403.157,174,o),
(453.157,359,o),
(477.157,480,cs),
(497.157,578,o),
(465.157,618,o),
(400.157,618,cs),
(351.157,618,o),
(330.157,588,o),
(323.157,543,cs),
(298.157,395,o),
(252.157,296,o),
(230.157,116,cs),
(223.157,53,o),
(254.157,24,o),
(298.157,24,cs)
);
}
);
vertWidth = 0;
width = 700;
}
);
unicode = 43;
userData = {
KernOnSpecialSpacing = {
L = NoKerning;
R = NoKerning;
};
};
}
{
color = 4;
glyphname = comma;
layers = (
{
background = {
shapes = (
{
closed = 0;
nodes = (
(149,115,l),
(145,47,o),
(120,-25,o),
(95,-67,cs)
);
},
{
closed = 1;
nodes = (
(122,-141,o),
(131,-136,o),
(138,-124,cs),
(174,-62,o),
(210,26,o),
(210,108,cs),
(210,127,o),
(194,142,o),
(176,142,cs),
(158,142,o),
(142,128,o),
(142,110,cs),
(142,38,o),
(112,-30,o),
(85,-80,cs),
(67,-114,o),
(91,-141,o),
(108,-141,cs)
);
}
);
};
layerId = "DC44E50C-9AA1-421C-802C-D4D023281425";
shapes = (
{
closed = 1;
nodes = (
(60.722,-168,o),
(77,-158,o),
(90,-136,cs),
(130,-70,o),
(153,24,o),
(153,86,cs),
(153,128,o),
(138.698,147,o),
(112,147,cs),
(91,147,o),
(78,130,o),
(78,96,cs),
(78,23,o),
(65,-30,o),
(36,-84,cs),
(21,-113,o),
(14,-131,o),
(14,-144,cs),
(14,-158,o),
(24,-168,o),
(39,-168,cs)
);
}
);
vertWidth = 0;
width = 234;
},
{
layerId = "FA16BA0A-39E2-4955-BC33-721AB190E0D3";
shapes = (
{
closed = 1;
nodes = (
(140,-180,o),
(188,-145,o),
(214,-103,cs),
(249,-47,o),
(272,29,o),
(272,98,cs),
(272,161,o),
(225,204,o),
(151,204,cs),
(97,204,o),
(72,168,o),
(72,113,cs),
(72,86,o),
(82,13,o),
(54,-64,cs),
(43,-93,o),
(39,-112,o),
(39,-130,cs),
(39,-162,o),
(57,-180,o),
(95,-180,cs)
);
}
);
vertWidth = 0;
width = 322;
},
{
background = {
shapes = (
{
closed = 0;
nodes = (
(149,115,l),
(145,47,o),
(120,-25,o),
(95,-67,cs)
);
},
{
closed = 1;
nodes = (
(122,-141,o),
(131,-136,o),
(138,-124,cs),
(174,-62,o),
(210,26,o),
(210,108,cs),
(210,127,o),
(194,142,o),
(176,142,cs),
(158,142,o),
(142,128,o),
(142,110,cs),
(142,38,o),
(112,-30,o),
(85,-80,cs),
(67,-114,o),
(91,-141,o),
(108,-141,cs)
);
}
);
};
layerId = "365BB766-143C-4A52-A3A9-25E29A0F4411";
shapes = (
{
closed = 1;
nodes = (
(57,-168,o),
(81,-156,o),
(96,-136,cs),
(140,-73,o),
(167,22,o),
(167,83,cs),
(167,130,o),
(147,147,o),
(112,147,cs),
(91,147,o),
(78,130,o),
(78,96,cs),
(78,23,o),
(65,-30,o),
(36,-84,cs),
(21,-113,o),
(14,-131,o),
(14,-144,cs),
(14,-158,o),
(24,-168,o),
(39,-168,cs)
);
}
);
vertWidth = 0;
width = 234;
},
{
layerId = "5DCC2EB0-DF11-4824-93BF-E616AA6EE2C6";
shapes = (
{
closed = 1;
nodes = (
(140,-180,o),
(188,-145,o),
(214,-103,cs),
(249,-47,o),
(272,29,o),
(272,98,cs),
(272,161,o),
(225,204,o),
(151,204,cs),
(97,204,o),
(72,168,o),
(72,113,cs),
(72,86,o),
(82,13,o),
(54,-64,cs),
(43,-93,o),
(39,-112,o),
(39,-130,cs),
(39,-162,o),
(57,-180,o),
(95,-180,cs)
);
}
);
vertWidth = 0;
width = 322;
},
{
layerId = master01;
shapes = (
{
closed = 1;
nodes = (
(-14,-168,o),
(6,-157,o),
(24,-136,cs),
(79,-72,o),
(126,22,o),
(139,83,cs),
(148,130,o),
(130,147,o),
(92.624,147,cs),
(71.624,147,o),
(55.624,130,o),
(48.624,96,cs),
(34.624,23,o),
(10.624,-30,o),
(-29.376,-84,cs),
(-50.376,-113,o),
(-60.376,-131,o),
(-63.376,-144,cs),
(-66.376,-158,o),
(-53,-168,o),
(-38,-168,cs)
);
}
);
vertWidth = 0;
width = 234;
},
{
layerId = "FAD04859-55EE-48D6-A0AA-73DE2A79512F";
shapes = (
{
closed = 1;
nodes = (
(52.337,-180,o),
(107.337,-145,o),
(141.337,-103,cs),
(188.337,-47,o),
(226.337,29,o),
(240.337,98,cs),
(252.337,161,o),
(214.337,204,o),
(140.337,204,cs),
(86.337,204,o),
(54.337,168,o),
(43.337,113,cs),
(37.337,86,o),
(33.337,13,o),
(-10.663,-64,cs),
(-27.663,-93,o),
(-34.663,-112,o),
(-38.663,-130,cs),
(-44.663,-162,o),
(-30.663,-180,o),
(7.337,-180,cs)
);
}
);
vertWidth = 0;
width = 322;
},
{
layerId = "0998268F-450B-429A-9175-FFA5E463F4E3";
shapes = (
{
closed = 1;
nodes = (
(-14,-168,o),
(6,-157,o),
(24,-136,cs),
(79,-72,o),
(126,22,o),
(139,83,cs),
(148,130,o),
(130,147,o),
(92.624,147,cs),
(71.624,147,o),
(55.624,130,o),
(48.624,96,cs),
(34.624,23,o),
(10.624,-30,o),
(-29.376,-84,cs),
(-50.376,-113,o),
(-60.376,-131,o),
(-63.376,-144,cs),
(-66.376,-158,o),
(-53,-168,o),
(-38,-168,cs)
);
}
);
vertWidth = 0;
width = 234;
},
{
layerId = "60E1EE18-36F5-475C-BAEC-6556E4A9959C";
shapes = (
{
closed = 1;
nodes = (
(52.337,-180,o),
(107.337,-145,o),
(141.337,-103,cs),
(188.337,-47,o),
(226.337,29,o),
(240.337,98,cs),
(252.337,161,o),
(214.337,204,o),
(140.337,204,cs),
(86.337,204,o),
(54.337,168,o),
(43.337,113,cs),
(37.337,86,o),
(33.337,13,o),
(-10.663,-64,cs),
(-27.663,-93,o),
(-34.663,-112,o),
(-38.663,-130,cs),
(-44.663,-162,o),
(-30.663,-180,o),
(7.337,-180,cs)
);
}
);
vertWidth = 0;
width = 322;
},
{
associatedMasterId = "FA16BA0A-39E2-4955-BC33-721AB190E0D3";
layerId = "87234B38-16F4-4CA1-8928-84317B013084";
name = bg;
shapes = (
{
closed = 1;
nodes = (
(147,-127,o),
(167,-115,o),
(177,-97,cs),
(210,-42,o),
(235,43,o),
(239,111,c),
(239,112,o),
(239,114,o),
(239,115,cs),
(239,148,o),
(212,175,o),
(179,175,cs),
(147,175,o),
(121,150,o),
(119,118,cs),
(116,66,o),
(98,6,o),
(74,-36,c),
(68,-45,o),
(65,-55,o),
(65,-67,cs),
(65,-100,o),
(92,-127,o),
(125,-127,cs)
);
},
{
closed = 1;
nodes = (
(148,-159,o),
(168,-147,o),
(187,-116,cs),
(232,-42,o),
(262,53,o),
(262,120,cs),
(262,173,o),
(233,205,o),
(176,205,cs),
(131,205,o),
(94,169,o),
(91,124,cs),
(89,72,o),
(63,13,o),
(40,-29,cs),
(15,-74,o),
(55,-159,o),
(118,-159,cs)
);
}
);
vertWidth = 0;
width = 322;
},
{
associatedMasterId = "5DCC2EB0-DF11-4824-93BF-E616AA6EE2C6";
layerId = "E61385E5-7ADA-4F99-8C00-F0CD171F640D";
name = bg;
shapes = (
{
closed = 1;
nodes = (
(147,-127,o),
(167,-115,o),
(177,-97,cs),
(210,-42,o),
(235,43,o),
(239,111,cs),
(239,112,o),
(239,114,o),
(239,115,cs),
(239,148,o),
(212,175,o),
(179,175,cs),
(147,175,o),
(121,150,o),
(119,118,cs),
(116,66,o),
(98,6,o),
(74,-36,cs),
(68,-45,o),
(65,-55,o),
(65,-67,cs),
(65,-100,o),
(92,-127,o),
(125,-127,cs)
);
},
{
closed = 1;
nodes = (
(148,-159,o),
(168,-147,o),
(187,-116,cs),
(232,-42,o),
(262,53,o),
(262,120,cs),
(262,173,o),
(233,205,o),
(176,205,cs),
(131,205,o),
(94,169,o),
(91,124,cs),
(89,72,o),
(63,13,o),
(40,-29,cs),
(15,-74,o),
(55,-159,o),
(118,-159,cs)
);
}
);
vertWidth = 0;
width = 322;
}
);
unicode = 44;
userData = {
KernOnSpecialSpacing = {
L = period;
R = period;
};
};
}
{
color = 4;
glyphname = hyphen;
layers = (
{
background = {
shapes = (
{
closed = 1;
nodes = (
(197,215,o),
(272,239,o),
(365,245,cs),
(396,247,o),
(421,273,o),
(421,305,cs),
(421,338,o),
(394,365,o),
(361,365,cs),
(296,365,o),
(186,335,o),
(115,311,cs),
(58,287,o),
(50,263,o),
(50,230,cs),
(50,194,o),
(87,173,o),
(128,189,cs)
);
}
);
};
layerId = "DC44E50C-9AA1-421C-802C-D4D023281425";
shapes = (
{
closed = 1;
nodes = (
(152.719,212,o),
(209.261,232,o),
(365,232,cs),
(397,232,o),
(416,243,o),
(416,261,cs),
(416,274,o),
(394,295,o),
(332,295,cs),
(249.672,295,o),
(174.298,281.912,o),
(87,271,cs),
(62,268,o),
(55,253,o),
(55,242,cs),
(55,227,o),
(77,212,o),
(118,212,cs)
);
}
);
vertWidth = 0;
width = 471;
},
{
layerId = "FA16BA0A-39E2-4955-BC33-721AB190E0D3";
shapes = (
{
closed = 1;
nodes = (
(238.759,176,o),
(291.926,186,o),
(438,186,cs),
(469,186,o),
(487,207,o),
(487,240,cs),
(487,281,o),
(444,349,o),
(325,349,cs),
(241.964,349,o),
(160.976,348.839,o),
(77,323,cs),
(49,315,o),
(43,301,o),
(43,279,cs),
(43,229,o),
(101,176,o),
(206,176,cs)
);
}
);
vertWidth = 0;
width = 531;
},
{
background = {
shapes = (
{
closed = 1;
nodes = (
(197,215,o),
(272,239,o),
(365,245,cs),
(396,247,o),
(421,273,o),
(421,305,cs),
(421,338,o),
(394,365,o),
(361,365,cs),
(296,365,o),
(186,335,o),
(115,311,cs),
(58,287,o),
(50,263,o),
(50,230,cs),
(50,194,o),
(87,173,o),
(128,189,cs)
);
}
);
};
layerId = "365BB766-143C-4A52-A3A9-25E29A0F4411";
shapes = (
{
closed = 1;
nodes = (
(152.719,212,o),
(209.261,232,o),
(365,232,cs),
(397,232,o),
(416,243,o),
(416,261,cs),
(416,274,o),
(394,295,o),
(332,295,cs),
(249.672,295,o),
(174.298,281.912,o),
(87,271,cs),
(62,268,o),
(55,253,o),
(55,242,cs),
(55,227,o),
(77,212,o),
(118,212,cs)
);
}
);
vertWidth = 0;
width = 471;
},
{
layerId = "5DCC2EB0-DF11-4824-93BF-E616AA6EE2C6";
shapes = (
{
closed = 1;
nodes = (
(238.759,176,o),
(291.926,186,o),
(438,186,cs),
(469,186,o),
(487,207,o),
(487,240,cs),
(487,281,o),
(444,349,o),
(325,349,cs),
(241.964,349,o),
(160.976,348.839,o),
(77,323,cs),
(49,315,o),
(43,301,o),
(43,279,cs),
(43,229,o),
(101,176,o),
(206,176,cs)
);
}
);
vertWidth = 0;
width = 531;
},
{
layerId = master01;
shapes = (
{
closed = 1;
nodes = (
(147.307,212,o),
(208.307,232,o),
(363.307,232,cs),
(395.307,232,o),
(417.307,243,o),
(420.307,261,cs),
(423.307,274,o),
(405.307,295,o),
(343.307,295,cs),
(261.307,295,o),
(183.307,282,o),
(93.307,271,cs),
(68.307,268,o),
(58.307,253,o),
(55.307,242,cs),
(52.307,227,o),
(71.307,212,o),
(112.307,212,cs)
);
}
);
vertWidth = 0;
width = 471;
},
{
layerId = "FAD04859-55EE-48D6-A0AA-73DE2A79512F";
shapes = (
{
closed = 1;
nodes = (
(222.315,176,o),
(277.315,186,o),
(423.315,186,cs),
(454.315,186,o),
(476.315,207,o),
(483.315,240,cs),
(491.315,281,o),
(462.315,349,o),
(343.315,349,cs),
(260.315,349,o),
(179.315,349,o),
(90.315,323,cs),
(60.315,315,o),
(51.315,301,o),
(47.315,279,cs),
(37.315,229,o),
(84.315,176,o),
(189.315,176,cs)
);
}
);
vertWidth = 0;
width = 531;
},
{
layerId = "0998268F-450B-429A-9175-FFA5E463F4E3";
shapes = (
{
closed = 1;
nodes = (
(147.307,212,o),
(208.307,232,o),
(363.307,232,cs),
(395.307,232,o),
(417.307,243,o),
(420.307,261,cs),
(423.307,274,o),
(405.307,295,o),
(343.307,295,cs),
(261.307,295,o),
(183.307,282,o),
(93.307,271,cs),
(68.307,268,o),
(58.307,253,o),
(55.307,242,cs),
(52.307,227,o),
(71.307,212,o),
(112.307,212,cs)
);
}
);
vertWidth = 0;
width = 471;
},
{
layerId = "60E1EE18-36F5-475C-BAEC-6556E4A9959C";
shapes = (
{
closed = 1;
nodes = (
(222.315,176,o),
(277.315,186,o),
(423.315,186,cs),
(454.315,186,o),
(476.315,207,o),
(483.315,240,cs),
(491.315,281,o),
(462.315,349,o),
(343.315,349,cs),
(260.315,349,o),
(179.315,349,o),
(90.315,323,cs),
(60.315,315,o),
(51.315,301,o),
(47.315,279,cs),
(37.315,229,o),
(84.315,176,o),
(189.315,176,cs)
);
}
);
vertWidth = 0;
width = 531;
}
);
unicode = 45;
userData = {
KernOnSpecialSpacing = {
L = hyphen;
R = hyphen;
};
};
}
{
color = 4;
glyphname = slash;
layers = (
{
background = {
shapes = (
{
closed = 1;
nodes = (
(356,559,o),
(149,178,o),
(149,-120,cs),
(149,-135,o),
(134,-149,o),
(119,-148,cs),
(98,-147,o),
(81,-131,o),
(81,-102,cs),
(81,179,o),
(288,563,o),
(288,727,cs),
(288,743,o),
(296,758,o),
(315,759,cs),
(335,760,o),
(356,743,o),
(356,710,cs)
);
},
{
closed = 1;
nodes = (
(228,438,o),
(138,170,o),
(117,-106,cs),
(115,-135,o),
(103,-148,o),
(85,-148,cs),
(62,-148,o),
(46,-131,o),
(48,-102,cs),
(70,196,o),
(169,483,o),
(342,775,cs),
(361,807,o),
(374,820,o),
(392,820,cs),
(415,820,o),
(440,790,o),
(412,743,cs)
);
}
);
};
layerId = "DC44E50C-9AA1-421C-802C-D4D023281425";
shapes = (
{
closed = 1;
nodes = (
(58,-188,o),
(72,-175,o),
(78,-146,cs),
(135,139,o),
(206,425,o),
(392,733,cs),
(420,780,o),
(395,810,o),
(372,810,cs),
(354,810,o),
(341,797,o),
(322,765,cs),
(148,471,o),
(62,173,o),
(2,-131,cs),
(-4,-167,o),
(12,-188,o),
(40,-188,cs)
);
}
);
vertWidth = 0;
width = 330;
},
{
layerId = "FA16BA0A-39E2-4955-BC33-721AB190E0D3";
shapes = (
{
closed = 1;
nodes = (
(187,-253,o),
(219,-222,o),
(225,-165,cs),
(261,150,o),
(342,399,o),
(463,646,cs),
(509,736,o),
(459,813,o),
(397,814,cs),
(355,814,o),
(322,787,o),
(292,729,cs),
(195,543,o),
(83,177,o),
(46,-138,cs),
(39,-202,o),
(74,-253,o),
(137,-253,cs)
);
}
);
vertWidth = 0;
width = 455;
},
{
background = {
shapes = (
{
closed = 1;
nodes = (
(356,559,o),
(149,178,o),
(149,-120,cs),
(149,-135,o),
(134,-149,o),
(119,-148,cs),
(98,-147,o),
(81,-131,o),
(81,-102,cs),
(81,179,o),
(288,563,o),
(288,727,cs),
(288,743,o),
(296,758,o),
(315,759,cs),
(335,760,o),
(356,743,o),
(356,710,cs)
);
},
{
closed = 1;
nodes = (
(228,438,o),
(138,170,o),
(117,-106,cs),
(115,-135,o),
(103,-148,o),
(85,-148,cs),
(62,-148,o),
(46,-131,o),
(48,-102,cs),
(70,196,o),
(169,483,o),
(342,775,cs),
(361,807,o),
(374,820,o),
(392,820,cs),
(415,820,o),
(440,790,o),
(412,743,cs)
);
}
);
};
layerId = "365BB766-143C-4A52-A3A9-25E29A0F4411";
shapes = (
{
closed = 1;
nodes = (
(58,-148,o),
(72,-135,o),
(78,-106,cs),
(135,179,o),
(206,465,o),
(392,773,cs),
(420,820,o),
(395,850,o),
(372,850,cs),
(354,850,o),
(341,837,o),
(322,805,cs),
(148,511,o),
(62,213,o),
(2,-91,cs),
(-4,-127,o),
(12,-148,o),
(40,-148,cs)
);
}
);
vertWidth = 0;
width = 330;
},
{
layerId = "5DCC2EB0-DF11-4824-93BF-E616AA6EE2C6";
shapes = (
{
closed = 1;
nodes = (
(187,-188,o),
(219,-157,o),
(225,-100,cs),
(261.165,214.53,o),
(342.37,463.902,o),
(463,711,cs),
(509,801,o),
(459,878,o),
(397,879,cs),
(355,879,o),
(322,852,o),
(292,794,cs),
(194.608,607.981,o),
(82.536,241.855,o),
(46,-73,cs),
(39,-137,o),
(74,-188,o),
(137,-188,cs)
);
}
);
vertWidth = 0;
width = 455;
},
{
layerId = master01;
shapes = (
{
closed = 1;
nodes = (
(-19,-148,o),
(-1,-135,o),
(11,-106,cs),
(125,179,o),
(253,465,o),
(501,773,cs),
(536,817,o),
(516.429,850,o),
(493.429,850,cs),
(475.429,850,o),
(459.429,837,o),
(434.429,805,cs),
(201.429,511,o),
(56.429,213,o),
(-64.571,-91,cs),
(-77.571,-127,o),
(-66.571,-148,o),
(-38.571,-148,cs)
);
}
);
vertWidth = 0;
width = 330;
},
{
layerId = "FAD04859-55EE-48D6-A0AA-73DE2A79512F";
shapes = (
{
closed = 1;
nodes = (
(85.595,-253,o),
(125.965,-222.118,o),
(143,-165,cs),
(242,150,o),
(373,399,o),
(543,646,cs),
(608.834,738.58,o),
(575.492,812.917,o),
(508.34,814,cs),
(465.19,814,o),
(423.122,789.758,o),
(383,733,cs),
(249,547,o),
(63,181,o),
(-37,-134,cs),
(-56.685,-200.307,o),
(-31.754,-253,o),
(34.34,-253,cs)
);
}
);
vertWidth = 0;
width = 455;
},
{
layerId = "0998268F-450B-429A-9175-FFA5E463F4E3";
shapes = (
{
closed = 1;
nodes = (
(-19,-148,o),
(-1,-135,o),
(11,-106,cs),
(125,179,o),
(253,465,o),
(501,773,cs),
(536,817,o),
(516.429,850,o),
(493.429,850,cs),
(475.429,850,o),
(459.429,837,o),
(434.429,805,cs),
(201.429,511,o),
(56.429,213,o),
(-64.571,-91,cs),
(-77.571,-127,o),
(-66.571,-148,o),
(-38.571,-148,cs)
);
}
);
vertWidth = 0;
width = 330;
},
{
layerId = "60E1EE18-36F5-475C-BAEC-6556E4A9959C";
shapes = (
{
closed = 1;
nodes = (
(85.595,-253,o),
(125.965,-222.118,o),
(143,-165,cs),
(242,150,o),
(373,399,o),
(543,646,cs),
(608.834,738.58,o),
(575.492,812.917,o),
(508.34,814,cs),
(465.19,814,o),
(423.122,789.758,o),
(383,733,cs),
(249,547,o),
(63,181,o),
(-37,-134,cs),
(-56.685,-200.307,o),
(-31.754,-253,o),
(34.34,-253,cs)
);
}
);
vertWidth = 0;
width = 455;
},
{
associatedMasterId = "FA16BA0A-39E2-4955-BC33-721AB190E0D3";
layerId = "87234B38-16F4-4CA1-8928-84317B013084";
name = bg;
shapes = (
{
closed = 1;
nodes = (
(464,520,o),
(262,171,o),
(262,-101,cs),
(262,-158,o),
(229,-189,o),
(184,-188,cs),
(120,-187,o),
(79,-142,o),
(80,-85,cs),
(85,183,o),
(286,525,o),
(286,688,cs),
(286,739,o),
(307,769,o),
(352,769,cs),
(408,769,o),
(464,728,o),
(464,665,cs)
);
},
{
closed = 1;
nodes = (
(310,394,o),
(222,171,o),
(222,-101,cs),
(222,-158,o),
(189,-189,o),
(144,-188,cs),
(80,-187,o),
(40,-142,o),
(40,-85,cs),
(40,198,o),
(160,527,o),
(275,693,cs),
(315,751,o),
(342,778,o),
(384,778,cs),
(456,778,o),
(495,688,o),
(437,596,cs)
);
},
{
closed = 1;
nodes = (
(353,424,o),
(258,187,o),
(225,-100,cs),
(219,-157,o),
(187,-188,o),
(137,-188,cs),
(74,-188,o),
(39,-137,o),
(46,-73,cs),
(80,220,o),
(205,562,o),
(325,735,cs),
(365,793,o),
(392,820,o),
(434,820,cs),
(506,820,o),
(545,730,o),
(487,638,cs)
);
}
);
vertWidth = 0;
width = 455;
},
{
associatedMasterId = "5DCC2EB0-DF11-4824-93BF-E616AA6EE2C6";
layerId = "E61385E5-7ADA-4F99-8C00-F0CD171F640D";
name = bg;
shapes = (
{
closed = 1;
nodes = (
(464,728,o),
(464,665,cs),
(464,520,o),
(262,171,o),
(262,-101,cs),
(262,-158,o),
(229,-189,o),
(184,-188,cs),
(120,-187,o),
(79,-142,o),
(80,-85,cs),
(85,183,o),
(286,525,o),
(286,688,cs),
(286,739,o),
(307,769,o),
(352,769,cs),
(408,769,o)
);
},
{
closed = 1;
nodes = (
(495,688,o),
(437,596,cs),
(310,394,o),
(222,171,o),
(222,-101,cs),
(222,-158,o),
(189,-189,o),
(144,-188,cs),
(80,-187,o),
(40,-142,o),
(40,-85,cs),
(40,198,o),
(160,527,o),
(275,693,cs),
(315,751,o),
(342,778,o),
(384,778,cs),
(456,778,o)
);
},
{
closed = 1;
nodes = (
(545,730,o),
(487,638,cs),
(353,424,o),
(258,187,o),
(225,-100,cs),
(219,-157,o),
(187,-188,o),
(137,-188,cs),
(74,-188,o),
(39,-137,o),
(46,-73,cs),
(80,220,o),
(205,562,o),
(325,735,cs),
(365,793,o),
(392,820,o),
(434,820,cs),
(506,820,o)
);
}
);
vertWidth = 0;
width = 455;
}
);
unicode = 47;
userData = {
KernOnSpecialSpacing = {
L = slash;
R = slash;
};
};
}
{
color = 4;
glyphname = zero;
kernLeft = KO_zero;
kernRight = KO_zero;
layers = (
{
layerId = "DC44E50C-9AA1-421C-802C-D4D023281425";
shapes = (
{
closed = 1;
nodes = (
(464,-11,o),
(618,128,o),
(618,417,cs),
(618,598,o),
(545,711,o),
(400,711,cs),
(252,711,o),
(130,583,o),
(130,527,cs),
(130,513,o),
(137,504,o),
(151,504,cs),
(176,504,o),
(188,514,o),
(195,525,cs),
(248,605,o),
(320,646,o),
(400,646,cs),
(504,646,o),
(551,549,o),
(551,417,cs),
(551,182,o),
(444,55,o),
(317,55,cs),
(195,55,o),
(148,147,o),
(148,270,cs),
(148,397.586,o),
(207.686,511.311,o),
(278,566,cs),
(296,580,o),
(304,593,o),
(304,610,cs),
(304,634,o),
(295,639,o),
(278,639,cs),
(213.299,639,o),
(81,478.388,o),
(81,270,cs),
(81,74,o),
(187,-11,o),
(317,-11,cs)
);
}
);
vertWidth = 0;
width = 700;
},
{
layerId = "FA16BA0A-39E2-4955-BC33-721AB190E0D3";
shapes = (
{
closed = 1;
nodes = (
(483,-11,o),
(655,128,o),
(655,417,cs),
(655,599,o),
(578,711,o),
(400,711,cs),
(214,711,o),
(113,612,o),
(113,548,cs),
(113,492,o),
(158,446,o),
(208,446,cs),
(227,446,o),
(247,459,o),
(266,475,cs),
(301,505,o),
(330,539,o),
(400,539,cs),
(462,539,o),
(482,485,o),
(482,417,cs),
(482,251,o),
(398,160,o),
(321,160,cs),
(252,160,o),
(218,213,o),
(218,286,cs),
(218,373,o),
(236,440,o),
(298,497,cs),
(317,516,o),
(330,542,o),
(330,572,cs),
(330,609,o),
(312,623,o),
(266,623,cs),
(200,623,o),
(45,507,o),
(45,286,cs),
(45,79,o),
(154,-11,o),
(317,-11,cs)
);
}
);
vertWidth = 0;
width = 700;
},
{
layerId = "365BB766-143C-4A52-A3A9-25E29A0F4411";
shapes = (
{
closed = 1;
nodes = (
(419,79,o),
(568,189,o),
(568,417,cs),
(568,555,o),
(498,641,o),
(360,641,cs),
(212,641,o),
(90,520,o),
(90,467,cs),
(90,453,o),
(97,444,o),
(111,444,cs),
(136,444,o),
(148,454,o),
(155,465,cs),
(205,540,o),
(280,576,o),
(360,576,cs),
(457,576,o),
(501,509,o),
(501,417,cs),
(501,240,o),
(399,145,o),
(277,145,cs),
(177,145,o),
(138,207,o),
(138,290,cs),
(138,383,o),
(180,461,o),
(238,506,cs),
(256,520,o),
(264,533,o),
(264,550,cs),
(264,574,o),
(255,579,o),
(238,579,cs),
(183,579,o),
(71,453,o),
(71,290,cs),
(71,143,o),
(164,79,o),
(277,79,cs)
);
}
);
vertWidth = 0;
width = 639;
},
{
layerId = "5DCC2EB0-DF11-4824-93BF-E616AA6EE2C6";
shapes = (
{
closed = 1;
nodes = (
(458,39,o),
(627,159,o),
(627,407,cs),
(627,570,o),
(552,671,o),
(379,671,cs),
(199,671,o),
(102,566,o),
(102,498,cs),
(102,447,o),
(142,406,o),
(187,406,cs),
(206,406,o),
(226,419,o),
(245,435,cs),
(280,465,o),
(309,499,o),
(379,499,cs),
(435,499,o),
(454,463,o),
(454,417,cs),
(454,283,o),
(370,210,o),
(294,210,cs),
(239,210,o),
(213,241,o),
(213,294,cs),
(213,357,o),
(237,408,o),
(285,456,cs),
(305,476,o),
(313,494,o),
(313,519,cs),
(313,566,o),
(294,583,o),
(245,583,cs),
(184,583,o),
(40,474,o),
(40,276,cs),
(40,135,o),
(137,39,o),
(296,39,cs)
);
}
);
vertWidth = 0;
width = 677;
},
{
layerId = master01;
shapes = (
{
closed = 1;
nodes = (
(422,-11,o),
(592,111,o),
(642,367,cs),
(685,578,o),
(625,711,o),
(473,711,cs),
(331,711,o),
(190,589,o),
(178,535,cs),
(175,519,o),
(182,508,o),
(199,508,cs),
(224,508,o),
(238,518,o),
(247,529,cs),
(314,607,o),
(392,646,o),
(470,646,cs),
(574,646,o),
(609,531,o),
(577,377,cs),
(535,167,o),
(409,55,o),
(289,55,cs),
(165,55,o),
(131,161,o),
(159,300,cs),
(183,417,o),
(262,519,o),
(338,570,cs),
(359,584,o),
(370,597,o),
(373,614,cs),
(378,638,o),
(370,643,o),
(353,643,cs),
(291,643,o),
(132,498,o),
(94,310,cs),
(50,87,o),
(149,-11,o),
(286,-11,cs)
);
}
);
vertWidth = 0;
width = 700;
},
{
layerId = "FAD04859-55EE-48D6-A0AA-73DE2A79512F";
shapes = (
{
closed = 1;
nodes = (
(453.754,-11,o),
(632.702,101.7,o),
(687,377,cs),
(726.243,570.034,o),
(662.366,711,o),
(485,711,cs),
(293.202,711,o),
(178.013,612.069,o),
(166,548,cs),
(153.927,491.66,o),
(193.128,446,o),
(249.643,446,cs),
(265.78,446,o),
(284.106,460.531,o),
(304,475,cs),
(346.771,506.296,o),
(386.051,539,o),
(460.643,539,cs),
(521.824,539,o),
(534.179,475.584,o),
(518,397,cs),
(487.48,243.475,o),
(379.674,160,o),
(299.643,160,cs),
(231.962,160,o),
(207.853,221.807,o),
(224,306,cs),
(240.237,384.477,o),
(271.372,442.823,o),
(345,487,cs),
(367,500,o),
(383,528,o),
(387,549,cs),
(398,603,o),
(383,623,o),
(334,623,cs),
(269.238,623,o),
(96.281,533.345,o),
(55,326,cs),
(11.508,106.419,o),
(123,-11,o),
(288,-11,cs)
);
}
);
vertWidth = 0;
width = 707;
},
{
layerId = "0998268F-450B-429A-9175-FFA5E463F4E3";
shapes = (
{
closed = 1;
nodes = (
(433,84,o),
(586,173,o),
(625,372,cs),
(652,511,o),
(605,637,o),
(440,637,cs),
(303,637,o),
(175,545,o),
(165,498,cs),
(162,476,o),
(170,464,o),
(189,464,cs),
(209,464,o),
(221,471,o),
(229,481,cs),
(286,543,o),
(357,572,o),
(427,572,cs),
(555,572,o),
(577,472,o),
(559,379,cs),
(529,227,o),
(420,149,o),
(308,149,cs),
(192,149,o),
(162,234,o),
(182,328,cs),
(198,412,o),
(256,476,o),
(319,513,cs),
(343,528,o),
(354,544,o),
(354,567,cs),
(354,582,o),
(345,586,o),
(329,586,cs),
(274,586,o),
(145,482,o),
(116,335,cs),
(83,167,o),
(176,84,o),
(300,84,cs)
);
}
);
vertWidth = 0;
width = 700;
},
{
layerId = "60E1EE18-36F5-475C-BAEC-6556E4A9959C";
shapes = (
{
closed = 1;
nodes = (
(137,42,o),
(314,42,cs),
(490,42,o),
(629,152,o),
(669,354,cs),
(707,547,o),
(633,667,o),
(448,667,cs),
(325,667,o),
(173,602,o),
(173,501,cs),
(173,458,o),
(202,424,o),
(240,420,cs),
(259,418,o),
(281,429,o),
(303,443,cs),
(340,468,o),
(372,498,o),
(429,498,cs),
(498,498,o),
(513,442,o),
(499,375,cs),
(478,266,o),
(398,211,o),
(331,211,cs),
(261,211,o),
(238,264,o),
(248,316,cs),
(259,375,o),
(283,419,o),
(344,455,cs),
(376,475,o),
(389,504,o),
(389,543,cs),
(389,573,o),
(372,591,o),
(332,591,cs),
(248,591,o),
(114,532,o),
(78,348,cs),
(43,173,o)
);
}
);
vertWidth = 0;
width = 707;
}
);
unicode = 48;
}
{
color = 4;
glyphname = four;
kernLeft = KO_four;
kernRight = KO_four;
layers = (
{
layerId = "DC44E50C-9AA1-421C-802C-D4D023281425";
shapes = (
{
closed = 1;
nodes = (
(513,-11,o),
(525,5,o),
(525,33,cs),
(525,65,o),
(515,90,o),
(515,148,cs),
(515,298,o),
(562,403,o),
(562,545,cs),
(562,663,o),
(548,715,o),
(508,715,cs),
(403,715,o),
(198,546,o),
(107,329,cs),
(89,286,o),
(83,267,o),
(83,242,cs),
(83,199,o),
(116,170,o),
(168,170,cs),
(317,170,o),
(425,222,o),
(612,222,cs),
(645,222,o),
(659,233,o),
(659,249,cs),
(659,273,o),
(633,290,o),
(586,290,cs),
(410,290,o),
(304,236,o),
(175,236,cs),
(156,236,o),
(149,237,o),
(114,252,c),
(138,214,l),
(193,404,o),
(323,574,o),
(508,659,c),
(480,662,l),
(490,632,o),
(495,596,o),
(495,543,cs),
(495,396,o),
(448,277,o),
(448,157,cs),
(448,39,o),
(461,-11,o),
(495,-11,cs)
);
}
);
vertWidth = 0;
width = 700;
},
{
layerId = "FA16BA0A-39E2-4955-BC33-721AB190E0D3";
shapes = (
{
closed = 1;
nodes = (
(476,-11,o),
(512,13,o),
(512,53,cs),
(512,79,o),
(502,100,o),
(502,148,cs),
(502,312,o),
(551,427,o),
(551,581,cs),
(551,643,o),
(508,715,o),
(415,715,cs),
(341,715,o),
(182,614,o),
(73,437,cs),
(23,356,o),
(15,301,o),
(15,252,cs),
(15,204,o),
(61,147,o),
(132,147,cs),
(298,147,o),
(419,192,o),
(629,192,cs),
(674,192,o),
(692,221,o),
(692,259,cs),
(692,315,o),
(652,367,o),
(603,367,cs),
(429,367,o),
(322,323,o),
(193,323,cs),
(168,323,o),
(160,326,o),
(127,339,c),
(180,269,l),
(234,391,o),
(316,494,o),
(411,553,c),
(358,610,l),
(369,586,o),
(372,574,o),
(372,559,cs),
(372,461,o),
(327,315,o),
(327,157,cs),
(327,39,o),
(354,-11,o),
(422,-11,cs)
);
}
);
vertWidth = 0;
width = 700;
},
{
layerId = "365BB766-143C-4A52-A3A9-25E29A0F4411";
shapes = (
{
closed = 1;
nodes = (
(443,-61,o),
(455,-45,o),
(455,-17,cs),
(455,15,o),
(445,40,o),
(445,98,cs),
(445,275,o),
(492,398,o),
(492,565,cs),
(492,683,o),
(478,735,o),
(438,735,cs),
(338,735,o),
(151,554,o),
(57,329,cs),
(39,286,o),
(33,267,o),
(33,242,cs),
(33,199,o),
(66,170,o),
(118,170,cs),
(276.302,170,o),
(392.088,222,o),
(592,222,cs),
(625,222,o),
(639,233,o),
(639,249,cs),
(639,271,o),
(613,287,o),
(566,287,cs),
(377.385,287,o),
(263.318,236,o),
(125,236,cs),
(106,236,o),
(99,237,o),
(64,252,c),
(88,214,l),
(145,411,o),
(281,579,o),
(438,679,c),
(410,682,l),
(420,652,o),
(425,616,o),
(425,563,cs),
(425,389,o),
(378,249,o),
(378,107,cs),
(378,-11,o),
(391,-61,o),
(425,-61,cs)
);
}
);
vertWidth = 0;
width = 700;
},
{
layerId = "5DCC2EB0-DF11-4824-93BF-E616AA6EE2C6";
shapes = (
{
closed = 1;
nodes = (
(546,-86,o),
(582,-62,o),
(582,-22,cs),
(582,4,o),
(572,25,o),
(572,73,cs),
(572,312,o),
(621,481,o),
(621,706,cs),
(621,768,o),
(578,840,o),
(485,840,cs),
(400,840,o),
(247,687,o),
(93,437,cs),
(43,356,o),
(35,301,o),
(35,252,cs),
(35,204,o),
(81,147,o),
(152,147,cs),
(339,147,o),
(474,192,o),
(709,192,cs),
(754,192,o),
(772,221,o),
(772,259,cs),
(772,315,o),
(732,367,o),
(683,367,cs),
(483,367,o),
(362,323,o),
(213,323,cs),
(188,323,o),
(180,326,o),
(147,339,c),
(200,269,l),
(279,447,o),
(353,599,o),
(481,678,c),
(428,735,l),
(439,711,o),
(442,699,o),
(442,684,cs),
(442,537,o),
(397,318,o),
(397,82,cs),
(397,-36,o),
(424,-86,o),
(492,-86,cs)
);
}
);
vertWidth = 0;
width = 800;
},
{
layerId = master01;
shapes = (
{
closed = 1;
nodes = (
(463.387,-11,o),
(478.387,5,o),
(484.387,33,cs),
(490.387,65,o),
(485.387,90,o),
(497.387,148,cs),
(527.387,298,o),
(595.387,403,o),
(623.387,545,cs),
(647.387,663,o),
(643.387,715,o),
(603.387,715,cs),
(498.387,715,o),
(259.387,546,o),
(125.387,329,cs),
(98.387,286,o),
(88.387,267,o),
(83.387,242,cs),
(75.387,199,o),
(102.387,170,o),
(154.387,170,cs),
(303.387,170,o),
(421.387,222,o),
(608.387,222,cs),
(641.387,222,o),
(658.387,233,o),
(661.387,249,cs),
(666.387,273,o),
(643.387,290,o),
(596.387,290,cs),
(420.387,290,o),
(303.387,236,o),
(174.387,236,cs),
(155.387,236,o),
(148.387,237,o),
(116.387,252,c),
(133.387,214,l),
(226.387,404,o),
(390.387,574,o),
(592.387,659,c),
(564.387,662,l),
(568.387,632,o),
(566.387,596,o),
(556.387,543,cs),
(526.387,396,o),
(455.387,277,o),
(431.387,157,cs),
(408.387,39,o),
(411.387,-11,o),
(445.387,-11,cs)
);
}
);
vertWidth = 0;
width = 700;
},
{
layerId = "FAD04859-55EE-48D6-A0AA-73DE2A79512F";
shapes = (
{
closed = 1;
nodes = (
(432,-11,o),
(463.42,13,o),
(471.42,53,cs),
(476.42,79,o),
(470.42,100,o),
(480.42,148,cs),
(512.42,312,o),
(584.42,427,o),
(615.42,581,cs),
(628.42,643,o),
(599.42,715,o),
(506.42,715,cs),
(432.42,715,o),
(253.42,614,o),
(108.42,437,cs),
(42.42,356,o),
(23.42,301,o),
(13.42,252,cs),
(4.351,203.635,o),
(43.519,147,o),
(129,147,cs),
(288.576,147,o),
(413.546,192,o),
(615.42,192,cs),
(660.42,192,o),
(684.42,221,o),
(692.42,259,cs),
(703.42,315,o),
(673.42,367,o),
(624.42,367,cs),
(452.326,367,o),
(338.586,318,o),
(211,318,cs),
(186,318,o),
(178,321,o),
(148,334,c),
(187,264,l),
(265,386,o),
(368,489,o),
(475,548,c),
(428.42,610,l),
(434.42,586,o),
(435.42,574,o),
(432.42,559,cs),
(412.42,461,o),
(338.42,315,o),
(306.42,157,cs),
(283.42,39,o),
(310,-11,o),
(378,-11,cs)
);
}
);
vertWidth = 0;
width = 700;
},
{
layerId = "0998268F-450B-429A-9175-FFA5E463F4E3";
shapes = (
{
closed = 1;
nodes = (
(393,-61,o),
(408,-45,o),
(414,-17,cs),
(420,15,o),
(415,40,o),
(427,98,cs),
(462,275,o),
(524.387,398,o),
(557.387,565,cs),
(581.387,683,o),
(577.387,735,o),
(537.387,735,cs),
(437.387,735,o),
(214.387,554,o),
(75.387,329,cs),
(48.387,286,o),
(38.387,267,o),
(33.387,242,cs),
(25.387,199,o),
(52.387,170,o),
(104.387,170,cs),
(262.387,170,o),
(388.387,222,o),
(588.387,222,cs),
(621.387,222,o),
(638.387,233,o),
(641.387,249,cs),
(645.387,271,o),
(622.387,287,o),
(575.387,287,cs),
(387.387,287,o),
(263.387,236,o),
(124.387,236,cs),
(105.387,236,o),
(98.387,237,o),
(66.387,252,c),
(83.387,214,l),
(179.387,411,o),
(349.387,579,o),
(526.387,679,c),
(498.387,682,l),
(502.387,652,o),
(500.387,616,o),
(490.387,563,cs),
(455.387,389,o),
(390,249,o),
(361,107,cs),
(338,-11,o),
(341,-61,o),
(375,-61,cs)
);
}
);
vertWidth = 0;
width = 700;
},
{
layerId = "60E1EE18-36F5-475C-BAEC-6556E4A9959C";
shapes = (
{
closed = 1;
nodes = (
(487,-86,o),
(518.42,-62,o),
(526.42,-22,cs),
(531.42,4,o),
(525.42,25,o),
(535.42,73,cs),
(582.42,312,o),
(663,461,o),
(708,686,cs),
(721,748,o),
(694.42,840,o),
(601.42,840,cs),
(518.141,840,o),
(337.346,691.297,o),
(138,447,cs),
(68.232,361.375,o),
(44.256,308.253,o),
(34,258,cs),
(24.504,207.357,o),
(58.849,147,o),
(129.42,147,cs),
(316.42,147,o),
(460.42,192,o),
(695.42,192,cs),
(740.42,192,o),
(764.42,221,o),
(772.42,259,cs),
(783.42,315,o),
(753.42,367,o),
(704.42,367,cs),
(504.42,367,o),
(375.42,323,o),
(226.42,323,cs),
(201.42,323,o),
(193.42,326,o),
(163.42,339,c),
(202.42,269,l),
(319.198,451.338,o),
(441.9,594.008,o),
(595,678,c),
(523.42,735,l),
(529.42,711,o),
(530.42,699,o),
(527.42,684,cs),
(497.42,537,o),
(409.42,318,o),
(361.42,82,cs),
(338.42,-36,o),
(365,-86,o),
(433,-86,cs)
);
}
);
vertWidth = 0;
width = 800;
}
);
unicode = 52;
}
{
color = 4;
glyphname = five;
layers = (
{
layerId = "365BB766-143C-4A52-A3A9-25E29A0F4411";
shapes = (
{
closed = 1;
nodes = (
(414,-62,o),
(544,69.541,o),
(544,233,cs),
(544,313.497,o),
(501.428,375.913,o),
(324,412,cs),
(152,448,o),
(147,457,o),
(147,489,cs),
(147,537.734,o),
(155.278,611.013,o),
(203,716,c),
(143,685,l),
(295.529,682.085,o),
(355.761,701,o),
(484,701,cs),
(513,701,o),
(528,709,o),
(528,728,cs),
(528,748,o),
(511,766,o),
(458,766,cs),
(361.509,766,o),
(312.298,750,o),
(183,750,cs),
(152,750,o),
(133,733,o),
(120,691,cs),
(91.547,595.103,o),
(80,531.709,o),
(80,483,cs),
(80,414,o),
(93,394,o),
(288,354,cs),
(397.421,330.911,o),
(477,299.652,o),
(477,229,cs),
(477,87.271,o),
(357,3,o),
(202,3,cs),
(123,3,o),
(137,61,o),
(100,61,cs),
(80,61,o),
(68,48,o),
(68,28,cs),
(68,-23,o),
(117,-62,o),
(215,-62,cs)
);
}
);
vertWidth = 0;
width = 609;
},
{
layerId = "5DCC2EB0-DF11-4824-93BF-E616AA6EE2C6";
shapes = (
{
closed = 1;
nodes = (
(436,-42,o),
(590,73.263,o),
(590,237,cs),
(590,357.954,o),
(544.453,418.922,o),
(330,456,cs),
(226,472,o),
(221,485,o),
(221,507,cs),
(221,532.606,o),
(225.94,556.791,o),
(251,608,c),
(169,561,l),
(325,559,o),
(387,573,o),
(511,573,cs),
(556,573,o),
(582,597,o),
(582,638,cs),
(582,698,o),
(539,746,o),
(453,746,cs),
(343.197,746,o),
(294,730,o),
(162,730,cs),
(109,730,o),
(91.012,713.04,o),
(80,677,cs),
(55.117,603.389,o),
(44,544.571,o),
(44,497,cs),
(44,382,o),
(81,344,o),
(314,302,cs),
(396.059,287.817,o),
(406,265.805,o),
(406,235,cs),
(406,166.126,o),
(284,128,o),
(192,128,cs),
(134,128,o),
(130,165,o),
(95,165,cs),
(50,165,o),
(28,131,o),
(28,88,cs),
(28,10,o),
(82,-42,o),
(201,-42,cs)
);
}
);
vertWidth = 0;
width = 629;
},
{
layerId = master01;
shapes = (
{
closed = 1;
nodes = (
(370.955,-12,o),
(513.376,96.689,o),
(541,231,cs),
(557.017,312.154,o),
(524.873,376.389,o),
(356.709,412,cs),
(192.709,448,o),
(188.709,457,o),
(195.709,489,cs),
(202.709,527,o),
(224.709,586,o),
(276.709,666,c),
(210.709,635,l),
(366.709,632,o),
(432.709,651,o),
(564.709,651,cs),
(593.709,651,o),
(610.709,659,o),
(614.709,678,cs),
(618.709,698,o),
(604.709,716,o),
(551.709,716,cs),
(451.709,716,o),
(397.709,700,o),
(263.709,700,cs),
(232.709,700,o),
(210.709,683,o),
(188.709,641,cs),
(156.293,576.169,o),
(138.471,529.205,o),
(132,495,cs),
(116.762,419.897,o),
(126.157,393.262,o),
(309.709,354,cs),
(413.709,331,o),
(488.709,304,o),
(475.709,239,cs),
(451.77,122.298,o),
(329,53,o),
(184,53,cs),
(73.731,53,o),
(106.599,104,o),
(66,104,cs),
(49.771,104,o),
(37.866,93.786,o),
(34.709,78,cs),
(23.626,26.617,o),
(70.585,-12,o),
(184,-12,cs)
);
}
);
vertWidth = 0;
width = 609;
},
{
layerId = "FAD04859-55EE-48D6-A0AA-73DE2A79512F";
shapes = (
{
closed = 1;
nodes = (
(405.068,-12,o),
(552.126,75.639,o),
(582,227,cs),
(605,342,o),
(576.165,419,o),
(369.165,456,cs),
(268.165,472,o),
(266.165,485,o),
(270.165,507,cs),
(274.165,525,o),
(283.165,543,o),
(307.165,578,c),
(223.165,531,l),
(379.165,529,o),
(444.165,543,o),
(577.165,543,cs),
(613.165,543,o),
(642.165,567,o),
(651.165,603,cs),
(665.165,662,o),
(630.165,716,o),
(544.165,716,cs),
(431.165,716,o),
(373.165,700,o),
(221.165,700,cs),
(185.165,700,o),
(168.165,683,o),
(149.165,647,cs),
(117.165,587,o),
(99.165,537,o),
(91.165,497,cs),
(68.165,382,o),
(98.165,344,o),
(322.165,302,cs),
(401.165,288,o),
(408.165,271,o),
(403.165,245,cs),
(392.23,189.329,o),
(288.135,158,o),
(212,158,cs),
(128.329,158,o),
(132.657,195,o),
(82.165,195,cs),
(37.165,195,o),
(9,172,o),
(1,129,cs),
(-15,50,o),
(37.658,-12,o),
(197,-12,cs)
);
}
);
vertWidth = 0;
width = 629;
},
{
layerId = "0998268F-450B-429A-9175-FFA5E463F4E3";
shapes = (
{
closed = 1;
nodes = (
(367,-62,o),
(507,58,o),
(540,220,cs),
(556,300,o),
(527.709,376,o),
(356.709,412,cs),
(192.709,448,o),
(188.709,457,o),
(195.709,489,cs),
(205.709,538,o),
(227.709,611,o),
(296.709,716,c),
(230.709,685,l),
(382.709,682,o),
(446.709,701,o),
(574.709,701,cs),
(603.709,701,o),
(620.709,709,o),
(624.709,728,cs),
(628.709,748,o),
(614.709,766,o),
(561.709,766,cs),
(465.709,766,o),
(412.709,750,o),
(283.709,750,cs),
(252.709,750,o),
(230.709,733,o),
(208.709,691,cs),
(161.709,595,o),
(140,542,o),
(131,493,cs),
(117,424,o),
(122.709,394,o),
(309.709,354,cs),
(414.709,331,o),
(487.709,300,o),
(473.709,229,cs),
(445,88,o),
(324,3,o),
(184,3,cs),
(73,3,o),
(108,55,o),
(57,55,cs),
(41,55,o),
(30,44,o),
(28,31,cs),
(19,-11,o),
(69,-62,o),
(184,-62,cs)
);
}
);
vertWidth = 0;
width = 609;
},
{
layerId = "60E1EE18-36F5-475C-BAEC-6556E4A9959C";
shapes = (
{
closed = 1;
nodes = (
(399.637,-42,o),
(546,44,o),
(578,203,cs),
(603,323,o),
(558,424,o),
(368,457,cs),
(268,474,o),
(265.923,487.574,o),
(270,510,cs),
(276,536,o),
(285,560,o),
(321,611,c),
(229.165,561,l),
(385.165,559,o),
(450.165,573,o),
(574.165,573,cs),
(619.165,573,o),
(649.165,597,o),
(658.165,638,cs),
(670.165,698,o),
(636.165,746,o),
(550.165,746,cs),
(440.165,746,o),
(388.165,730,o),
(256.165,730,cs),
(203.165,730,o),
(182.165,713,o),
(163.165,677,cs),
(128.059,610.388,o),
(104.911,559.774,o),
(96,517,cs),
(70.521,389.603,o),
(101.992,341.187,o),
(319,301,cs),
(403,286,o),
(406,254,o),
(400,223,cs),
(386,156,o),
(311.545,124,o),
(203,124,cs),
(122.318,124,o),
(116.939,154,o),
(61,154,cs),
(28,154,o),
(3,136,o),
(-5,98,cs),
(-21.037,21.822,o),
(35.043,-42,o),
(191,-42,cs)
);
}
);
vertWidth = 0;
width = 629;
},
{
associatedMasterId = "FA16BA0A-39E2-4955-BC33-721AB190E0D3";
layerId = "87234B38-16F4-4CA1-8928-84317B013084";
name = bg;
shapes = (
{
closed = 1;
nodes = (
(438,543,o),
(362,524,o),
(170,527,c),
(239,578,l),
(225,549,o),
(222,537,o),
(222,517,cs),
(222,495,o),
(231,489,o),
(381,466,cs),
(595,429,o),
(641,372,o),
(641,257,cs),
(641,99,o),
(483,-12,o),
(242,-12,cs),
(123,-12,o),
(69,40,o),
(69,118,cs),
(69,161,o),
(91,195,o),
(136,195,cs),
(171,195,o),
(175,158,o),
(233,158,cs),
(329,158,o),
(457,193,o),
(457,255,cs),
(457,281,o),
(446,298,o),
(365,312,cs),
(90,361,o),
(45,392,o),
(45,507,cs),
(45,544,o),
(54,591,o),
(73,647,cs),
(84,683,o),
(98,700,o),
(134,700,cs),
(324,700,o),
(392,716,o),
(534,716,cs),
(620,716,o),
(666,662,o),
(663,603,cs),
(662,567,o),
(637,543,o),
(601,543,cs)
);
}
);
vertWidth = 0;
width = 629;
},
{
associatedMasterId = "5DCC2EB0-DF11-4824-93BF-E616AA6EE2C6";
layerId = "E61385E5-7ADA-4F99-8C00-F0CD171F640D";
name = bg;
shapes = (
{
closed = 1;
nodes = (
(438,543,o),
(362,524,o),
(170,527,c),
(239,578,l),
(225,549,o),
(222,537,o),
(222,517,cs),
(222,495,o),
(231,489,o),
(381,466,cs),
(595,429,o),
(641,372,o),
(641,257,cs),
(641,99,o),
(483,-12,o),
(242,-12,cs),
(123,-12,o),
(69,40,o),
(69,118,cs),
(69,161,o),
(91,195,o),
(136,195,cs),
(171,195,o),
(175,158,o),
(233,158,cs),
(329,158,o),
(457,193,o),
(457,255,cs),
(457,281,o),
(446,298,o),
(365,312,cs),
(90,361,o),
(45,392,o),
(45,507,cs),
(45,544,o),
(54,591,o),
(73,647,cs),
(84,683,o),
(98,700,o),
(134,700,cs),
(324,700,o),
(392,716,o),
(534,716,cs),
(620,716,o),
(666,662,o),
(663,603,cs),
(662,567,o),
(637,543,o),
(601,543,cs)
);
}
);
vertWidth = 0;
width = 629;
},
{
associatedMasterId = "DC44E50C-9AA1-421C-802C-D4D023281425";
layerId = "E4723779-57E6-4139-BFC9-79B504BBEC01";
name = "Aug 11, 22, 18:04";
shapes = (
{
closed = 1;
nodes = (
(512,-12,o),
(634,102,o),
(634,243,cs),
(634,319,o),
(593,397,o),
(347,414,cs),
(144,429,o),
(147,457,o),
(147,489,cs),
(147,527,o),
(157,586,o),
(193,666,c),
(133,635,l),
(321,632,o),
(396,648,o),
(554,648,cs),
(583,648,o),
(598,656,o),
(598,675,cs),
(598,695,o),
(581,713,o),
(528,713,cs),
(403,713,o),
(340,700,o),
(173,700,cs),
(142,700,o),
(123,683,o),
(110,641,cs),
(89,571,o),
(80,520,o),
(80,483,cs),
(80,414,o),
(94,369,o),
(329,352,cs),
(494,339,o),
(567,304,o),
(567,239,cs),
(567,122,o),
(456,53,o),
(312,53,cs),
(100,53,o),
(158,151,o),
(100,151,cs),
(80,151,o),
(68,138,o),
(68,118,cs),
(68,44,o),
(154,-12,o),
(325,-12,cs)
);
}
);
vertWidth = 0;
width = 700;
},
{
layerId = "DC44E50C-9AA1-421C-802C-D4D023281425";
name = Light;
shapes = (
{
closed = 1;
nodes = (
(414,-12,o),
(544,102,o),
(544,243,cs),
(544,319,o),
(501,376,o),
(324,412,cs),
(152,448,o),
(147,457,o),
(147,489,cs),
(147,527,o),
(157,586,o),
(193,666,c),
(133,635,l),
(290,632,o),
(352,651,o),
(484,651,cs),
(513,651,o),
(528,659,o),
(528,678,cs),
(528,698,o),
(511,716,o),
(458,716,cs),
(358,716,o),
(307,700,o),
(173,700,cs),
(142,700,o),
(123,683,o),
(110,641,cs),
(89,571,o),
(80,520,o),
(80,483,cs),
(80,414,o),
(93,394,o),
(288,354,cs),
(397,331,o),
(477,304,o),
(477,239,cs),
(477,122,o),
(357,53,o),
(202,53,cs),
(123,53,o),
(137,111,o),
(100,111,cs),
(80,111,o),
(68,98,o),
(68,78,cs),
(68,27,o),
(117,-12,o),
(215,-12,cs)
);
}
);
vertWidth = 0;
width = 609;
},
{
associatedMasterId = "FA16BA0A-39E2-4955-BC33-721AB190E0D3";
layerId = "F65839B0-62EE-44B1-8445-0BD86020E04F";
name = "Aug 11, 22, 18:04";
shapes = (
{
closed = 1;
nodes = (
(504,-12,o),
(650,95,o),
(650,247,cs),
(650,362,o),
(588,432,o),
(323,456,cs),
(218,464,o),
(221,485,o),
(221,507,cs),
(221,525,o),
(226.004,542.945,o),
(243,578,c),
(169,531,l),
(356,529,o),
(430,543,o),
(590,543,cs),
(632,543,o),
(661,571,o),
(662,613,cs),
(664,658,o),
(616,716,o),
(523,716,cs),
(385,716,o),
(318,700,o),
(133,700,cs),
(97,700,o),
(83,683,o),
(72,647,cs),
(51.779,587.4,o),
(44,536.643,o),
(44,497,cs),
(44,382,o),
(84,324,o),
(320,301,cs),
(453,289,o),
(466,271,o),
(466,245,cs),
(466,189,o),
(355,158,o),
(272,158,cs),
(166,158,o),
(159,195,o),
(95,195,cs),
(50,195,o),
(28,161,o),
(28,118,cs),
(28,40,o),
(107,-12,o),
(281,-12,cs)
);
}
);
vertWidth = 0;
width = 700;
},
{
layerId = "FA16BA0A-39E2-4955-BC33-721AB190E0D3";
name = ExtraBold;
shapes = (
{
closed = 1;
nodes = (
(436,-12,o),
(590,94.874,o),
(590,247,cs),
(590,362,o),
(544,419,o),
(330,456,cs),
(226,472,o),
(221,485,o),
(221,507,cs),
(221,525,o),
(226.004,542.945,o),
(243,578,c),
(169,531,l),
(324.994,529,o),
(387,543,o),
(520,543,cs),
(556,543,o),
(581,567,o),
(582,603,cs),
(585,662,o),
(539,716,o),
(453,716,cs),
(340,716,o),
(285,700,o),
(133,700,cs),
(97,700,o),
(83,683,o),
(72,647,cs),
(51.779,587.4,o),
(44,536.643,o),
(44,497,cs),
(44,382,o),
(81,344,o),
(314,302,cs),
(395,288,o),
(406,271,o),
(406,245,cs),
(406,189.392,o),
(284,158,o),
(192,158,cs),
(134,158,o),
(130,195,o),
(95,195,cs),
(50,195,o),
(28,161,o),
(28,118,cs),
(28,40,o),
(82,-12,o),
(201,-12,cs)
);
}
);
vertWidth = 0;
width = 629;
}
);
unicode = 53;
}
{
color = 4;
glyphname = colon;
layers = (
{
layerId = "DC44E50C-9AA1-421C-802C-D4D023281425";
shapes = (
{
closed = 1;
nodes = (
(183,366,o),
(199,392,o),
(199,417,cs),
(199,454,o),
(174,495,o),
(128,495,cs),
(90,495,o),
(74,473,o),
(74,443,cs),
(74,398,o),
(104,366,o),
(142,366,cs)
);
},
{
closed = 1;
nodes = (
(183,-10,o),
(199,16,o),
(199,41,cs),
(199,76,o),
(174,119,o),
(132,119,cs),
(101,119,o),
(74,95,o),
(74,61,cs),
(74,25,o),
(105,-10,o),
(142,-10,cs)
);
}
);
vertWidth = 0;
width = 270;
},
{
layerId = "FA16BA0A-39E2-4955-BC33-721AB190E0D3";
shapes = (
{
closed = 1;
nodes = (
(240,315,o),
(280,358.315,o),
(280,408,cs),
(280,468.857,o),
(241.828,528,o),
(145,528,cs),
(87.468,528,o),
(41,494,o),
(41,432,cs),
(41,356,o),
(86,315,o),
(163,315,cs)
);
},
{
closed = 1;
nodes = (
(243,-14,o),
(280,29.315,o),
(280,79,cs),
(280,139.857,o),
(240.697,199,o),
(141,199,cs),
(85.681,199,o),
(41,165,o),
(41,103,cs),
(41,27,o),
(89,-14,o),
(173,-14,cs)
);
}
);
vertWidth = 0;
width = 320;
},
{
layerId = "365BB766-143C-4A52-A3A9-25E29A0F4411";
shapes = (
{
closed = 1;
nodes = (
(183,366,o),
(199,392,o),
(199,417,cs),
(199,454,o),
(174,495,o),
(128,495,cs),
(90,495,o),
(74,473,o),
(74,443,cs),
(74,398,o),
(104,366,o),
(142,366,cs)
);
},
{
closed = 1;
nodes = (
(183,-10,o),
(199,16,o),
(199,41,cs),
(199,76,o),
(174,119,o),
(132,119,cs),
(101,119,o),
(74,95,o),
(74,61,cs),
(74,25,o),
(105,-10,o),
(142,-10,cs)
);
}
);
vertWidth = 0;
width = 270;
},
{
layerId = "5DCC2EB0-DF11-4824-93BF-E616AA6EE2C6";
shapes = (
{
closed = 1;
nodes = (
(240,315,o),
(280,358.315,o),
(280,408,cs),
(280,468.857,o),
(241.828,528,o),
(145,528,cs),
(87.468,528,o),
(41,494,o),
(41,432,cs),
(41,356,o),
(86,315,o),
(163,315,cs)
);
},
{
closed = 1;
nodes = (
(243,-14,o),
(280,29.315,o),
(280,79,cs),
(280,139.857,o),
(240.697,199,o),
(141,199,cs),
(85.681,199,o),
(41,165,o),
(41,103,cs),
(41,27,o),
(89,-14,o),
(173,-14,cs)
);
}
);
vertWidth = 0;
width = 320;
},
{
layerId = master01;
shapes = (
{
closed = 1;
nodes = (
(207.213,366,o),
(228.213,392,o),
(233.213,417,cs),
(241.213,454,o),
(224.213,495,o),
(178.213,495,cs),
(140.213,495,o),
(120.213,473,o),
(114.213,443,cs),
(105.213,398,o),
(128.213,366,o),
(166.213,366,cs)
);
},
{
closed = 1;
nodes = (
(132.213,-10,o),
(153.213,16,o),
(158.213,41,cs),
(165.213,76,o),
(149.213,119,o),
(107.213,119,cs),
(76.213,119,o),
(44.213,95,o),
(37.213,61,cs),
(30.213,25,o),
(54.213,-10,o),
(91.213,-10,cs)
);
}
);
vertWidth = 0;
width = 270;
},
{
layerId = "FAD04859-55EE-48D6-A0AA-73DE2A79512F";
shapes = (
{
closed = 1;
nodes = (
(251.464,315,o),
(300.464,358,o),
(310.464,408,cs),
(322.464,469,o),
(295.464,528,o),
(199.464,528,cs),
(141.464,528,o),
(88.464,494,o),
(75.464,432,cs),
(60.464,356,o),
(97.464,315,o),
(174.464,315,cs)
);
},
{
closed = 1;
nodes = (
(188.464,-14,o),
(234.464,29,o),
(244.464,79,cs),
(256.464,140,o),
(228.464,199,o),
(129.464,199,cs),
(73.464,199,o),
(22.464,165,o),
(10.464,103,cs),
(-5.536,27,o),
(34.464,-14,o),
(118.464,-14,cs)
);
}
);
vertWidth = 0;
width = 320;
},
{
layerId = "0998268F-450B-429A-9175-FFA5E463F4E3";
shapes = (
{
closed = 1;
nodes = (
(207.213,366,o),
(228.213,392,o),
(233.213,417,cs),
(241.213,454,o),
(224.213,495,o),
(178.213,495,cs),
(140.213,495,o),
(120.213,473,o),
(114.213,443,cs),
(105.213,398,o),
(128.213,366,o),
(166.213,366,cs)
);
},
{
closed = 1;
nodes = (
(132.213,-10,o),
(153.213,16,o),
(158.213,41,cs),
(165.213,76,o),
(149.213,119,o),
(107.213,119,cs),
(76.213,119,o),
(44.213,95,o),
(37.213,61,cs),
(30.213,25,o),
(54.213,-10,o),
(91.213,-10,cs)
);
}
);
vertWidth = 0;
width = 270;
},
{
layerId = "60E1EE18-36F5-475C-BAEC-6556E4A9959C";
shapes = (
{
closed = 1;
nodes = (
(251.464,315,o),
(300.464,358,o),
(310.464,408,cs),
(322.464,469,o),
(295.464,528,o),
(199.464,528,cs),
(141.464,528,o),
(88.464,494,o),
(75.464,432,cs),
(60.464,356,o),
(97.464,315,o),
(174.464,315,cs)
);
},
{
closed = 1;
nodes = (
(188.464,-14,o),
(234.464,29,o),
(244.464,79,cs),
(256.464,140,o),
(228.464,199,o),
(129.464,199,cs),
(73.464,199,o),
(22.464,165,o),
(10.464,103,cs),
(-5.536,27,o),
(34.464,-14,o),
(118.464,-14,cs)
);
}
);
vertWidth = 0;
width = 320;
}
);
unicode = 58;
userData = {
KernOnSpecialSpacing = {
L = "spaced-off";
R = "spaced-off";
};
};
}
{
color = 4;
glyphname = semicolon;
layers = (
{
layerId = "DC44E50C-9AA1-421C-802C-D4D023281425";
shapes = (
{
closed = 1;
nodes = (
(183,367,o),
(199,393,o),
(199,418,cs),
(199,453,o),
(174,496,o),
(132,496,cs),
(101,496,o),
(74,472,o),
(74,438,cs),
(74,402,o),
(105,367,o),
(142,367,cs)
);
},
{
pos = (36,0);
ref = comma;
}
);
vertWidth = 0;
width = 270;
},
{
layerId = "FA16BA0A-39E2-4955-BC33-721AB190E0D3";
shapes = (
{
closed = 1;
nodes = (
(236.581,335,o),
(280,378.315,o),
(280,428,cs),
(280,478.833,o),
(250.31,528,o),
(175,528,cs),
(100.872,528,o),
(41,490.458,o),
(41,422,cs),
(41,363.701,o),
(78.639,335,o),
(153,335,cs)
);
},
{
ref = comma;
}
);
vertWidth = 0;
width = 318;
},
{
layerId = "365BB766-143C-4A52-A3A9-25E29A0F4411";
shapes = (
{
closed = 1;
nodes = (
(183,367,o),
(199,393,o),
(199,418,cs),
(199,453,o),
(174,496,o),
(132,496,cs),
(101,496,o),
(74,472,o),
(74,438,cs),
(74,402,o),
(105,367,o),
(142,367,cs)
);
},
{
pos = (36,0);
ref = comma;
}
);
vertWidth = 0;
width = 270;
},
{
layerId = "5DCC2EB0-DF11-4824-93BF-E616AA6EE2C6";
shapes = (
{
closed = 1;
nodes = (
(236.581,335,o),
(280,378.315,o),
(280,428,cs),
(280,478.833,o),
(250.31,528,o),
(175,528,cs),
(100.872,528,o),
(41,490.458,o),
(41,422,cs),
(41,363.701,o),
(78.639,335,o),
(153,335,cs)
);
},
{
ref = comma;
}
);
vertWidth = 0;
width = 318;
},
{
layerId = master01;
shapes = (
{
closed = 1;
nodes = (
(207.624,367,o),
(229.624,393,o),
(234.624,418,cs),
(241.624,453,o),
(224.624,496,o),
(182.624,496,cs),
(151.624,496,o),
(119.624,472,o),
(113.624,438,cs),
(105.624,402,o),
(129.624,367,o),
(166.624,367,cs)
);
},
{
pos = (40.831,0);
ref = comma;
}
);
vertWidth = 0;
width = 270;
},
{
layerId = "FAD04859-55EE-48D6-A0AA-73DE2A79512F";
shapes = (
{
closed = 1;
nodes = (
(252.337,335,o),
(304.337,378,o),
(314.337,428,cs),
(324.337,479,o),
(304.337,528,o),
(229.337,528,cs),
(154.337,528,o),
(87.337,490,o),
(73.337,422,cs),
(62.337,364,o),
(94.337,335,o),
(168.337,335,cs)
);
},
{
pos = (-2.463,0);
ref = comma;
}
);
vertWidth = 0;
width = 318;
},
{
layerId = "0998268F-450B-429A-9175-FFA5E463F4E3";
shapes = (
{
closed = 1;
nodes = (
(207.624,367,o),
(229.624,393,o),
(234.624,418,cs),
(241.624,453,o),
(224.624,496,o),
(182.624,496,cs),
(151.624,496,o),
(119.624,472,o),
(113.624,438,cs),
(105.624,402,o),
(129.624,367,o),
(166.624,367,cs)
);
},
{
pos = (40.831,0);
ref = comma;
}
);
vertWidth = 0;
width = 270;
},
{
layerId = "60E1EE18-36F5-475C-BAEC-6556E4A9959C";
shapes = (
{
closed = 1;
nodes = (
(252.337,335,o),
(304.337,378,o),
(314.337,428,cs),
(324.337,479,o),
(304.337,528,o),
(229.337,528,cs),
(154.337,528,o),
(87.337,490,o),
(73.337,422,cs),
(62.337,364,o),
(94.337,335,o),
(168.337,335,cs)
);
},
{
pos = (-2.463,0);
ref = comma;
}
);
vertWidth = 0;
width = 318;
}
);
unicode = 59;
userData = {
KernOnSpecialSpacing = {
L = "spaced-off";
R = "spaced-off";
};
};
}
{
color = 4;
glyphname = question;
kernLeft = KO_question;
kernRight = KO_question;
layers = (
{
background = {
shapes = (
{
closed = 0;
nodes = (
(100,631,l),
(139,651,o),
(207,665,o),
(257,665,cs),
(362,665,o),
(421,624,o),
(421,554,cs),
(421,512,o),
(413,482,o),
(336,411,cs),
(248,328,o),
(235,301,o),
(235,273,cs),
(235,242,o),
(253,214,o),
(287,188,c)
);
},
{
closed = 0;
nodes = (
(100,631,l),
(139,651,o),
(207,665,o),
(257,665,cs),
(362,665,o),
(421,624,o),
(421,560,cs),
(421,517,o),
(408,483,o),
(336,427,cs),
(247,357,o),
(235,331,o),
(235,300,cs),
(235,271,o),
(253,245,o),
(287,221,c)
);
}
);
};
layerId = "DC44E50C-9AA1-421C-802C-D4D023281425";
shapes = (
{
closed = 1;
nodes = (
(272,216,o),
(283,227,o),
(283,242,cs),
(283,281,o),
(231,281,o),
(231,325,cs),
(231,350,o),
(239,369,o),
(314,420,cs),
(405,484,o),
(417,527,o),
(417,577,cs),
(417,656,o),
(358,720,o),
(219,720,cs),
(164,720,o),
(89,704,o),
(46,682,cs),
(35,676,o),
(28,664,o),
(28,652,cs),
(28,633,o),
(42,618,o),
(62,618,cs),
(95,618,o),
(132,652,o),
(219,652,cs),
(312,652,o),
(349,625,o),
(349,577,cs),
(349,543,o),
(338,520,o),
(278,476,cs),
(165,396,o),
(161,357,o),
(161,321,cs),
(161,264,o),
(210,216,o),
(256,216,cs)
);
},
{
closed = 1;
nodes = (
(286,-10,o),
(300,16,o),
(300,41,cs),
(300,78,o),
(279,113,o),
(225,113,cs),
(198,113,o),
(175,91,o),
(175,61,cs),
(175,16,o),
(209,-10,o),
(250,-10,cs)
);
}
);
userData = {
com.typemytype.robofont.Image.Brightness = 0;
com.typemytype.robofont.Image.Contrast = 1;
com.typemytype.robofont.Image.Saturation = 1;
com.typemytype.robofont.Image.Sharpness = 0.4;
};
vertWidth = 0;
width = 442;
},
{
layerId = "FA16BA0A-39E2-4955-BC33-721AB190E0D3";
shapes = (
{
closed = 1;
nodes = (
(310,231,o),
(331,259,o),
(331,283,cs),
(331,305,o),
(314,319,o),
(314,327,cs),
(314,336,o),
(327,345,o),
(396,379,cs),
(459,408,o),
(510,454,o),
(510,533,cs),
(510,651,o),
(420,720,o),
(251,720,cs),
(189,720,o),
(107,705,o),
(56,678,cs),
(23,661,o),
(7,636,o),
(7,599,cs),
(7,543,o),
(44,516,o),
(90,516,cs),
(136,516,o),
(162,550,o),
(262,550,cs),
(312,550,o),
(330,540,o),
(330,523,cs),
(330,509,o),
(323,497,o),
(257,469,cs),
(170,432,o),
(144,394,o),
(144,350,cs),
(144,287,o),
(191,231,o),
(268,231,cs)
);
},
{
closed = 1;
nodes = (
(320,-13,o),
(353,18,o),
(353,67,cs),
(353,117,o),
(315,165,o),
(233,165,cs),
(180,165,o),
(144,136,o),
(144,76,cs),
(144,19,o),
(186,-13,o),
(256,-13,cs)
);
}
);
vertWidth = 0;
width = 541;
},
{
background = {
shapes = (
{
closed = 0;
nodes = (
(100,631,l),
(139,651,o),
(207,665,o),
(257,665,cs),
(362,665,o),
(421,624,o),
(421,554,cs),
(421,512,o),
(413,482,o),
(336,411,cs),
(248,328,o),
(235,301,o),
(235,273,cs),
(235,242,o),
(253,214,o),
(287,188,c)
);
},
{
closed = 0;
nodes = (
(100,631,l),
(139,651,o),
(207,665,o),
(257,665,cs),
(362,665,o),
(421,624,o),
(421,560,cs),
(421,517,o),
(408,483,o),
(336,427,cs),
(247,357,o),
(235,331,o),
(235,300,cs),
(235,271,o),
(253,245,o),
(287,221,c)
);
}
);
};
layerId = "365BB766-143C-4A52-A3A9-25E29A0F4411";
shapes = (
{
closed = 1;
nodes = (
(272,216,o),
(283,227,o),
(283,242,cs),
(283,281,o),
(231,281,o),
(231,325,cs),
(231,350,o),
(239,369,o),
(314,420,cs),
(405,484,o),
(417,527,o),
(417,577,cs),
(417,656,o),
(358,720,o),
(219,720,cs),
(164,720,o),
(89,704,o),
(46,682,cs),
(35,676,o),
(28,664,o),
(28,652,cs),
(28,633,o),
(42,618,o),
(62,618,cs),
(95,618,o),
(132,652,o),
(219,652,cs),
(312,652,o),
(349,625,o),
(349,577,cs),
(349,543,o),
(338,520,o),
(278,476,cs),
(165,396,o),
(161,357,o),
(161,321,cs),
(161,264,o),
(210,216,o),
(256,216,cs)
);
},
{
closed = 1;
nodes = (
(286,-10,o),
(300,16,o),
(300,41,cs),
(300,78,o),
(279,113,o),
(225,113,cs),
(198,113,o),
(175,91,o),
(175,61,cs),
(175,16,o),
(209,-10,o),
(250,-10,cs)
);
}
);
userData = {
com.typemytype.robofont.Image.Brightness = 0;
com.typemytype.robofont.Image.Contrast = 1;
com.typemytype.robofont.Image.Saturation = 1;
com.typemytype.robofont.Image.Sharpness = 0.4;
};
vertWidth = 0;
width = 462;
},
{
layerId = "5DCC2EB0-DF11-4824-93BF-E616AA6EE2C6";
shapes = (
{
closed = 1;
nodes = (
(310,231,o),
(331,259,o),
(331,283,cs),
(331,305,o),
(314,319,o),
(314,327,cs),
(314,336,o),
(327,345,o),
(396,379,cs),
(459,408,o),
(510,454,o),
(510,533,cs),
(510,651,o),
(420,720,o),
(251,720,cs),
(189,720,o),
(107,705,o),
(56,678,cs),
(23,661,o),
(7,636,o),
(7,599,cs),
(7,543,o),
(44,516,o),
(90,516,cs),
(136,516,o),
(162,550,o),
(262,550,cs),
(312,550,o),
(330,540,o),
(330,523,cs),
(330,509,o),
(323,497,o),
(257,469,cs),
(170,432,o),
(144,394,o),
(144,350,cs),
(144,287,o),
(191,231,o),
(268,231,cs)
);
},
{
closed = 1;
nodes = (
(320,-13,o),
(353,18,o),
(353,67,cs),
(353,117,o),
(315,165,o),
(233,165,cs),
(180,165,o),
(144,136,o),
(144,76,cs),
(144,19,o),
(186,-13,o),
(256,-13,cs)
);
}
);
vertWidth = 0;
width = 541;
},
{
layerId = master01;
shapes = (
{
closed = 1;
nodes = (
(266.488,216,o),
(279.488,227,o),
(282.488,242,cs),
(290.488,281,o),
(238.488,281,o),
(247.488,325,cs),
(252.488,350,o),
(264.488,369,o),
(349.488,420,cs),
(453.488,484,o),
(471,517,o),
(481,567,cs),
(497,646,o),
(453.488,720,o),
(314.488,720,cs),
(259.488,720,o),
(181.488,704,o),
(133.488,682,cs),
(121.488,676,o),
(112.488,664,o),
(109.488,652,cs),
(106.488,633,o),
(117.488,618,o),
(137.488,618,cs),
(170.488,618,o),
(213.488,652,o),
(300.488,652,cs),
(393.488,652,o),
(425.488,625,o),
(415.488,577,cs),
(409.488,543,o),
(393.488,520,o),
(324.488,476,cs),
(195.488,396,o),
(185,367,o),
(178,331,cs),
(167,274,o),
(204.488,216,o),
(250.488,216,cs)
);
},
{
closed = 1;
nodes = (
(235.488,-10,o),
(254.488,16,o),
(259.488,41,cs),
(267.488,78,o),
(253.488,113,o),
(199.488,113,cs),
(172.488,113,o),
(144.488,91,o),
(138.488,61,cs),
(129.488,16,o),
(158.488,-10,o),
(199.488,-10,cs)
);
}
);
vertWidth = 0;
width = 462;
},
{
layerId = "FAD04859-55EE-48D6-A0AA-73DE2A79512F";
shapes = (
{
closed = 1;
nodes = (
(304.226,231,o),
(331.226,259,o),
(336.226,283,cs),
(340.226,305,o),
(326.226,319,o),
(327.226,327,cs),
(329.226,336,o),
(344.226,345,o),
(420.226,379,cs),
(489.226,408,o),
(543,443,o),
(559,522,cs),
(582,640,o),
(512.226,720,o),
(343.226,720,cs),
(281.226,720,o),
(202,705,o),
(146,678,cs),
(109,661,o),
(82.226,636,o),
(75.226,599,cs),
(64.226,543,o),
(95.226,516,o),
(141.226,516,cs),
(187.226,516,o),
(220.226,550,o),
(320.226,550,cs),
(370.226,550,o),
(386.226,540,o),
(383.226,523,cs),
(380.226,509,o),
(370.226,497,o),
(299.226,469,cs),
(204.226,432,o),
(171.226,394,o),
(162.226,350,cs),
(149.226,287,o),
(185.226,231,o),
(262.226,231,cs)
);
},
{
closed = 1;
nodes = (
(265.226,-13,o),
(305.226,18,o),
(314.226,67,cs),
(324.226,117,o),
(296.226,165,o),
(214.226,165,cs),
(161.226,165,o),
(118,138,o),
(107,83,cs),
(95,22,o),
(131.226,-13,o),
(201.226,-13,cs)
);
}
);
vertWidth = 0;
width = 541;
},
{
layerId = "0998268F-450B-429A-9175-FFA5E463F4E3";
shapes = (
{
closed = 1;
nodes = (
(266.488,216,o),
(279.488,227,o),
(282.488,242,cs),
(290.488,281,o),
(238.488,281,o),
(247.488,325,cs),
(252.488,350,o),
(264.488,369,o),
(349.488,420,cs),
(453.488,484,o),
(471,517,o),
(481,567,cs),
(497,646,o),
(453.488,720,o),
(314.488,720,cs),
(259.488,720,o),
(181.488,704,o),
(133.488,682,cs),
(121.488,676,o),
(112.488,664,o),
(109.488,652,cs),
(106.488,633,o),
(117.488,618,o),
(137.488,618,cs),
(170.488,618,o),
(213.488,652,o),
(300.488,652,cs),
(393.488,652,o),
(425.488,625,o),
(415.488,577,cs),
(409.488,543,o),
(393.488,520,o),
(324.488,476,cs),
(195.488,396,o),
(185,367,o),
(178,331,cs),
(167,274,o),
(204.488,216,o),
(250.488,216,cs)
);
},
{
closed = 1;
nodes = (
(235.488,-10,o),
(254.488,16,o),
(259.488,41,cs),
(267.488,78,o),
(253.488,113,o),
(199.488,113,cs),
(172.488,113,o),
(144.488,91,o),
(138.488,61,cs),
(129.488,16,o),
(158.488,-10,o),
(199.488,-10,cs)
);
}
);
vertWidth = 0;
width = 462;
},
{
layerId = "60E1EE18-36F5-475C-BAEC-6556E4A9959C";
shapes = (
{
closed = 1;
nodes = (
(304.226,231,o),
(331.226,259,o),
(336.226,283,cs),
(340.226,305,o),
(326.226,319,o),
(327.226,327,cs),
(329.226,336,o),
(344.226,345,o),
(420.226,379,cs),
(489.226,408,o),
(543,443,o),
(559,522,cs),
(582,640,o),
(512.226,720,o),
(343.226,720,cs),
(281.226,720,o),
(202,705,o),
(146,678,cs),
(109,661,o),
(82.226,636,o),
(75.226,599,cs),
(64.226,543,o),
(95.226,516,o),
(141.226,516,cs),
(187.226,516,o),
(220.226,550,o),
(320.226,550,cs),
(370.226,550,o),
(386.226,540,o),
(383.226,523,cs),
(380.226,509,o),
(370.226,497,o),
(299.226,469,cs),
(204.226,432,o),
(171.226,394,o),
(162.226,350,cs),
(149.226,287,o),
(185.226,231,o),
(262.226,231,cs)
);
},
{
closed = 1;
nodes = (
(265.226,-13,o),
(305.226,18,o),
(314.226,67,cs),
(324.226,117,o),
(296.226,165,o),
(214.226,165,cs),
(161.226,165,o),
(118,138,o),
(107,83,cs),
(95,22,o),
(131.226,-13,o),
(201.226,-13,cs)
);
}
);
vertWidth = 0;
width = 541;
},
{
associatedMasterId = "FA16BA0A-39E2-4955-BC33-721AB190E0D3";
layerId = "87234B38-16F4-4CA1-8928-84317B013084";
name = bg;
shapes = (
{
closed = 0;
nodes = (
(105,591,l),
(144,611,o),
(212,625,o),
(262,625,cs),
(371,625,o),
(426,565,o),
(426,513,cs),
(426,464,o),
(398,425,o),
(341,399,cs),
(252,358,o),
(240,330,o),
(240,307,cs),
(240,283,o),
(252,260,o),
(283,240,c)
);
}
);
vertWidth = 0;
width = 541;
},
{
associatedMasterId = "5DCC2EB0-DF11-4824-93BF-E616AA6EE2C6";
layerId = "E61385E5-7ADA-4F99-8C00-F0CD171F640D";
name = bg;
shapes = (
{
closed = 0;
nodes = (
(105,591,l),
(144,611,o),
(212,625,o),
(262,625,cs),
(371,625,o),
(426,565,o),
(426,513,cs),
(426,464,o),
(398,425,o),
(341,399,cs),
(252,358,o),
(240,330,o),
(240,307,cs),
(240,283,o),
(252,260,o),
(283,240,c)
);
}
);
vertWidth = 0;
width = 541;
}
);
unicode = 63;
userData = {
KernOnSpecialSpacing = {
L = "spaced-off";
};
};
}
{
color = 4;
glyphname = at;
layers = (
{
background = {
shapes = (
{
closed = 0;
nodes = (
(287,513,l),
(264,501,o),
(234,446,o),
(234,419,cs),
(234,392,o),
(254,389,o),
(269,389,cs),
(284,389,o),
(332,449,o),
(353,449,cs),
(374,449,o),
(402,424,o),
(435,376,cs),
(467,328,o),
(500,316,o),
(527,316,cs),
(554,316,o),
(589,336,o),
(589,367,cs),
(589,398,o),
(511,674,o),
(395,674,cs),
(279,674,o),
(94,520,o),
(94,321,cs),
(94,122,o),
(256,8,o),
(437,8,cs),
(561,8,o),
(620,24,o),
(674,63,cs)
);
},
{
closed = 0;
nodes = (
(497,455,l),
(368,442,o),
(314,367,o),
(314,299,cs),
(314,243,o),
(350,215,o),
(391,215,cs),
(426,215,o),
(451,239,o),
(474,291,cs),
(495,339,o),
(508,355,o),
(530,355,cs),
(549,355,o),
(562,342,o),
(593,286,cs),
(621,239,o),
(642,226,o),
(659,226,cs),
(701,226,o),
(734,280,o),
(734,370,cs),
(734,499,o),
(660,676,o),
(449,676,cs),
(266,676,o),
(94,499,o),
(94,321,cs),
(94,122,o),
(256,22,o),
(437,22,cs),
(561,22,o),
(620,38,o),
(674,77,cs)
);
}
);
};
layerId = "DC44E50C-9AA1-421C-802C-D4D023281425";
shapes = (
{
closed = 1;
nodes = (
(577,-102,o),
(636,-76,o),
(677,-46,cs),
(696,-32,o),
(701,-17,o),
(701,-1,cs),
(701,17,o),
(694,29,o),
(676,29,cs),
(641,29,o),
(631,-34,o),
(447,-34,cs),
(287,-34,o),
(138,52,o),
(138,231,cs),
(138,392,o),
(294,552,o),
(459,552,cs),
(647,552,o),
(710,400,o),
(710,290,cs),
(710,241,o),
(698,180,o),
(659,180,cs),
(641,180,o),
(633,185,o),
(607,243,cs),
(582,298,o),
(555,309,o),
(526,309,cs),
(498,309,o),
(476,298,o),
(449,228,cs),
(431,183,o),
(417,167,o),
(387,167,cs),
(375,167,o),
(361,170,o),
(325,191,c),
(363,148,l),
(346,188,o),
(346,204,o),
(346,219,cs),
(346,275,o),
(397,334,o),
(496,341,cs),
(523,343,o),
(534,353,o),
(534,371,cs),
(534,390,o),
(521,409,o),
(488,409,cs),
(390,409,o),
(278,324,o),
(278,219,cs),
(278,138,o),
(331,101,o),
(389,101,cs),
(494,101,o),
(502,219,o),
(538,256,c),
(510,256,l),
(538,241,o),
(545,224,o),
(559,189,cs),
(573,154,o),
(598,112,o),
(657,112,cs),
(715,112,o),
(778,159,o),
(778,290,cs),
(778,430,o),
(693,620,o),
(459,620,cs),
(258,620,o),
(70,426,o),
(70,231,c),
(70,12,o),
(245,-102,o),
(447,-102,cs)
);
}
);
userData = {
com.typemytype.robofont.Image.Brightness = 0;
com.typemytype.robofont.Image.Contrast = 1;
com.typemytype.robofont.Image.Saturation = 1;
com.typemytype.robofont.Image.Sharpness = 0.4;
};
vertWidth = 0;
width = 848;
},
{
layerId = "FA16BA0A-39E2-4955-BC33-721AB190E0D3";
shapes = (
{
closed = 1;
nodes = (
(627,-174,o),
(694,-162,o),
(755,-135,cs),
(804,-115,o),
(836,-70,o),
(836,-24,cs),
(836,18,o),
(813,35,o),
(769,35,cs),
(708,35,o),
(662,-5,o),
(515,-5,cs),
(358,-5,o),
(204,79,o),
(204,248,cs),
(204,397,o),
(354,543,o),
(515,543,cs),
(635,543,o),
(720,373,o),
(720,268,cs),
(720,262,o),
(717,254,o),
(712,254,c),
(704,254,o),
(694,254,o),
(663,300,cs),
(641,332,o),
(610,345,o),
(575,345,cs),
(523,345,o),
(489,320,o),
(459,283,cs),
(435,255,o),
(427,242,o),
(411,242,cs),
(393,242,o),
(376,245,o),
(353,259,c),
(475,160,l),
(461,172,o),
(454,188,o),
(454,206,cs),
(454,240,o),
(493,278,o),
(550,297,cs),
(568,303,o),
(600,335,o),
(600,370,cs),
(600,421,o),
(556,451,o),
(493,451,cs),
(416,451,o),
(300,343,o),
(300,228,cs),
(300,138,o),
(358,92,o),
(433,92,cs),
(511,92,o),
(559,132,o),
(592,201,c),
(509,191,l),
(548,183,o),
(566,169,o),
(600,133,cs),
(639,92,o),
(692,85,o),
(733,85,cs),
(817,85,o),
(889,147,o),
(889,268,cs),
(889,425,o),
(761,713,o),
(515,713,cs),
(262,713,o),
(35,477,o),
(35,248,cs),
(35,-13,o),
(254,-174,o),
(515,-174,cs)
);
}
);
vertWidth = 0;
width = 924;
},
{
background = {
shapes = (
{
closed = 0;
nodes = (
(287,513,l),
(264,501,o),
(234,446,o),
(234,419,cs),
(234,392,o),
(254,389,o),
(269,389,cs),
(284,389,o),
(332,449,o),
(353,449,cs),
(374,449,o),
(402,424,o),
(435,376,cs),
(467,328,o),
(500,316,o),
(527,316,cs),
(554,316,o),
(589,336,o),
(589,367,cs),
(589,398,o),
(511,674,o),
(395,674,cs),
(279,674,o),
(94,520,o),
(94,321,cs),
(94,122,o),
(256,8,o),
(437,8,cs),
(561,8,o),
(620,24,o),
(674,63,cs)
);
},
{
closed = 0;
nodes = (
(497,455,l),
(368,442,o),
(314,367,o),
(314,299,cs),
(314,243,o),
(350,215,o),
(391,215,cs),
(426,215,o),
(451,239,o),
(474,291,cs),
(495,339,o),
(508,355,o),
(530,355,cs),
(549,355,o),
(562,342,o),
(593,286,cs),
(621,239,o),
(642,226,o),
(659,226,cs),
(701,226,o),
(734,280,o),
(734,370,cs),
(734,499,o),
(660,676,o),
(449,676,cs),
(266,676,o),
(94,499,o),
(94,321,cs),
(94,122,o),
(256,22,o),
(437,22,cs),
(561,22,o),
(620,38,o),
(674,77,cs)
);
}
);
};
layerId = "365BB766-143C-4A52-A3A9-25E29A0F4411";
shapes = (
{
closed = 1;
nodes = (
(577,-102,o),
(636,-76,o),
(677,-46,cs),
(696,-32,o),
(701,-17,o),
(701,-1,cs),
(701,17,o),
(694,29,o),
(676,29,cs),
(641,29,o),
(631,-34,o),
(447,-34,cs),
(287,-34,o),
(138,52,o),
(138,231,cs),
(138,392,o),
(294,552,o),
(459,552,cs),
(647,552,o),
(710,400,o),
(710,290,cs),
(710,241,o),
(698,180,o),
(659,180,cs),
(641,180,o),
(633,185,o),
(607,243,cs),
(582,298,o),
(555,309,o),
(526,309,cs),
(498,309,o),
(476,298,o),
(449,228,cs),
(431,183,o),
(417,167,o),
(387,167,cs),
(375,167,o),
(361,170,o),
(325,191,c),
(363,148,l),
(346,188,o),
(346,204,o),
(346,219,cs),
(346,275,o),
(397,334,o),
(496,341,cs),
(523,343,o),
(534,353,o),
(534,371,cs),
(534,390,o),
(521,409,o),
(488,409,cs),
(390,409,o),
(278,324,o),
(278,219,cs),
(278,138,o),
(331,101,o),
(389,101,cs),
(494,101,o),
(502,219,o),
(538,256,c),
(510,256,l),
(538,241,o),
(545,224,o),
(559,189,cs),
(573,154,o),
(598,112,o),
(657,112,cs),
(715,112,o),
(778,159,o),
(778,290,cs),
(778,430,o),
(693,620,o),
(459,620,cs),
(258,620,o),
(70,426,o),
(70,231,c),
(70,12,o),
(245,-102,o),
(447,-102,cs)
);
}
);
userData = {
com.typemytype.robofont.Image.Brightness = 0;
com.typemytype.robofont.Image.Contrast = 1;
com.typemytype.robofont.Image.Saturation = 1;
com.typemytype.robofont.Image.Sharpness = 0.4;
};
vertWidth = 0;
width = 848;
},
{
layerId = "5DCC2EB0-DF11-4824-93BF-E616AA6EE2C6";
shapes = (
{
closed = 1;
nodes = (
(627,-174,o),
(694,-162,o),
(755,-135,cs),
(804,-115,o),
(836,-70,o),
(836,-24,cs),
(836,18,o),
(813,35,o),
(769,35,cs),
(708,35,o),
(662,-5,o),
(515,-5,cs),
(358,-5,o),
(204,79,o),
(204,248,cs),
(204,397,o),
(354,543,o),
(515,543,cs),
(635,543,o),
(720,373,o),
(720,268,cs),
(720,262,o),
(717,254,o),
(712,254,c),
(704,254,o),
(694,254,o),
(663,300,cs),
(641,332,o),
(610,345,o),
(575,345,cs),
(523,345,o),
(489,320,o),
(459,283,cs),
(435,255,o),
(427,242,o),
(411,242,cs),
(393,242,o),
(376,245,o),
(353,259,c),
(475,160,l),
(461,172,o),
(454,188,o),
(454,206,cs),
(454,240,o),
(493,278,o),
(550,297,cs),
(568,303,o),
(600,335,o),
(600,370,cs),
(600,421,o),
(556,451,o),
(493,451,cs),
(416,451,o),
(300,343,o),
(300,228,cs),
(300,138,o),
(358,92,o),
(433,92,cs),
(511,92,o),
(559,132,o),
(592,201,c),
(509,191,l),
(548,183,o),
(566,169,o),
(600,133,cs),
(639,92,o),
(692,85,o),
(733,85,cs),
(817,85,o),
(889,147,o),
(889,268,cs),
(889,425,o),
(761,713,o),
(515,713,cs),
(262,713,o),
(35,477,o),
(35,248,cs),
(35,-13,o),
(254,-174,o),
(515,-174,cs)
);
}
);
vertWidth = 0;
width = 924;
},
{
layerId = master01;
shapes = (
{
closed = 1;
nodes = (
(513,-102,o),
(574,-75,o),
(619.591,-46,cs),
(641.591,-32,o),
(649.591,-17,o),
(652.591,-1,cs),
(656,20,o),
(651,34,o),
(629,34,cs),
(594,34,o),
(572,-34,o),
(391.591,-34,cs),
(234,-34,o),
(101,59,o),
(140,251,cs),
(170,402,o),
(352,552,o),
(511,552,cs),
(707,552,o),
(741.591,400,o),
(719.591,290,cs),
(709.591,241,o),
(685.591,180,o),
(646.591,180,cs),
(628.591,180,o),
(621.591,185,o),
(607.591,243,cs),
(593.591,298,o),
(568.591,309,o),
(539.591,309,cs),
(511.591,309,o),
(487.591,298,o),
(446.591,228,cs),
(419.591,183,o),
(401.591,167,o),
(371.591,167,cs),
(359.591,167,o),
(346.591,170,o),
(314.591,191,c),
(344.591,148,l),
(335.591,188,o),
(338.591,204,o),
(341.591,219,cs),
(352.591,275,o),
(415.591,334,o),
(515.591,341,cs),
(543.591,343,o),
(556.591,353,o),
(559.591,371,cs),
(563.591,390,o),
(554.591,409,o),
(521.591,409,cs),
(423.591,409,o),
(298,336,o),
(277,231,cs),
(261,151,o),
(307,103,o),
(371,103,cs),
(470,103,o),
(505,219,o),
(546,256,c),
(518,256,l),
(543,241,o),
(547,224,o),
(554,189,cs),
(561,154,o),
(575,112,o),
(645,112,cs),
(697,112,o),
(760,149,o),
(786,280,cs),
(814,420,o),
(765,620,o),
(515,620,cs),
(324,620,o),
(111,446,o),
(74,261,cs),
(28,30,o),
(183,-102,o),
(389,-102,cs)
);
}
);
vertWidth = 0;
width = 848;
},
{
layerId = "FAD04859-55EE-48D6-A0AA-73DE2A79512F";
shapes = (
{
closed = 1;
nodes = (
(552.717,-174,o),
(616.125,-163.787,o),
(680,-139,cs),
(731,-119,o),
(770,-84,o),
(778,-42,cs),
(788,7,o),
(763.203,35,o),
(724.015,35,cs),
(663.015,35,o),
(609.015,-5,o),
(462.015,-5,cs),
(305.015,-5,o),
(168.015,79,o),
(202.015,248,cs),
(231.015,397,o),
(411.015,543,o),
(572.015,543,cs),
(692.015,543,o),
(743.015,373,o),
(722.015,268,cs),
(720.015,262,o),
(716.015,254,o),
(711.015,254,c),
(703.015,254,o),
(693.015,254,o),
(671.015,300,cs),
(655.015,332,o),
(627.015,345,o),
(592.015,345,cs),
(540.015,345,o),
(501.015,320,o),
(464.015,283,cs),
(434.015,255,o),
(423.015,242,o),
(407.015,242,cs),
(389.015,242,o),
(373.015,245,o),
(353.015,259,c),
(455.015,160,l),
(443.015,172,o),
(440.015,188,o),
(443.015,206,cs),
(450.015,240,o),
(497.015,278,o),
(557.015,297,cs),
(577.015,303,o),
(615.015,335,o),
(622.015,370,cs),
(632.015,421,o),
(594.015,451,o),
(531.015,451,cs),
(454.015,451,o),
(317.015,343,o),
(294.015,228,cs),
(276.015,138,o),
(324.015,92,o),
(399.015,92,cs),
(481.318,92,o),
(542.163,130.771,o),
(590,201,c),
(505,191,l),
(543,183,o),
(561,171,o),
(590,136,cs),
(621,96,o),
(660.329,85,o),
(698,85,cs),
(782,85,o),
(863,132,o),
(888,253,cs),
(919,410,o),
(849.4,713,o),
(586,713,cs),
(341.899,713,o),
(81.942,496.706,o),
(37,268,cs),
(-16.123,6.396,o),
(174.658,-174,o),
(451,-174,cs)
);
}
);
vertWidth = 0;
width = 924;
},
{
layerId = "0998268F-450B-429A-9175-FFA5E463F4E3";
shapes = (
{
closed = 1;
nodes = (
(513,-102,o),
(574,-75,o),
(619.591,-46,cs),
(641.591,-32,o),
(649.591,-17,o),
(652.591,-1,cs),
(656,20,o),
(651,34,o),
(629,34,cs),
(594,34,o),
(572,-34,o),
(391.591,-34,cs),
(234,-34,o),
(101,59,o),
(140,251,cs),
(170,402,o),
(352,552,o),
(511,552,cs),
(707,552,o),
(741.591,400,o),
(719.591,290,cs),
(709.591,241,o),
(685.591,180,o),
(646.591,180,cs),
(628.591,180,o),
(621.591,185,o),
(607.591,243,cs),
(593.591,298,o),
(568.591,309,o),
(539.591,309,cs),
(511.591,309,o),
(487.591,298,o),
(446.591,228,cs),
(419.591,183,o),
(401.591,167,o),
(371.591,167,cs),
(359.591,167,o),
(346.591,170,o),
(314.591,191,c),
(344.591,148,l),
(335.591,188,o),
(338.591,204,o),
(341.591,219,cs),
(352.591,275,o),
(415.591,334,o),
(515.591,341,cs),
(543.591,343,o),
(556.591,353,o),
(559.591,371,cs),
(563.591,390,o),
(554.591,409,o),
(521.591,409,cs),
(423.591,409,o),
(298,336,o),
(277,231,cs),
(261,151,o),
(307,103,o),
(371,103,cs),
(470,103,o),
(505,219,o),
(546,256,c),
(518,256,l),
(543,241,o),
(547,224,o),
(554,189,cs),
(561,154,o),
(575,112,o),
(645,112,cs),
(697,112,o),
(760,149,o),
(786,280,cs),
(814,420,o),
(765,620,o),
(515,620,cs),
(324,620,o),
(111,446,o),
(74,261,cs),
(28,30,o),
(183,-102,o),
(389,-102,cs)
);
}
);
vertWidth = 0;
width = 848;
},
{
layerId = "60E1EE18-36F5-475C-BAEC-6556E4A9959C";
shapes = (
{
closed = 1;
nodes = (
(552.717,-174,o),
(616.125,-163.787,o),
(680,-139,cs),
(731,-119,o),
(770,-84,o),
(778,-42,cs),
(788,7,o),
(763.203,35,o),
(724.015,35,cs),
(663.015,35,o),
(609.015,-5,o),
(462.015,-5,cs),
(305.015,-5,o),
(168.015,79,o),
(202.015,248,cs),
(231.015,397,o),
(411.015,543,o),
(572.015,543,cs),
(692.015,543,o),
(743.015,373,o),
(722.015,268,cs),
(720.015,262,o),
(716.015,254,o),
(711.015,254,c),
(703.015,254,o),
(693.015,254,o),
(671.015,300,cs),
(655.015,332,o),
(627.015,345,o),
(592.015,345,cs),
(540.015,345,o),
(501.015,320,o),
(464.015,283,cs),
(434.015,255,o),
(423.015,242,o),
(407.015,242,cs),
(389.015,242,o),
(373.015,245,o),
(353.015,259,c),
(455.015,160,l),
(443.015,172,o),
(440.015,188,o),
(443.015,206,cs),
(450.015,240,o),
(497.015,278,o),
(557.015,297,cs),
(577.015,303,o),
(615.015,335,o),
(622.015,370,cs),
(632.015,421,o),
(594.015,451,o),
(531.015,451,cs),
(454.015,451,o),
(317.015,343,o),
(294.015,228,cs),
(276.015,138,o),
(324.015,92,o),
(399.015,92,cs),
(481.318,92,o),
(542.163,130.771,o),
(590,201,c),
(505,191,l),
(543,183,o),
(561,171,o),
(590,136,cs),
(621,96,o),
(660.329,85,o),
(698,85,cs),
(782,85,o),
(863,132,o),
(888,253,cs),
(919,410,o),
(849.4,713,o),
(586,713,cs),
(341.899,713,o),
(81.942,496.706,o),
(37,268,cs),
(-16.123,6.396,o),
(174.658,-174,o),
(451,-174,cs)
);
}
);
vertWidth = 0;
width = 924;
},
{
associatedMasterId = "DC44E50C-9AA1-421C-802C-D4D023281425";
layerId = "024B899D-8068-420F-B13D-E363D94F092A";
name = anotherone;
shapes = (
{
closed = 1;
nodes = (
(387,411,o),
(336,355,o),
(336,299,cs),
(336,268,o),
(355,249,o),
(379,249,cs),
(403,249,o),
(422,264,o),
(439,308,cs),
(466,378,o),
(488,391,o),
(516,389,cs),
(545,387,o),
(569,375,o),
(597,323,cs),
(624,269,o),
(636,260,o),
(647,260,cs),
(688,260,o),
(700,321,o),
(700,370,cs),
(700,484,o),
(637,642,o),
(449,642,cs),
(284,642,o),
(128,482,o),
(128,321,cs),
(128,142,o),
(277,56,o),
(437,56,cs),
(627,56,o),
(638,111,o),
(674,111,cs),
(693,111,o),
(701,98,o),
(701,78,cs),
(701,63,o),
(694,50,o),
(675,36,cs),
(636,7,o),
(572,-12,o),
(437,-12,cs),
(235,-12,o),
(60,102,o),
(60,321,c),
(60,516,o),
(248,710,o),
(449,710,cs),
(683,710,o),
(768,514,o),
(768,370,cs),
(768,239,o),
(705,192,o),
(647,192,cs),
(614,192,o),
(581,209,o),
(551,270,cs),
(536,299,o),
(527,321,o),
(518,321,cs),
(511,321,o),
(504,317,o),
(485,264,cs),
(461,206,o),
(425,181,o),
(379,181,cs),
(321,181,o),
(268,218,o),
(268,299,cs),
(268,399,o),
(387,489,o),
(485,489,cs),
(502,489,o),
(519,476,o),
(519,458,cs),
(519,438,o),
(507,423,o),
(488,421,cs)
);
}
);
vertWidth = 0;
width = 848;
},
{
associatedMasterId = "FA16BA0A-39E2-4955-BC33-721AB190E0D3";
layerId = "87234B38-16F4-4CA1-8928-84317B013084";
name = bg;
shapes = (
{
closed = 0;
nodes = (
(422,431,l),
(362,409,o),
(323,355,o),
(323,313,cs),
(323,268,o),
(350,262,o),
(371,262,cs),
(406,262,o),
(427,281,o),
(441,304,cs),
(453,323,o),
(467,340,o),
(488,340,cs),
(506,340,o),
(521,330,o),
(543,300,cs),
(563,273,o),
(584,267,o),
(601,267,cs),
(626,267,o),
(660,285,o),
(660,348,cs),
(660,443,o),
(578,646,o),
(421,646,cs),
(250,646,o),
(94,488,o),
(94,332,cs),
(94,154,o),
(248,53,o),
(421,53,cs),
(509,53,o),
(560,63,o),
(614,84,c)
);
}
);
vertWidth = 0;
width = 924;
},
{
associatedMasterId = "FA16BA0A-39E2-4955-BC33-721AB190E0D3";
layerId = "934284C9-D641-487B-AD85-47FD6759B04E";
name = "another one";
shapes = (
{
closed = 1;
nodes = (
(415,278,o),
(383,247,o),
(383,219,cs),
(383,204,o),
(389,191,o),
(400,181,c),
(308,254,l),
(327,243,o),
(341,240,o),
(356,240,cs),
(369,240,o),
(376,251,o),
(384,264,cs),
(412,310,o),
(448,334,o),
(491,334,cs),
(520,334,o),
(543,318,o),
(564,288,cs),
(585,258,o),
(590,257,o),
(595,257,cs),
(599,257,o),
(601,263,o),
(601,268,cs),
(601,355,o),
(531,496,o),
(432,496,cs),
(299,496,o),
(175,375,o),
(175,252,cs),
(175,112,o),
(302,43,o),
(432,43,cs),
(546,43,o),
(592,74,o),
(625,74,cs),
(669,74,o),
(695,42,o),
(695,4,cs),
(695,-24,o),
(678,-51,o),
(647,-63,cs),
(589,-85,o),
(532,-97,o),
(432,-97,cs),
(216,-97,o),
(35,36,o),
(35,252,cs),
(35,441,o),
(223,636,o),
(432,636,cs),
(635,636,o),
(741,398,o),
(741,268,cs),
(741,168,o),
(681,117,o),
(612,117,cs),
(577,117,o),
(532,125,o),
(478,202,c),
(505,206,l),
(478,149,o),
(438,116,o),
(374,116,cs),
(302,116,o),
(256,152,o),
(256,237,cs),
(256,332,o),
(361,425,o),
(424,425,cs),
(471,425,o),
(495,395,o),
(495,356,cs),
(495,327,o),
(477,299,o),
(449,289,cs)
);
}
);
vertWidth = 0;
width = 924;
},
{
associatedMasterId = "365BB766-143C-4A52-A3A9-25E29A0F4411";
layerId = "5FA27709-68CA-47DE-B57D-DEE8A333520E";
name = anotherone;
shapes = (
{
closed = 1;
nodes = (
(387,411,o),
(336,355,o),
(336,299,cs),
(336,268,o),
(355,249,o),
(379,249,cs),
(403,249,o),
(422,264,o),
(439,308,cs),
(466,378,o),
(488,391,o),
(516,389,cs),
(545,387,o),
(569,375,o),
(597,323,cs),
(624,269,o),
(636,260,o),
(647,260,cs),
(688,260,o),
(700,321,o),
(700,370,cs),
(700,484,o),
(637,642,o),
(449,642,cs),
(284,642,o),
(128,482,o),
(128,321,cs),
(128,142,o),
(277,56,o),
(437,56,cs),
(627,56,o),
(638,111,o),
(674,111,cs),
(693,111,o),
(701,98,o),
(701,78,cs),
(701,63,o),
(694,50,o),
(675,36,cs),
(636,7,o),
(572,-12,o),
(437,-12,cs),
(235,-12,o),
(60,102,o),
(60,321,c),
(60,516,o),
(248,710,o),
(449,710,cs),
(683,710,o),
(768,514,o),
(768,370,cs),
(768,239,o),
(705,192,o),
(647,192,cs),
(614,192,o),
(581,209,o),
(551,270,cs),
(536,299,o),
(527,321,o),
(518,321,cs),
(511,321,o),
(504,317,o),
(485,264,cs),
(461,206,o),
(425,181,o),
(379,181,cs),
(321,181,o),
(268,218,o),
(268,299,cs),
(268,399,o),
(387,489,o),
(485,489,cs),
(502,489,o),
(519,476,o),
(519,458,cs),
(519,438,o),
(507,423,o),
(488,421,cs)
);
}
);
vertWidth = 0;
width = 848;
},
{
associatedMasterId = "5DCC2EB0-DF11-4824-93BF-E616AA6EE2C6";
layerId = "E61385E5-7ADA-4F99-8C00-F0CD171F640D";
name = bg;
shapes = (
{
closed = 0;
nodes = (
(422,431,l),
(362,409,o),
(323,355,o),
(323,313,cs),
(323,268,o),
(350,262,o),
(371,262,cs),
(406,262,o),
(427,281,o),
(441,304,cs),
(453,323,o),
(467,340,o),
(488,340,cs),
(506,340,o),
(521,330,o),
(543,300,cs),
(563,273,o),
(584,267,o),
(601,267,cs),
(626,267,o),
(660,285,o),
(660,348,cs),
(660,443,o),
(578,646,o),
(421,646,cs),
(250,646,o),
(94,488,o),
(94,332,cs),
(94,154,o),
(248,53,o),
(421,53,cs),
(509,53,o),
(560,63,o),
(614,84,cs)
);
}
);
vertWidth = 0;
width = 924;
},
{
associatedMasterId = "5DCC2EB0-DF11-4824-93BF-E616AA6EE2C6";
layerId = "643601BD-4FE2-4CC7-8F21-8115BEF2FECE";
name = "another one";
shapes = (
{
closed = 1;
nodes = (
(415,278,o),
(383,247,o),
(383,219,cs),
(383,204,o),
(389,191,o),
(400,181,c),
(308,254,l),
(327,243,o),
(341,240,o),
(356,240,cs),
(369,240,o),
(376,251,o),
(384,264,cs),
(412,310,o),
(448,334,o),
(491,334,cs),
(520,334,o),
(543,318,o),
(564,288,cs),
(585,258,o),
(590,257,o),
(595,257,c),
(599,257,o),
(601,263,o),
(601,268,cs),
(601,355,o),
(531,496,o),
(432,496,cs),
(299,496,o),
(175,375,o),
(175,252,cs),
(175,112,o),
(302,43,o),
(432,43,cs),
(546,43,o),
(592,74,o),
(625,74,cs),
(669,74,o),
(695,42,o),
(695,4,cs),
(695,-24,o),
(678,-51,o),
(647,-63,cs),
(589,-85,o),
(532,-97,o),
(432,-97,cs),
(216,-97,o),
(35,36,o),
(35,252,cs),
(35,441,o),
(223,636,o),
(432,636,cs),
(635,636,o),
(741,398,o),
(741,268,cs),
(741,168,o),
(681,117,o),
(612,117,cs),
(577,117,o),
(532,125,o),
(478,202,c),
(505,206,l),
(478,149,o),
(438,116,o),
(374,116,cs),
(302,116,o),
(256,152,o),
(256,237,cs),
(256,332,o),
(361,425,o),
(424,425,cs),
(471,425,o),
(495,395,o),
(495,356,cs),
(495,327,o),
(477,299,o),
(449,289,cs)
);
}
);
vertWidth = 0;
width = 924;
}
);
unicode = 64;
userData = {
KernOnSpecialSpacing = {
L = NoKerning;
R = NoKerning;
};
};
}
{
color = 4;
glyphname = A;
layers = (
{
anchors = (
{
name = bottom;
pos = (355,0);
},
{
name = ogonek;
pos = (619,0);
},
{
name = ring;
pos = (401,699);
},
{
name = top;
pos = (401,700);
}
);
background = {
shapes = (
{
closed = 0;
nodes = (
(145,572,l),
(149,393,o),
(110,210,o),
(118,34,c),
(159,353,o),
(258,658,o),
(398,658,cs),
(564,658,o),
(467,251,o),
(615,1,cs)
);
},
{
closed = 0;
nodes = (
(75,266,l),
(256,336,o),
(421,367,o),
(687,372,cs)
);
},
{
closed = 1;
nodes = (
(144,0,l),
(222,214,l),
(516,214,l),
(593,0,l),
(663,0,l),
(402,700,l),
(336,700,l),
(74,0,l)
);
},
{
closed = 1;
nodes = (
(371,613,l),
(495,271,l),
(241,271,l),
(365,613,l)
);
}
);
};
layerId = "DC44E50C-9AA1-421C-802C-D4D023281425";
shapes = (
{
closed = 1;
nodes = (
(619,-9,o),
(628,1,o),
(628,19,cs),
(628,71,o),
(569,165,o),
(543,397,cs),
(520,612,o),
(511,710,o),
(403,710,cs),
(338,710,o),
(287,650,o),
(223,519,c),
(252,526,l),
(241,544,o),
(227,555,o),
(211,555,c),
(195,555,o),
(187,541,o),
(186,520,cs),
(175,351,o),
(93,188,o),
(93,39,cs),
(93,3,o),
(106,-8,o),
(126,-8,cs),
(141,-8,o),
(148,5,o),
(151,25,cs),
(203,395,o),
(325,645,o),
(403,645,cs),
(456,645,o),
(462,568,o),
(481,392,cs),
(493,283,o),
(524,150,o),
(548,77,cs),
(568,15,o),
(579,-9,o),
(605,-9,cs)
);
},
{
closed = 1;
nodes = (
(160,194,o),
(182,265,o),
(607,265,cs),
(649,265,o),
(669,280.556,o),
(669,300,cs),
(669,320,o),
(659.612,330,o),
(623,330,cs),
(409,330,o),
(217,305,o),
(72,248,cs),
(50.192,239.078,o),
(44,231.125,o),
(44,218,cs),
(44,203.818,o),
(53,194,o),
(70,194,cs)
);
}
);
vertWidth = 0;
width = 713;
},
{
anchors = (
{
name = bottom;
pos = (424,0);
},
{
name = ogonek;
pos = (702,0);
},
{
name = ring;
pos = (424,699);
},
{
name = top;
pos = (424,700);
}
);
layerId = "FA16BA0A-39E2-4955-BC33-721AB190E0D3";
shapes = (
{
closed = 1;
nodes = (
(719,-11,o),
(742,10.379,o),
(742,51,cs),
(742,111.213,o),
(673.784,175.176,o),
(654,357,cs),
(625,610,o),
(581,711,o),
(433,711,cs),
(337.63,711,o),
(250,642,o),
(199,543,c),
(266,566,l),
(239,605,o),
(205,616,o),
(176,616,cs),
(142,616,o),
(127,600,o),
(127,575,cs),
(127,443.794,o),
(79,332,o),
(79,160,cs),
(79,39,o),
(115,-8,o),
(184,-8,cs),
(225,-8,o),
(244,10,o),
(249,57,cs),
(285.868,353.887,o),
(367,538,o),
(425,538,cs),
(443,538,o),
(451,530,o),
(470,362,cs),
(482.398,259.958,o),
(506,121,o),
(557,54,cs),
(592,6,o),
(625,-11,o),
(671,-11,cs)
);
},
{
closed = 1;
nodes = (
(239,160,o),
(416,198,o),
(623,198,cs),
(699,198,o),
(750,239,o),
(750,296,cs),
(750,342,o),
(723,372,o),
(634,372,cs),
(405,372,o),
(225,343,o),
(85,305,cs),
(43.006,293.385,o),
(24,270,o),
(24,240,cs),
(24,192,o),
(56,160,o),
(134,160,cs)
);
}
);
vertWidth = 0;
width = 780;
},
{
anchors = (
{
name = bottom;
pos = (355,48);
},
{
name = ogonek;
pos = (601,26);
},
{
name = ring;
pos = (401,642);
},
{
name = top;
pos = (401,641);
}
);
background = {
shapes = (
{
closed = 0;
nodes = (
(-705,572,l),
(-701,393,o),
(-740,210,o),
(-732,34,c),
(-691,353,o),
(-592,658,o),
(-452,658,cs),
(-286,658,o),
(-383,251,o),
(-235,1,cs)
);
},
{
closed = 0;
nodes = (
(-775,266,l),
(-594,336,o),
(-429,367,o),
(-163,372,cs)
);
},
{
closed = 1;
nodes = (
(619,-84,o),
(628,-74,o),
(628,-56,cs),
(628,-13,o),
(574,79,o),
(544,359,cs),
(522,570,o),
(511,660,o),
(403,660,cs),
(339,660,o),
(275,594,o),
(223,469,c),
(252,476,l),
(241,494,o),
(227,505,o),
(211,505,c),
(195,505,o),
(186,491,o),
(186,470,cs),
(186,354,o),
(93,173,o),
(93,39,cs),
(93,3,o),
(106,-8,o),
(126,-8,cs),
(141,-8,o),
(148,5,o),
(151,25,cs),
(198,324,o),
(319,595,o),
(403,595,cs),
(456,595,o),
(464,526,o),
(481,367,cs),
(495,241,o),
(521,86,o),
(548,2,cs),
(568,-60,o),
(579,-84,o),
(605,-84,cs)
);
},
{
closed = 1;
nodes = (
(169,194,o),
(244,264,o),
(607,264,cs),
(642,264,o),
(672,284,o),
(672,303,cs),
(672,321,o),
(665,330,o),
(623,330,cs),
(409,330,o),
(217,305,o),
(72,248,cs),
(50,239,o),
(44,230,o),
(44,216,cs),
(44,205,o),
(55,194,o),
(76,194,cs)
);
}
);
};
layerId = "365BB766-143C-4A52-A3A9-25E29A0F4411";
shapes = (
{
closed = 1;
nodes = (
(601,16,o),
(610,26,o),
(610,44,cs),
(610,79,o),
(568,152,o),
(544,379,cs),
(524,571,o),
(510,652,o),
(399,652,cs),
(334,652,o),
(268,587,o),
(216,463,c),
(245,470,l),
(234,488,o),
(220,499,o),
(204,499,c),
(188,499,o),
(179,485,o),
(179,464,cs),
(179,363,o),
(97,205,o),
(97,89,cs),
(97,53,o),
(110,42,o),
(130,42,cs),
(145,42,o),
(152,55,o),
(155,75,cs),
(197,345,o),
(316,589,o),
(396,589,cs),
(454,589,o),
(466,528,o),
(481,387,cs),
(492,288,o),
(508,170,o),
(530,102,cs),
(550,40,o),
(561,16,o),
(587,16,cs)
);
},
{
closed = 1;
nodes = (
(169,214,o),
(244,284,o),
(607,284,cs),
(642,284,o),
(672,304,o),
(672,323,cs),
(672,341,o),
(665,350,o),
(623,350,cs),
(409,350,o),
(217,325,o),
(72,268,cs),
(50,259,o),
(44,250,o),
(44,236,cs),
(44,225,o),
(55,214,o),
(76,214,cs)
);
}
);
vertWidth = 0;
width = 713;
},
{
anchors = (
{
name = bottom;
pos = (404,54);
},
{
name = ogonek;
pos = (691,17);
},
{
name = ring;
pos = (411,633);
},
{
name = top;
pos = (410,634);
}
);
layerId = "5DCC2EB0-DF11-4824-93BF-E616AA6EE2C6";
shapes = (
{
closed = 1;
nodes = (
(685,-6,o),
(715,17,o),
(715,52,cs),
(715,109.094,o),
(652.575,169.412,o),
(634,342,cs),
(609.194,560.087,o),
(561,646,o),
(413,646,cs),
(316,646,o),
(229.399,569.706,o),
(175,463,c),
(246,488,l),
(213,519,o),
(192,532,o),
(167,532,cs),
(128,532,o),
(106,501,o),
(106,446,cs),
(106,352.442,o),
(65,292.088,o),
(65,148,cs),
(65,60,o),
(101,18,o),
(164,18,cs),
(208,18,o),
(230,39,o),
(235,83,cs),
(264.752,326.146,o),
(344,473,o),
(405,473,cs),
(423,473,o),
(435.894,468.532,o),
(450,347,cs),
(461.555,251.481,o),
(473.256,130.737,o),
(525,63,cs),
(563,12,o),
(596,-6,o),
(639,-6,cs)
);
},
{
closed = 1;
nodes = (
(219,138,o),
(340,178,o),
(603,178,cs),
(684,178,o),
(730,222,o),
(730,272,cs),
(730,316,o),
(700,335,o),
(613,335,cs),
(382,335,o),
(193,323,o),
(39,275,cs),
(12,268,o),
(0,249,o),
(0,220,cs),
(0,172,o),
(36,140,o),
(114,140,cs)
);
}
);
vertWidth = 0;
width = 780;
},
{
anchors = (
{
name = bottom;
pos = (305.675,0);
},
{
name = ogonek;
pos = (569.675,0);
},
{
name = ring;
pos = (491.476,699);
},
{
name = top;
pos = (491.676,700);
}
);
layerId = master01;
shapes = (
{
closed = 1;
nodes = (
(567.675,-9,o),
(578.675,1,o),
(582.675,19,cs),
(592.675,71,o),
(552.675,165,o),
(572.675,397,cs),
(592.686,612.122,o),
(594,708,o),
(489,708,cs),
(425,708,o),
(365,652,o),
(276,521,c),
(306,528,l),
(299,546,o),
(287,557,o),
(271,557,cs),
(255,557,o),
(244,543,o),
(239,522,cs),
(194,353,o),
(81.675,188,o),
(51.675,39,cs),
(44.675,3,o),
(54.675,-8,o),
(74.675,-8,cs),
(90.765,-8,o),
(101.943,4.836,o),
(109,25,cs),
(235,395,o),
(407,645,o),
(485,645,cs),
(538,645,o),
(529,568,o),
(512,392,cs),
(503,283,o),
(507,150,o),
(516,77,cs),
(523.993,15.057,o),
(529.186,-9,o),
(553.675,-9,cs)
);
},
{
closed = 1;
nodes = (
(149.675,194,o),
(185.675,265,o),
(610.675,265,cs),
(652.675,265,o),
(675.675,281,o),
(679.675,300,cs),
(683.675,320,o),
(676.675,330,o),
(639.675,330,cs),
(425.675,330,o),
(228.675,305,o),
(72.675,248,cs),
(48.675,239,o),
(40.675,231,o),
(38.675,218,cs),
(35.675,204,o),
(42.675,194,o),
(59.675,194,cs)
);
}
);
vertWidth = 0;
width = 713;
},
{
anchors = (
{
name = bottom;
pos = (372.042,0);
},
{
name = ogonek;
pos = (650.042,0);
},
{
name = ring;
pos = (511.843,699);
},
{
name = top;
pos = (512.043,700);
}
);
layerId = "FAD04859-55EE-48D6-A0AA-73DE2A79512F";
shapes = (
{
closed = 1;
nodes = (
(665,-11,o),
(692.042,10,o),
(700.042,51,cs),
(712,110,o),
(657,175,o),
(673,357,cs),
(695,608,o),
(662,711,o),
(508,711,cs),
(415,711,o),
(321,642,o),
(256.042,543,c),
(327.042,566,l),
(308.042,605,o),
(276.042,616,o),
(247.042,616,cs),
(213.042,616,o),
(195,600,o),
(187,560,cs),
(164,444,o),
(93.042,332,o),
(59.042,160,cs),
(35.042,39,o),
(64,-8,o),
(140,-8,cs),
(179,-8,o),
(204,12,o),
(222,65,cs),
(315,353,o),
(425,538,o),
(481.042,538,cs),
(499.042,538,o),
(505.042,530,o),
(490.042,362,cs),
(482.042,260,o),
(485,117,o),
(519,52,cs),
(541,7,o),
(573,-11,o),
(617,-11,cs)
);
},
{
closed = 1;
nodes = (
(219.042,160,o),
(404.042,198,o),
(611.042,198,cs),
(687.042,198,o),
(746.042,239,o),
(757.042,296,cs),
(766.042,342,o),
(745.042,372,o),
(656.042,372,cs),
(427.042,372,o),
(242.042,343,o),
(94.042,305,cs),
(50.042,293,o),
(26.042,270,o),
(20.042,240,cs),
(10.042,192,o),
(36.042,160,o),
(114.042,160,cs)
);
}
);
vertWidth = 0;
width = 780;
},
{
anchors = (
{
name = bottom;
pos = (315.872,48);
},
{
name = ogonek;
pos = (557.472,26);
},
{
name = ring;
pos = (480.673,642);
},
{
name = top;
pos = (480.473,641);
}
);
layerId = "0998268F-450B-429A-9175-FFA5E463F4E3";
shapes = (
{
closed = 1;
nodes = (
(557,16,o),
(566,26,o),
(570.272,44,cs),
(577.272,79,o),
(549.272,152,o),
(571.272,379,cs),
(589.272,571,o),
(577,652,o),
(474,652,cs),
(413,652,o),
(336.272,587,o),
(260.272,463,c),
(290.272,470,l),
(283.272,488,o),
(271.272,499,o),
(255.272,499,c),
(239.272,499,o),
(227.272,485,o),
(223.272,464,cs),
(203.272,363,o),
(89.272,205,o),
(66.272,89,cs),
(59.272,53,o),
(69.272,42,o),
(89.272,42,cs),
(106,42,o),
(118,55,o),
(125,75,cs),
(221,345,o),
(389,589,o),
(469,589,cs),
(527,589,o),
(527,528,o),
(513,387,cs),
(505,288,o),
(497,170,o),
(505,102,cs),
(513,40,o),
(519,16,o),
(545,16,cs)
);
},
{
closed = 1;
nodes = (
(163.272,214,o),
(252.272,284,o),
(615.272,284,cs),
(650.272,284,o),
(684.272,304,o),
(688.272,323,cs),
(691.272,341,o),
(686.272,350,o),
(644.272,350,cs),
(430.272,350,o),
(233.272,325,o),
(77.272,268,cs),
(53.272,259,o),
(45.272,250,o),
(42.272,236,cs),
(40.272,225,o),
(49.272,214,o),
(70.272,214,cs)
);
}
);
vertWidth = 0;
width = 713;
},
{
anchors = (
{
name = bottom;
pos = (363.66,54);
},
{
name = ogonek;
pos = (643.26,17);
},
{
name = ring;
pos = (486.46,633);
},
{
name = top;
pos = (485.66,634);
}
);
layerId = "60E1EE18-36F5-475C-BAEC-6556E4A9959C";
shapes = (
{
closed = 1;
nodes = (
(632.86,-6,o),
(666.86,17,o),
(673.86,52,cs),
(685.86,109,o),
(634.86,169,o),
(650.86,342,cs),
(669.86,560,o),
(627,646,o),
(479,646,cs),
(382,646,o),
(291.86,570,o),
(216.86,463,c),
(292.86,488,l),
(265.86,519,o),
(246.86,532,o),
(221.86,532,cs),
(182.86,532,o),
(154.86,501,o),
(143.86,446,cs),
(124.86,352,o),
(71.86,292,o),
(43.86,148,cs),
(25.86,60,o),
(53.86,18,o),
(116.86,18,cs),
(160.86,18,o),
(186.86,39,o),
(200.86,83,cs),
(278.86,326,o),
(387.86,473,o),
(448.86,473,cs),
(466.86,473,o),
(478.86,469,o),
(467.86,347,cs),
(460.86,251,o),
(447.86,131,o),
(486.86,63,cs),
(513.86,12,o),
(543.86,-6,o),
(586.86,-6,cs)
);
},
{
closed = 1;
nodes = (
(195.86,138,o),
(324.86,178,o),
(587.86,178,cs),
(668.86,178,o),
(722.86,222,o),
(732.86,272,cs),
(741.86,316,o),
(715.86,335,o),
(628.86,335,cs),
(397.86,335,o),
(206.86,323,o),
(42.86,275,cs),
(14.86,268,o),
(-1.14,249,o),
(-7.14,220,cs),
(-17.14,172,o),
(12.86,140,o),
(90.86,140,cs)
);
}
);
vertWidth = 0;
width = 780;
},
{
associatedMasterId = "5DCC2EB0-DF11-4824-93BF-E616AA6EE2C6";
layerId = "E61385E5-7ADA-4F99-8C00-F0CD171F640D";
name = bg;
shapes = (
{
closed = 1;
nodes = (
(703,-61,o),
(733,-38,o),
(733,-3,cs),
(733,71,o),
(658,149,o),
(634,372,cs),
(610,583,o),
(561,666,o),
(413,666,cs),
(316,666,o),
(227,595,o),
(175,493,c),
(246,518,l),
(213,549,o),
(192,562,o),
(167,562,cs),
(128,562,o),
(106,531,o),
(106,476,cs),
(106,368,o),
(59,299,o),
(59,132,cs),
(59,47,o),
(102,-8,o),
(164,-8,cs),
(202,-8,o),
(224,13,o),
(229,57,cs),
(262,327,o),
(347,493,o),
(405,493,cs),
(423,493,o),
(437,489,o),
(450,377,cs),
(465,253,o),
(477,94,o),
(543,8,cs),
(581,-43,o),
(614,-61,o),
(657,-61,cs)
);
},
{
closed = 1;
nodes = (
(219,158,o),
(396,198,o),
(603,198,cs),
(672,198,o),
(730,243,o),
(730,303,cs),
(730,354,o),
(705,372,o),
(598,372,cs),
(373,372,o),
(187,355,o),
(38,297,cs),
(12,288,o),
(0,269,o),
(0,240,cs),
(0,192,o),
(36,160,o),
(114,160,cs)
);
}
);
vertWidth = 0;
width = 780;
}
);
unicode = 65;
userData = {
KernOnName = A;
};
}
{
color = 4;
glyphname = C;
layers = (
{
anchors = (
{
name = bottom;
pos = (326,0);
},
{
name = top;
pos = (369,700);
}
);
backgroundImage = {
imagePath = B_.png;
pos = (-684,-300);
scale = (2.6119,2.6119);
};
layerId = "DC44E50C-9AA1-421C-802C-D4D023281425";
shapes = (
{
closed = 1;
nodes = (
(485,-10,o),
(565,94,o),
(565,142,cs),
(565,157,o),
(556,169,o),
(539,169,cs),
(498,169,o),
(494,55,o),
(329,55,cs),
(208,55,o),
(131,138,o),
(131,288,cs),
(131,471,o),
(240,646,o),
(398,646,cs),
(459,646,o),
(467,618,o),
(467,590,cs),
(467,558,o),
(460,530,o),
(490,530,cs),
(520,530,o),
(535,562,o),
(535,595,cs),
(535,665,o),
(498,711,o),
(400,711,cs),
(201,711,o),
(64,506,o),
(64,289,cs),
(64,121,o),
(137,-10,o),
(330,-10,cs)
);
}
);
userData = {
com.typemytype.robofont.Image.Brightness = -0.3986;
com.typemytype.robofont.Image.Sharpness = 0.4;
};
vertWidth = 0;
width = 612;
},
{
anchors = (
{
name = bottom;
pos = (323,0);
},
{
name = top;
pos = (370,700);
}
);
layerId = "FA16BA0A-39E2-4955-BC33-721AB190E0D3";
shapes = (
{
closed = 1;
nodes = (
(486,-10,o),
(572,67,o),
(572,148,cs),
(572,190,o),
(555,216,o),
(513,216,cs),
(447,216,o),
(452,157,o),
(347,157,cs),
(266,157,o),
(215,209,o),
(215,304,cs),
(215,411,o),
(287,524,o),
(391,524,cs),
(417,524,o),
(422,517,o),
(422,500,cs),
(422,477,o),
(441,459,o),
(470,459,cs),
(534,459,o),
(566,521,o),
(566,591,cs),
(566,667,o),
(525,711,o),
(422,711,cs),
(224,711,o),
(40,519,o),
(40,304,cs),
(40,121,o),
(151,-10,o),
(336,-10,cs)
);
}
);
userData = {
com.typemytype.robofont.Image.Brightness = -0.3986;
com.typemytype.robofont.Image.Sharpness = 0.4;
};
vertWidth = 0;
width = 615;
},
{
anchors = (
{
name = bottom;
pos = (300,73);
},
{
name = top;
pos = (331,618);
}
);
backgroundImage = {
imagePath = B_.png;
pos = (-686,-300);
scale = (2.6119,2.6119);
};
layerId = "365BB766-143C-4A52-A3A9-25E29A0F4411";
shapes = (
{
closed = 1;
nodes = (
(452,60,o),
(526,151,o),
(526,196,cs),
(526,214,o),
(519,229,o),
(506,229,cs),
(473,229,o),
(453,125,o),
(293,125,cs),
(203,125,o),
(145,190,o),
(145,308,cs),
(145,440,o),
(229,566,o),
(352,566,cs),
(413,566,o),
(421,538,o),
(421,510,cs),
(421,478,o),
(414,450,o),
(444,450,cs),
(474,450,o),
(489,482,o),
(489,515,cs),
(489,585,o),
(452,631,o),
(354,631,cs),
(194,631,o),
(78,474,o),
(78,309,cs),
(78,169,o),
(138,60,o),
(294,60,cs)
);
}
);
userData = {
com.typemytype.robofont.Image.Brightness = -0.3986;
com.typemytype.robofont.Image.Sharpness = 0.4;
};
vertWidth = 0;
width = 590;
},
{
anchors = (
{
name = bottom;
pos = (327,64);
},
{
name = top;
pos = (353,616);
}
);
layerId = "5DCC2EB0-DF11-4824-93BF-E616AA6EE2C6";
shapes = (
{
closed = 1;
nodes = (
(494,50,o),
(577,110,o),
(577,198,cs),
(577,238,o),
(560,269,o),
(533,269,cs),
(502,269,o),
(444,217,o),
(337,217,cs),
(262,217,o),
(215,244,o),
(215,297,cs),
(215,369,o),
(269,444,o),
(340,444,cs),
(366,444,o),
(371,437,o),
(371,420,cs),
(371,400,o),
(383,385,o),
(406,385,cs),
(471,385,o),
(514,458,o),
(514,529,cs),
(514,591,o),
(476,631,o),
(381,631,cs),
(204,631,o),
(40,466,o),
(40,292,cs),
(40,152,o),
(147,50,o),
(326,50,cs)
);
}
);
userData = {
com.typemytype.robofont.Image.Brightness = -0.3986;
com.typemytype.robofont.Image.Sharpness = 0.4;
};
vertWidth = 0;
width = 631;
},
{
anchors = (
{
name = bottom;
pos = (279,0);
},
{
name = top;
pos = (462,700);
}
);
layerId = master01;
shapes = (
{
closed = 1;
nodes = (
(450,-10,o),
(532,87,o),
(542,136,cs),
(546,154,o),
(539,169,o),
(523,169,cs),
(490,169,o),
(468,55,o),
(293,55,cs),
(172,55,o),
(112,138,o),
(142,288,cs),
(178,471,o),
(322,646,o),
(480,646,cs),
(541,646,o),
(544,618,o),
(538,590,cs),
(532,558,o),
(519,530,o),
(549,530,cs),
(579,530,o),
(600,562,o),
(607,595,cs),
(621,665,o),
(583,711,o),
(485,711,cs),
(286,711,o),
(119,512,o),
(76,295,cs),
(42,127,o),
(98,-10,o),
(294,-10,cs)
);
}
);
vertWidth = 0;
width = 605;
},
{
anchors = (
{
name = bottom;
pos = (280.494,0);
},
{
name = top;
pos = (467.495,700);
}
);
layerId = "FAD04859-55EE-48D6-A0AA-73DE2A79512F";
shapes = (
{
closed = 1;
nodes = (
(456,-10,o),
(542,59,o),
(558,143,cs),
(567,190,o),
(555.494,216,o),
(513.494,216,cs),
(462.494,216,o),
(440,162,o),
(335,162,cs),
(254,162,o),
(214.494,209,o),
(233.494,304,cs),
(254.494,411,o),
(351.494,524,o),
(457.494,524,cs),
(483.494,524,o),
(486.494,517,o),
(483.494,500,cs),
(478.494,477,o),
(494.494,459,o),
(523.494,459,cs),
(587.494,459,o),
(634,511,o),
(645,571,cs),
(663,659,o),
(624,711,o),
(505,711,cs),
(304,711,o),
(100,535,o),
(58,324,cs),
(19,130,o),
(113,-10,o),
(311,-10,cs)
);
}
);
vertWidth = 0;
width = 621;
},
{
anchors = (
{
name = bottom;
pos = (252,73);
},
{
name = top;
pos = (392,618);
}
);
layerId = "0998268F-450B-429A-9175-FFA5E463F4E3";
shapes = (
{
closed = 1;
nodes = (
(417,60,o),
(502,145,o),
(510,188,cs),
(516,211,o),
(510,229,o),
(489,229,cs),
(456,229,o),
(415,125,o),
(255,125,cs),
(165,125,o),
(120,190,o),
(144,308,cs),
(170,440,o),
(279,566,o),
(402,566,cs),
(463,566,o),
(466,538,o),
(460,510,cs),
(454,478,o),
(441,450,o),
(471,450,cs),
(501,450,o),
(522,482,o),
(529,515,cs),
(543,585,o),
(506,631,o),
(408,631,cs),
(248,631,o),
(112,484,o),
(79,319,cs),
(51,179,o),
(98,60,o),
(254,60,cs)
);
}
);
vertWidth = 0;
width = 562;
},
{
anchors = (
{
name = bottom;
pos = (288,64);
},
{
name = top;
pos = (424,616);
}
);
layerId = "60E1EE18-36F5-475C-BAEC-6556E4A9959C";
shapes = (
{
closed = 1;
nodes = (
(460,49,o),
(549,119,o),
(565,198,cs),
(574,243,o),
(559,276,o),
(514,276,cs),
(475,276,o),
(435,217,o),
(328,217,cs),
(253,217,o),
(212,244,o),
(222,297,cs),
(237,369,o),
(306,444,o),
(377,444,cs),
(403,444,o),
(406,437,o),
(403,420,cs),
(399,400,o),
(408,385,o),
(431,385,cs),
(496,385,o),
(559,438,o),
(573,509,cs),
(585,571,o),
(550,631,o),
(455,631,cs),
(251,631,o),
(84,485,o),
(51,320,cs),
(21,170,o),
(118,49,o),
(302,49,cs)
);
}
);
vertWidth = 0;
width = 630;
},
{
associatedMasterId = "FA16BA0A-39E2-4955-BC33-721AB190E0D3";
layerId = "87234B38-16F4-4CA1-8928-84317B013084";
name = bg;
shapes = (
{
closed = 1;
nodes = (
(574,-10,o),
(672,54,o),
(672,148,cs),
(672,188,o),
(655,219,o),
(628,219,cs),
(590,219,o),
(520,157,o),
(387,157,cs),
(288,157,o),
(225,198,o),
(225,274,cs),
(225,394,o),
(341,524,o),
(495,524,cs),
(521,524,o),
(526,517,o),
(526,500,cs),
(526,480,o),
(538,465,o),
(561,465,cs),
(626,465,o),
(669,538,o),
(669,609,cs),
(669,671,o),
(631,711,o),
(536,711,cs),
(283,711,o),
(50,506,o),
(50,289,cs),
(50,115,o),
(172,-10,o),
(376,-10,cs)
);
},
{
closed = 1;
nodes = (
(544,-10,o),
(635,61,o),
(635,148,cs),
(635,190,o),
(618,216,o),
(576,216,cs),
(515,216,o),
(504,157,o),
(380,157,cs),
(281,157,o),
(218,198,o),
(218,274,cs),
(218,394,o),
(321,524,o),
(458,524,cs),
(484,524,o),
(489,517,o),
(489,500,cs),
(489,477,o),
(508,459,o),
(537,459,cs),
(601,459,o),
(633,521,o),
(633,591,cs),
(633,667,o),
(592,711,o),
(489,711,cs),
(262,711,o),
(43,504,o),
(43,284,cs),
(43,113,o),
(165,-10,o),
(369,-10,cs)
);
}
);
vertWidth = 0;
width = 621;
},
{
associatedMasterId = "5DCC2EB0-DF11-4824-93BF-E616AA6EE2C6";
layerId = "E61385E5-7ADA-4F99-8C00-F0CD171F640D";
name = bg;
shapes = (
{
closed = 1;
nodes = (
(574,-10,o),
(672,54,o),
(672,148,cs),
(672,188,o),
(655,219,o),
(628,219,cs),
(590,219,o),
(520,157,o),
(387,157,cs),
(288,157,o),
(225,198,o),
(225,274,cs),
(225,394,o),
(341,524,o),
(495,524,cs),
(521,524,o),
(526,517,o),
(526,500,cs),
(526,480,o),
(538,465,o),
(561,465,cs),
(626,465,o),
(669,538,o),
(669,609,cs),
(669,671,o),
(631,711,o),
(536,711,cs),
(283,711,o),
(50,506,o),
(50,289,cs),
(50,115,o),
(172,-10,o),
(376,-10,cs)
);
}
);
vertWidth = 0;
width = 622;
},
{
associatedMasterId = "5DCC2EB0-DF11-4824-93BF-E616AA6EE2C6";
layerId = "66739A13-3AB9-4E7B-B17F-CB2B60388854";
name = transformed;
shapes = (
{
closed = 1;
nodes = (
(483.8,54.2,o),
(545.4,102.84,o),
(545.4,174.28,cs),
(545.4,204.68,o),
(533.5,228.24,o),
(514.6,228.24,cs),
(491.5,228.24,o),
(448.1,181.12,o),
(366.9,181.12,cs),
(297.6,181.12,o),
(253.5,212.28,o),
(253.5,270.04,cs),
(253.5,361.24,o),
(325.6,460.04,o),
(421.5,460.04,cs),
(439.7,460.04,o),
(443.2,454.72,o),
(443.2,441.8,cs),
(443.2,426.6,o),
(451.6,415.2,o),
(467.7,415.2,cs),
(513.2,415.2,o),
(543.3,470.68,o),
(543.3,524.64,cs),
(543.3,571.76,o),
(516.7,602.16,o),
(450.2,602.16,cs),
(284.3,602.16,o),
(131,446.36,o),
(131,281.44,cs),
(131,149.2,o),
(216.4,54.2,o),
(359.2,54.2,cs)
);
}
);
vertWidth = 0;
width = 622;
}
);
unicode = 67;
}
{
color = 4;
glyphname = D;
layers = (
{
anchors = (
{
name = bottom;
pos = (209,0);
},
{
name = top;
pos = (344,700);
}
);
background = {
shapes = (
{
closed = 0;
nodes = (
(88,551,l),
(180,617,o),
(289,634,o),
(355,634,cs),
(477,634,o),
(554,594,o),
(554,509,cs),
(554,239,o),
(318,49,o),
(242,49,cs),
(195,49,o),
(183,92,o),
(183,138,cs),
(183,248,o),
(189,372,o),
(206,559,cs)
);
}
);
};
layerId = "DC44E50C-9AA1-421C-802C-D4D023281425";
shapes = (
{
closed = 1;
nodes = (
(398,-9,o),
(595,200,o),
(595,448,cs),
(595,610,o),
(498,709,o),
(342,709,cs),
(226,709,o),
(105,669,o),
(49,647,cs),
(34,641,o),
(29,630,o),
(29,618,cs),
(29,602,o),
(38,591,o),
(59,591,cs),
(120,591,o),
(168,644,o),
(332,644,cs),
(472,644,o),
(526,570,o),
(526,446,cs),
(526,227,o),
(361,44,o),
(153,51,c),
(205,38,l),
(172,65,o),
(163,98,o),
(163,160,cs),
(163,375,o),
(187,486,o),
(187,583,cs),
(187,609,o),
(175,631,o),
(161,631,cs),
(141,631,o),
(132,617,o),
(127,578,cs),
(109,433,o),
(99,291,o),
(99,141,cs),
(99,49,o),
(142,-9,o),
(191,-9,cs)
);
}
);
vertWidth = 0;
width = 645;
},
{
anchors = (
{
name = bottom;
pos = (241,0);
},
{
name = top;
pos = (385,700);
}
);
layerId = "FA16BA0A-39E2-4955-BC33-721AB190E0D3";
shapes = (
{
closed = 1;
nodes = (
(435,-10,o),
(683,168,o),
(683,422,cs),
(683,580,o),
(565,709,o),
(351,709,cs),
(252,709,o),
(132,689,o),
(62,670,cs),
(29,661,o),
(15,632,o),
(15,607,cs),
(15,551,o),
(59,494,o),
(141,494,cs),
(195,494,o),
(242,532,o),
(358,532,cs),
(462,532,o),
(504,485,o),
(504,414,cs),
(504,299,o),
(398,186,o),
(177,145,c),
(296,118,l),
(275,159,o),
(269,190,o),
(269,227,cs),
(269,309,o),
(274,427,o),
(269,519,cs),
(267,559,o),
(228,591,o),
(180,591,cs),
(119,591,o),
(96,574,o),
(95,532,cs),
(91,422,o),
(91,324,o),
(91,208,cs),
(91,82,o),
(136,-10,o),
(232,-10,cs)
);
}
);
vertWidth = 0;
width = 721;
},
{
anchors = (
{
name = bottom;
pos = (225,42);
},
{
name = top;
pos = (338,644);
}
);
background = {
shapes = (
{
closed = 0;
nodes = (
(91,551,l),
(183,617,o),
(292,634,o),
(358,634,cs),
(480,634,o),
(557,594,o),
(557,509,cs),
(557,239,o),
(321,49,o),
(245,49,cs),
(198,49,o),
(186,92,o),
(186,138,cs),
(186,248,o),
(192,372,o),
(209,559,cs)
);
}
);
};
layerId = "365BB766-143C-4A52-A3A9-25E29A0F4411";
shapes = (
{
closed = 1;
nodes = (
(373,36,o),
(569,199,o),
(569,434,cs),
(569,574,o),
(494,655,o),
(339,655,cs),
(234,655,o),
(110,621,o),
(53,591,cs),
(40,584,o),
(31,572,o),
(31,560,cs),
(31,547,o),
(41,537,o),
(63,537,cs),
(132,537,o),
(195,590,o),
(346,590,cs),
(462,590,o),
(503,532,o),
(503,432,cs),
(503,239,o),
(349,97,o),
(177,93,c),
(199,81,l),
(189,123,o),
(187,158,o),
(187,193,cs),
(187,361,o),
(211,457,o),
(211,533,cs),
(211,559,o),
(199,581,o),
(185,581,cs),
(165,581,o),
(156,567,o),
(151,528,cs),
(137,411,o),
(123,298,o),
(123,140,cs),
(123,89,o),
(166,36,o),
(224,36,cs)
);
}
);
vertWidth = 0;
width = 638;
},
{
anchors = (
{
name = bottom;
pos = (233,43);
},
{
name = top;
pos = (370,643);
}
);
layerId = "5DCC2EB0-DF11-4824-93BF-E616AA6EE2C6";
shapes = (
{
closed = 1;
nodes = (
(418,35,o),
(638,206.104,o),
(638,422,cs),
(638,557,o),
(541,659,o),
(375,659,cs),
(256,659,o),
(77,628,o),
(49,600,cs),
(37,588,o),
(31,572,o),
(31,554,cs),
(31,498,o),
(95,453,o),
(166,453,cs),
(213,453,o),
(256,482,o),
(359,482,cs),
(443,482,o),
(462,459,o),
(462,414,cs),
(462,294.089,o),
(334.489,212.932,o),
(162,190,c),
(262,154,l),
(258,195,o),
(254,228,o),
(254,251,cs),
(254,350.036,o),
(264,418.857,o),
(264,486,cs),
(264,539,o),
(226,571,o),
(178,571,cs),
(117,571,o),
(100,552,o),
(96,511,cs),
(83.077,417.951,o),
(76,335.777,o),
(76,237,cs),
(76,137,o),
(135,35,o),
(236,35,cs)
);
}
);
vertWidth = 0;
width = 676;
},
{
anchors = (
{
name = bottom;
pos = (163.17,0);
},
{
name = top;
pos = (438.171,700);
}
);
layerId = master01;
shapes = (
{
closed = 1;
nodes = (
(350,-9,o),
(585,180,o),
(635,428,cs),
(667,597,o),
(592,709,o),
(418,709,cs),
(320,709,o),
(215,682,o),
(140,654,cs),
(120,648,o),
(109,634,o),
(107,618,cs),
(104,601,o),
(115,591,o),
(136,591,cs),
(201,591,o),
(249,645,o),
(409,645,cs),
(548,645,o),
(592,558,o),
(567,436,cs),
(523,217,o),
(324.17,44,o),
(117.17,51,c),
(156.17,38,l),
(139.17,65,o),
(137.17,98,o),
(149.17,160,cs),
(192.17,375,o),
(238.17,486,o),
(258.17,583,cs),
(263.17,609,o),
(255.17,631,o),
(241.17,631,cs),
(221.17,631,o),
(209.17,617,o),
(197.17,578,cs),
(150.17,433,o),
(111.17,291,o),
(81.17,141,cs),
(63.17,49,o),
(94,-9,o),
(155,-9,cs)
);
}
);
vertWidth = 0;
width = 654;
},
{
anchors = (
{
name = bottom;
pos = (190.246,0);
},
{
name = top;
pos = (474.247,700);
}
);
layerId = "FAD04859-55EE-48D6-A0AA-73DE2A79512F";
shapes = (
{
closed = 1;
nodes = (
(403,-10,o),
(661,152,o),
(710,404,cs),
(742,567,o),
(648,709,o),
(432,709,cs),
(333,709,o),
(217,688,o),
(145.246,670,cs),
(110.246,661,o),
(90.246,632,o),
(85.246,607,cs),
(74.246,551,o),
(107.246,494,o),
(189.246,494,cs),
(243.246,494,o),
(297.246,532,o),
(413.246,532,cs),
(517.246,532,o),
(546,485,o),
(532,414,cs),
(509,299,o),
(382,179,o),
(155.246,145,c),
(269.246,118,l),
(256.246,159,o),
(256,190,o),
(262,227,cs),
(275,310,o),
(314,421,o),
(324,517,cs),
(328,559,o),
(295.246,591,o),
(247.246,591,cs),
(186.246,591,o),
(160.246,574,o),
(150.246,532,cs),
(124.246,422,o),
(105.246,324,o),
(82.246,208,cs),
(60.246,100,o),
(110,-10,o),
(219,-10,cs)
);
}
);
vertWidth = 0;
width = 722;
},
{
anchors = (
{
name = bottom;
pos = (185.006,42);
},
{
name = top;
pos = (418.407,644);
}
);
layerId = "0998268F-450B-429A-9175-FFA5E463F4E3";
shapes = (
{
closed = 1;
nodes = (
(334,36,o),
(559,189,o),
(606,424,cs),
(634,564,o),
(575,655,o),
(417,655,cs),
(313,655,o),
(185,621,o),
(122.606,591,cs),
(108.606,584,o),
(96.606,572,o),
(94.606,560,cs),
(91.606,547,o),
(99.606,537,o),
(121.606,537,cs),
(190.606,537,o),
(264.606,590,o),
(415.606,590,cs),
(531.606,590,o),
(560.606,532,o),
(540.606,432,cs),
(502.606,239,o),
(319.606,97,o),
(147.606,93,c),
(166.606,81,l),
(165.606,123,o),
(170.606,158,o),
(177.606,193,cs),
(210.606,361,o),
(253.606,457,o),
(269.606,533,cs),
(274.606,559,o),
(266.606,581,o),
(252.606,581,cs),
(232.606,581,o),
(220.606,567,o),
(208.606,528,cs),
(170.606,411,o),
(134.606,298,o),
(102.606,140,cs),
(92.606,89,o),
(126,36,o),
(187,36,cs)
);
}
);
vertWidth = 0;
width = 632;
},
{
anchors = (
{
name = bottom;
pos = (189.67,43);
},
{
name = top;
pos = (446.671,643);
}
);
layerId = "60E1EE18-36F5-475C-BAEC-6556E4A9959C";
shapes = (
{
closed = 1;
nodes = (
(396,35,o),
(622,181,o),
(666,397,cs),
(696,546,o),
(612,659,o),
(433,659,cs),
(314,659,o),
(151.07,628,o),
(117.07,600,cs),
(103.07,588,o),
(93.07,572,o),
(90.07,554,cs),
(79.07,498,o),
(134.07,453,o),
(205.07,453,cs),
(252.07,453,o),
(300.07,482,o),
(403.07,482,cs),
(487.07,482,o),
(502.07,459,o),
(493.07,414,cs),
(469.07,294,o),
(325.07,213,o),
(148.07,190,c),
(241.07,154,l),
(245.07,195,o),
(248.07,228,o),
(252.07,251,cs),
(272.07,350,o),
(296.07,419,o),
(309.07,486,cs),
(320.07,539,o),
(288.07,571,o),
(240.07,571,cs),
(179.07,571,o),
(158.07,552,o),
(146.07,511,cs),
(115.07,418,o),
(91.07,336,o),
(71.07,237,cs),
(51.07,137,o),
(113,35,o),
(214,35,cs)
);
}
);
vertWidth = 0;
width = 677;
},
{
associatedMasterId = "FA16BA0A-39E2-4955-BC33-721AB190E0D3";
layerId = "87234B38-16F4-4CA1-8928-84317B013084";
name = bg;
shapes = (
{
closed = 1;
nodes = (
(437,-10,o),
(678,210,o),
(678,462,cs),
(678,603,o),
(570,709,o),
(385,709,cs),
(250,709,o),
(78,659,o),
(26,622,cs),
(8,609,o),
(1,594,o),
(1,569,cs),
(1,513,o),
(47,473,o),
(136,473,cs),
(198,473,o),
(254,532,o),
(389,532,cs),
(479,532,o),
(499,506,o),
(499,454,cs),
(499,288,o),
(361,199,o),
(172,145,c),
(272,109,l),
(268,150,o),
(264,183,o),
(264,206,cs),
(264,265,o),
(274,420,o),
(274,519,cs),
(274,559,o),
(236,591,o),
(188,591,cs),
(127,591,o),
(103,574,o),
(100,532,cs),
(91,410,o),
(86,302,o),
(86,174,cs),
(86,83,o),
(145,-10,o),
(227,-10,cs)
);
}
);
vertWidth = 0;
width = 722;
},
{
associatedMasterId = "5DCC2EB0-DF11-4824-93BF-E616AA6EE2C6";
layerId = "66739A13-3AB9-4E7B-B17F-CB2B60388854";
name = transformed;
shapes = (
{
closed = 1;
nodes = (
(433.65,6.05,o),
(646.05,235.41,o),
(646.05,449.73,cs),
(646.05,582.27,o),
(548.85,681.91,o),
(382.35,681.91,cs),
(260.85,681.91,o),
(82.65,629.27,o),
(50.25,595.43,cs),
(38.55,583.21,o),
(36.75,574.75,o),
(36.75,558.77,cs),
(36.75,504.25,o),
(94.35,460.07,o),
(158.25,460.07,cs),
(214.05,460.07,o),
(264.45,515.53,o),
(385.95,515.53,cs),
(468.75,515.53,o),
(487.65,491.09,o),
(487.65,442.21,cs),
(487.65,286.17,o),
(365.25,212.85,o),
(190.65,151.75,c),
(280.65,117.91,l),
(277.05,156.45,o),
(273.45,187.47,o),
(273.45,209.09,cs),
(273.45,264.55,o),
(282.45,410.25,o),
(282.45,503.31,cs),
(282.45,540.91,o),
(248.25,570.99,o),
(205.05,570.99,cs),
(150.15,570.99,o),
(128.55,555.01,o),
(125.85,515.53,cs),
(117.75,400.85,o),
(113.25,299.33,o),
(113.25,179.01,cs),
(113.25,93.47,o),
(166.35,6.05,o),
(240.15,6.05,cs)
);
}
);
vertWidth = 0;
width = 687;
}
);
unicode = 68;
userData = {
KernOnName = D;
};
}
{
color = 4;
glyphname = E;
kernLeft = KO_E;
kernRight = KO_E;
layers = (
{
anchors = (
{
name = bottom;
pos = (361,0);
},
{
name = ogonek;
pos = (543,37);
},
{
name = top;
pos = (365,700);
}
);
background = {
shapes = (
{
closed = 0;
nodes = (
(189,587,l),
(154,500,o),
(123,387,o),
(123,291,cs),
(123,166,o),
(202,53,o),
(339,53,cs),
(462,53,o),
(547,68,o),
(614,84,cs)
);
},
{
closed = 0;
nodes = (
(115,587,l),
(262,626,o),
(391,651,o),
(571,659,cs)
);
},
{
closed = 0;
nodes = (
(149,312,l),
(226,332,o),
(365,348,o),
(478,352,cs)
);
}
);
};
layerId = "DC44E50C-9AA1-421C-802C-D4D023281425";
shapes = (
{
closed = 1;
nodes = (
(501,-7,o),
(566,40,o),
(566,71,cs),
(566,87,o),
(560,99,o),
(542,99,cs),
(518,99,o),
(496,58,o),
(351,58,cs),
(222,58,o),
(135,153,o),
(136,295,cs),
(137,401,o),
(181,512,o),
(244,602,cs),
(267,635,o),
(257,646,o),
(231,646,cs),
(199,646,o),
(174,609,o),
(149,569,cs),
(105,499,o),
(68,393,o),
(68,293,cs),
(68,119,o),
(173,-7,o),
(355,-7,cs)
);
},
{
closed = 1;
nodes = (
(216,295,o),
(330,310,o),
(413,315,cs),
(451,317,o),
(486,325,o),
(486,355,cs),
(486,371,o),
(476,381,o),
(440,381,cs),
(384,380,o),
(256,367,o),
(165,352,cs),
(122,345,o),
(98,330,o),
(98,312,cs),
(98,293,o),
(112,271,o),
(155,281,cs)
);
},
{
closed = 1;
nodes = (
(200,616,o),
(269,643,o),
(519,643,cs),
(552,643,o),
(564,660,o),
(564,683,cs),
(564,697,o),
(554,708,o),
(535,708,cs),
(420,708,o),
(241,697,o),
(114,676,cs),
(95,672,o),
(87,656,o),
(87,645,cs),
(87,627,o),
(101,616,o),
(128,616,cs)
);
}
);
vertWidth = 0;
width = 613;
},
{
anchors = (
{
name = bottom;
pos = (386,0);
},
{
name = ogonek;
pos = (596,54);
},
{
name = top;
pos = (386,700);
}
);
layerId = "FA16BA0A-39E2-4955-BC33-721AB190E0D3";
shapes = (
{
closed = 1;
nodes = (
(532,-7,o),
(634,45,o),
(634,139,cs),
(634,180,o),
(612,201,o),
(571,201,cs),
(531,201,o),
(469,165,o),
(363,165,cs),
(288,165,o),
(245,220,o),
(245,291,cs),
(245,402,o),
(279,500,o),
(279,542,cs),
(279,583,o),
(250,606,o),
(210,606,cs),
(159,606,o),
(121,577,o),
(106,523,cs),
(82,436,o),
(69,353,o),
(69,293,cs),
(69,130,o),
(163,-7,o),
(362,-7,cs)
);
},
{
closed = 1;
nodes = (
(271,257,o),
(344,270,o),
(478,278,cs),
(534,282,o),
(575,316,o),
(575,378,cs),
(575,416,o),
(552,442,o),
(489,442,cs),
(349,437,o),
(273,423,o),
(208,408,cs),
(171,399,o),
(143,363,o),
(143,322,cs),
(143,273,o),
(155,231,o),
(202,241,cs)
);
},
{
closed = 1;
nodes = (
(228,506,o),
(408,545,o),
(564,545,cs),
(612,545,o),
(637,577,o),
(637,618,cs),
(637,677,o),
(598,712,o),
(490,712,cs),
(404,712,o),
(233,694,o),
(103,659,cs),
(58,647,o),
(50,622,o),
(50,597,cs),
(50,548,o),
(92,506,o),
(171,506,cs)
);
}
);
vertWidth = 0;
width = 677;
},
{
anchors = (
{
name = bottom;
pos = (352,-18);
},
{
name = ogonek;
pos = (576,36);
},
{
name = top;
pos = (368,724);
}
);
background = {
shapes = (
{
closed = 0;
nodes = (
(189,587,l),
(154,500,o),
(123,387,o),
(123,291,cs),
(123,166,o),
(202,53,o),
(339,53,cs),
(462,53,o),
(547,68,o),
(614,84,cs)
);
},
{
closed = 0;
nodes = (
(115,587,l),
(262,626,o),
(391,651,o),
(571,659,cs)
);
},
{
closed = 0;
nodes = (
(149,312,l),
(226,332,o),
(365,348,o),
(478,352,cs)
);
}
);
};
layerId = "365BB766-143C-4A52-A3A9-25E29A0F4411";
shapes = (
{
closed = 1;
nodes = (
(515,-32,o),
(587,21,o),
(587,56,cs),
(587,72,o),
(581,84,o),
(563,84,cs),
(542,84,o),
(503,33,o),
(347,33,cs),
(220.018,33,o),
(134.895,138.022,o),
(136,295,cs),
(137.114,413.085,o),
(184.117,537.168,o),
(254,637,cs),
(277,670,o),
(267,681,o),
(241,681,cs),
(209,681,o),
(184,644,o),
(159,604,cs),
(109.316,524.957,o),
(68,405.681,o),
(68,293,cs),
(68,104.5,o),
(171.348,-32,o),
(351,-32,cs)
);
},
{
closed = 1;
nodes = (
(241,301,o),
(405,327,o),
(519,334,cs),
(557,336,o),
(592,344,o),
(592,374,cs),
(592,390,o),
(582,400,o),
(546,400,cs),
(470,399,o),
(292,373,o),
(165,352,cs),
(122,345,o),
(98,330,o),
(98,312,cs),
(98,293,o),
(112,271,o),
(155,281,cs)
);
},
{
closed = 1;
nodes = (
(204,651,o),
(278,678,o),
(544,678,cs),
(577,678,o),
(589,695,o),
(589,718,cs),
(589,732,o),
(579,743,o),
(560,743,cs),
(438,743,o),
(248,733,o),
(114,711,cs),
(95,707,o),
(87,691,o),
(87,680,cs),
(87,662,o),
(101,651,o),
(128,651,cs)
);
}
);
vertWidth = 0;
width = 654;
},
{
anchors = (
{
name = bottom;
pos = (353,-25);
},
{
name = ogonek;
pos = (559,18);
},
{
name = top;
pos = (366,740);
}
);
layerId = "5DCC2EB0-DF11-4824-93BF-E616AA6EE2C6";
shapes = (
{
closed = 1;
nodes = (
(519,-57,o),
(614,-5,o),
(614,89,cs),
(614,128,o),
(595,151,o),
(551,151,cs),
(500,151,o),
(449,118,o),
(342,118,cs),
(268,118,o),
(225,194,o),
(225,291,cs),
(225,425,o),
(274,500,o),
(274,542,cs),
(274,587,o),
(255,606,o),
(218,606,cs),
(167,606,o),
(123,577,o),
(98,523,cs),
(65,451,o),
(49,367,o),
(49,293,cs),
(49,103,o),
(143,-57,o),
(342,-57,cs)
);
},
{
closed = 1;
nodes = (
(262,253,o),
(348,262,o),
(504,272,cs),
(574,277,o),
(626,312,o),
(626,372,cs),
(626,424,o),
(594,444,o),
(515,444,cs),
(352,444,o),
(263,427,o),
(188,410,cs),
(151,401,o),
(123,364,o),
(123,322,cs),
(123,269,o),
(135,225,o),
(182,235,cs)
);
},
{
closed = 1;
nodes = (
(244,544,o),
(315,585,o),
(510,585,cs),
(595,585,o),
(617,612,o),
(617,655,cs),
(617,707,o),
(573,752,o),
(481,752,cs),
(375,752,o),
(208,737,o),
(79,695,cs),
(42.181,682.064,o),
(30,664,o),
(30,632,cs),
(30,589,o),
(75,544,o),
(161,544,cs)
);
}
);
vertWidth = 0;
width = 684;
},
{
anchors = (
{
name = bottom;
pos = (311.897,0);
},
{
name = ogonek;
pos = (504.297,37);
},
{
name = top;
pos = (455.897,700);
}
);
layerId = master01;
shapes = (
{
closed = 1;
nodes = (
(458,-7,o),
(534,46,o),
(541,81,cs),
(544,97,o),
(541,109,o),
(523,109,cs),
(498,109,o),
(466,58,o),
(319.897,58,cs),
(186.897,58,o),
(116.897,153,o),
(145.897,295,cs),
(167.897,401,o),
(234,502,o),
(315,592,cs),
(345,625,o),
(336.897,646,o),
(310.897,646,cs),
(278.897,646,o),
(246.897,609,o),
(213.897,569,cs),
(155.897,499,o),
(100,403,o),
(80,303,cs),
(45,129,o),
(125,-7,o),
(321,-7,c)
);
},
{
closed = 1;
nodes = (
(229.897,296,o),
(356.897,314,o),
(443.897,320,cs),
(481.897,322,o),
(518.897,330,o),
(524.897,360,cs),
(527.897,376,o),
(519.897,386,o),
(483.897,386,cs),
(425.897,385,o),
(285.897,368,o),
(185.897,352,cs),
(141.897,345,o),
(114.897,330,o),
(110.897,312,cs),
(107.897,293,o),
(116.897,271,o),
(161.897,281,cs)
);
},
{
closed = 1;
nodes = (
(275,616,o),
(351,643,o),
(605,643,cs),
(638,643,o),
(653,660,o),
(658,683,cs),
(660,697,o),
(653,708,o),
(634,708,cs),
(516,708,o),
(333,697,o),
(199.897,676,cs),
(179.897,672,o),
(168.897,656,o),
(166.897,645,cs),
(162.897,627,o),
(174.897,616,o),
(201.897,616,cs)
);
}
);
vertWidth = 0;
width = 613;
},
{
anchors = (
{
name = bottom;
pos = (335.029,0);
},
{
name = ogonek;
pos = (566,54);
},
{
name = top;
pos = (475.03,700);
}
);
layerId = "FAD04859-55EE-48D6-A0AA-73DE2A79512F";
shapes = (
{
closed = 1;
nodes = (
(495,-7,o),
(592,38,o),
(609,120,cs),
(618,168,o),
(593,197,o),
(548,197,cs),
(511,197,o),
(442,164,o),
(336,164,cs),
(268,164,o),
(238,220,o),
(252.029,291,cs),
(274.029,402,o),
(318.029,500,o),
(326.029,542,cs),
(335.029,583,o),
(295.029,606,o),
(270.029,606,cs),
(219.029,606,o),
(174.029,577,o),
(150.029,523,cs),
(110.029,437,o),
(89.029,353,o),
(77.029,293,cs),
(44.029,130,o),
(116,-7,o),
(330,-7,cs)
);
},
{
closed = 1;
nodes = (
(270,261,o),
(346,274,o),
(481,282,cs),
(538,286,o),
(588,314,o),
(600,368,cs),
(609,417,o),
(588,444,o),
(527.029,444,cs),
(386.029,439,o),
(307.029,425,o),
(239.029,410,cs),
(200.029,401,o),
(165.029,364,o),
(156.029,322,cs),
(147,275,o),
(149,235,o),
(198,245,cs)
);
},
{
closed = 1;
nodes = (
(283,502,o),
(459,545,o),
(634,545,cs),
(677,545,o),
(700,568,o),
(705,597,cs),
(718,660,o),
(670,712,o),
(581.029,712,cs),
(495.029,712,o),
(321.029,698,o),
(170.029,652,cs),
(134.029,641,o),
(123.029,622,o),
(118.029,597,cs),
(108.029,546,o),
(144.029,502,o),
(230.029,502,cs)
);
}
);
vertWidth = 0;
width = 677;
},
{
anchors = (
{
name = bottom;
pos = (299.947,-18);
},
{
name = ogonek;
pos = (534.747,36);
},
{
name = top;
pos = (464.348,724);
}
);
layerId = "0998268F-450B-429A-9175-FFA5E463F4E3";
shapes = (
{
closed = 1;
nodes = (
(475,-32,o),
(549,17,o),
(556,50,cs),
(559,69,o),
(556,84,o),
(531.547,84,cs),
(510.547,84,o),
(461.547,33,o),
(305.547,33,cs),
(178.547,33,o),
(113.547,138,o),
(146.547,295,cs),
(171.547,413,o),
(243.547,537,o),
(332.547,637,cs),
(362.547,670,o),
(354.547,681,o),
(328.547,681,cs),
(296.547,681,o),
(264.547,644,o),
(231.547,604,cs),
(165.547,525,o),
(103,416,o),
(81,303,cs),
(43,115,o),
(127,-32,o),
(307,-32,cs)
);
},
{
closed = 1;
nodes = (
(259.547,303,o),
(441.547,322,o),
(566.547,330,cs),
(604.547,332,o),
(641.547,340,o),
(647.547,370,cs),
(650.547,386,o),
(642.547,396,o),
(606.547,396,cs),
(524.547,395,o),
(327.547,375,o),
(186.547,352,cs),
(142.547,345,o),
(115.547,330,o),
(111.547,312,cs),
(108.547,293,o),
(117.547,271,o),
(162.547,281,cs)
);
},
{
closed = 1;
nodes = (
(285.547,651,o),
(364.547,678,o),
(627.547,678,cs),
(660.547,678,o),
(675.547,695,o),
(680.547,718,cs),
(682.547,732,o),
(673,743,o),
(647,743,cs),
(527,743,o),
(342,733,o),
(207.547,711,cs),
(187.547,707,o),
(176.547,691,o),
(174.547,680,cs),
(170.547,662,o),
(182.547,651,o),
(209.547,651,cs)
);
}
);
vertWidth = 0;
width = 663;
},
{
anchors = (
{
name = bottom;
pos = (296.525,-25);
},
{
name = ogonek;
pos = (511.125,18);
},
{
name = top;
pos = (462.526,740);
}
);
layerId = "60E1EE18-36F5-475C-BAEC-6556E4A9959C";
shapes = (
{
closed = 1;
nodes = (
(487,-34,o),
(568,10,o),
(584,88,cs),
(592,127,o),
(578,171,o),
(534,171,cs),
(483,171,o),
(425.525,138,o),
(318.525,138,cs),
(244.525,138,o),
(214.525,205,o),
(231.525,291,cs),
(253.525,402,o),
(297.525,500,o),
(305.525,542,cs),
(314.525,583,o),
(274.525,606,o),
(249.525,606,cs),
(198.525,606,o),
(153.525,577,o),
(129.525,523,cs),
(96.525,451,o),
(75,382,o),
(61,308,cs),
(25,129,o),
(114,-34,o),
(313,-34,cs)
);
},
{
closed = 1;
nodes = (
(264.525,254,o),
(355.525,262,o),
(520.525,272,cs),
(591.525,277,o),
(650.525,312,o),
(662.525,372,cs),
(673.525,424,o),
(645.525,444,o),
(566.525,444,cs),
(396.525,444,o),
(300.525,428,o),
(218.525,410,cs),
(179.525,401,o),
(144.525,364,o),
(135.525,322,cs),
(125.525,269,o),
(128.525,225,o),
(177.525,235,cs)
);
},
{
closed = 1;
nodes = (
(301.525,544,o),
(380.525,585,o),
(575.525,585,cs),
(660.525,585,o),
(687.525,612,o),
(696.525,655,cs),
(706.525,707,o),
(665.525,752,o),
(559.525,752,cs),
(458.525,752,o),
(297.525,735,o),
(166.525,695,cs),
(127.525,682,o),
(111.525,664,o),
(104.525,632,cs),
(96.525,589,o),
(132.525,544,o),
(218.525,544,cs)
);
}
);
vertWidth = 0;
width = 684;
}
);
unicode = 69;
}
